G04 #@! TF.GenerationSoftware,KiCad,Pcbnew,(6.0.6)*
G04 #@! TF.CreationDate,2023-05-14T15:30:48+09:00*
G04 #@! TF.ProjectId,USBKeyboard4S1,5553424b-6579-4626-9f61-72643453312e,0.1*
G04 #@! TF.SameCoordinates,Original*
G04 #@! TF.FileFunction,Soldermask,Top*
G04 #@! TF.FilePolarity,Negative*
%FSLAX46Y46*%
G04 Gerber Fmt 4.6, Leading zero omitted, Abs format (unit mm)*
G04 Created by KiCad (PCBNEW (6.0.6)) date 2023-05-14 15:30:48*
%MOMM*%
%LPD*%
G01*
G04 APERTURE LIST*
G04 Aperture macros list*
%AMRoundRect*
0 Rectangle with rounded corners*
0 $1 Rounding radius*
0 $2 $3 $4 $5 $6 $7 $8 $9 X,Y pos of 4 corners*
0 Add a 4 corners polygon primitive as box body*
4,1,4,$2,$3,$4,$5,$6,$7,$8,$9,$2,$3,0*
0 Add four circle primitives for the rounded corners*
1,1,$1+$1,$2,$3*
1,1,$1+$1,$4,$5*
1,1,$1+$1,$6,$7*
1,1,$1+$1,$8,$9*
0 Add four rect primitives between the rounded corners*
20,1,$1+$1,$2,$3,$4,$5,0*
20,1,$1+$1,$4,$5,$6,$7,0*
20,1,$1+$1,$6,$7,$8,$9,0*
20,1,$1+$1,$8,$9,$2,$3,0*%
G04 Aperture macros list end*
%ADD10R,1.700000X1.700000*%
%ADD11O,1.700000X1.700000*%
%ADD12R,1.905000X2.000000*%
%ADD13O,1.905000X2.000000*%
%ADD14C,1.600000*%
%ADD15R,1.600000X1.600000*%
%ADD16R,1.800000X1.800000*%
%ADD17C,1.800000*%
%ADD18C,2.200000*%
%ADD19O,1.600000X1.600000*%
%ADD20C,1.500000*%
%ADD21R,1.500000X1.600000*%
%ADD22C,4.300000*%
%ADD23C,2.000000*%
%ADD24RoundRect,0.250000X0.725000X-0.600000X0.725000X0.600000X-0.725000X0.600000X-0.725000X-0.600000X0*%
%ADD25O,1.950000X1.700000*%
G04 APERTURE END LIST*
D10*
X157480000Y-69215000D03*
D11*
X154940000Y-69215000D03*
X152400000Y-69215000D03*
X149860000Y-69215000D03*
D12*
X120650000Y-102470000D03*
D13*
X118110000Y-102470000D03*
X115570000Y-102470000D03*
D14*
X117475000Y-97790000D03*
X114975000Y-97790000D03*
D15*
X127595000Y-101029888D03*
D14*
X127595000Y-103529888D03*
D16*
X148590000Y-75565000D03*
D17*
X148590000Y-73025000D03*
D18*
X108585000Y-69215000D03*
D14*
X123150000Y-97790000D03*
X120650000Y-97790000D03*
D18*
X163195000Y-69215000D03*
D14*
X120015000Y-69440000D03*
D19*
X122555000Y-69440000D03*
D14*
X111760000Y-74295000D03*
D19*
X109220000Y-74295000D03*
D20*
X128270000Y-91360000D03*
X128270000Y-86460000D03*
D14*
X129500000Y-97155000D03*
X127000000Y-97155000D03*
D10*
X158115000Y-103505000D03*
D11*
X155575000Y-103505000D03*
X153035000Y-103505000D03*
X150495000Y-103505000D03*
X147955000Y-103505000D03*
X145415000Y-103505000D03*
D14*
X129540000Y-71755000D03*
D19*
X129540000Y-69215000D03*
D14*
X144780000Y-69850000D03*
X144780000Y-72350000D03*
D18*
X163195000Y-103505000D03*
D15*
X152947380Y-97155000D03*
D14*
X150447380Y-97155000D03*
D21*
X155930000Y-89860000D03*
D14*
X155930000Y-87360000D03*
X155930000Y-85360000D03*
X155930000Y-82860000D03*
D22*
X158640000Y-92930000D03*
X158640000Y-79790000D03*
D14*
X144780000Y-82550000D03*
X144780000Y-80050000D03*
X111760000Y-90805000D03*
D19*
X109220000Y-90805000D03*
D15*
X145415000Y-92075000D03*
D14*
X147915000Y-92075000D03*
X148590000Y-79375000D03*
D19*
X151130000Y-79375000D03*
D16*
X157480000Y-74295000D03*
D17*
X160020000Y-74295000D03*
D15*
X133350000Y-69835000D03*
D19*
X133350000Y-72375000D03*
X133350000Y-74915000D03*
X133350000Y-77455000D03*
X133350000Y-79995000D03*
X133350000Y-82535000D03*
X133350000Y-85075000D03*
X133350000Y-87615000D03*
X133350000Y-90155000D03*
X133350000Y-92695000D03*
X133350000Y-95235000D03*
X133350000Y-97775000D03*
X133350000Y-100315000D03*
X133350000Y-102855000D03*
X140970000Y-102855000D03*
X140970000Y-100315000D03*
X140970000Y-97775000D03*
X140970000Y-95235000D03*
X140970000Y-92695000D03*
X140970000Y-90155000D03*
X140970000Y-87615000D03*
X140970000Y-85075000D03*
X140970000Y-82535000D03*
X140970000Y-79995000D03*
X140970000Y-77455000D03*
X140970000Y-74915000D03*
X140970000Y-72375000D03*
X140970000Y-69835000D03*
D15*
X111760000Y-96520000D03*
D14*
X109260000Y-96520000D03*
X111760000Y-78105000D03*
D19*
X109220000Y-78105000D03*
D14*
X148590000Y-86995000D03*
D19*
X151130000Y-86995000D03*
D14*
X123190000Y-83820000D03*
X123190000Y-86320000D03*
X125730000Y-69215000D03*
X125730000Y-71715000D03*
X111760000Y-81915000D03*
D19*
X109220000Y-81915000D03*
D23*
X129540000Y-80065000D03*
X123040000Y-80065000D03*
X123040000Y-75565000D03*
X129540000Y-75565000D03*
D16*
X153035000Y-75565000D03*
D17*
X153035000Y-73025000D03*
D14*
X148590000Y-83185000D03*
D19*
X151130000Y-83185000D03*
D18*
X108585000Y-103505000D03*
D14*
X123190000Y-89555000D03*
X123190000Y-92055000D03*
D24*
X116840000Y-92710000D03*
D25*
X116840000Y-90210000D03*
X116840000Y-87710000D03*
X116840000Y-85210000D03*
X116840000Y-82710000D03*
X116840000Y-80210000D03*
X116840000Y-77710000D03*
X116840000Y-75210000D03*
M02*
