G04 #@! TF.GenerationSoftware,KiCad,Pcbnew,(6.0.6)*
G04 #@! TF.CreationDate,2023-10-21T22:28:58+09:00*
G04 #@! TF.ProjectId,USBKeyboard4S1,5553424b-6579-4626-9f61-72643453312e,0.1.1*
G04 #@! TF.SameCoordinates,Original*
G04 #@! TF.FileFunction,Legend,Top*
G04 #@! TF.FilePolarity,Positive*
%FSLAX46Y46*%
G04 Gerber Fmt 4.6, Leading zero omitted, Abs format (unit mm)*
G04 Created by KiCad (PCBNEW (6.0.6)) date 2023-10-21 22:28:58*
%MOMM*%
%LPD*%
G01*
G04 APERTURE LIST*
G04 Aperture macros list*
%AMRoundRect*
0 Rectangle with rounded corners*
0 $1 Rounding radius*
0 $2 $3 $4 $5 $6 $7 $8 $9 X,Y pos of 4 corners*
0 Add a 4 corners polygon primitive as box body*
4,1,4,$2,$3,$4,$5,$6,$7,$8,$9,$2,$3,0*
0 Add four circle primitives for the rounded corners*
1,1,$1+$1,$2,$3*
1,1,$1+$1,$4,$5*
1,1,$1+$1,$6,$7*
1,1,$1+$1,$8,$9*
0 Add four rect primitives between the rounded corners*
20,1,$1+$1,$2,$3,$4,$5,0*
20,1,$1+$1,$4,$5,$6,$7,0*
20,1,$1+$1,$6,$7,$8,$9,0*
20,1,$1+$1,$8,$9,$2,$3,0*%
G04 Aperture macros list end*
%ADD10C,0.100000*%
%ADD11C,0.150000*%
%ADD12C,0.120000*%
%ADD13R,1.700000X1.700000*%
%ADD14O,1.700000X1.700000*%
%ADD15R,1.905000X2.000000*%
%ADD16O,1.905000X2.000000*%
%ADD17C,1.600000*%
%ADD18R,1.600000X1.600000*%
%ADD19R,1.800000X1.800000*%
%ADD20C,1.800000*%
%ADD21C,2.200000*%
%ADD22O,1.600000X1.600000*%
%ADD23C,1.500000*%
%ADD24R,1.500000X1.600000*%
%ADD25C,4.300000*%
%ADD26C,2.000000*%
%ADD27RoundRect,0.250000X0.725000X-0.600000X0.725000X0.600000X-0.725000X0.600000X-0.725000X-0.600000X0*%
%ADD28O,1.950000X1.700000*%
G04 APERTURE END LIST*
D10*
G36*
X152146000Y-74676000D02*
G01*
X151892000Y-74295000D01*
X152400000Y-74295000D01*
X152146000Y-74676000D01*
G37*
X152146000Y-74676000D02*
X151892000Y-74295000D01*
X152400000Y-74295000D01*
X152146000Y-74676000D01*
G36*
X158750000Y-75439954D02*
G01*
X158369000Y-75185954D01*
X158750000Y-74931954D01*
X158750000Y-75439954D01*
G37*
X158750000Y-75439954D02*
X158369000Y-75185954D01*
X158750000Y-74931954D01*
X158750000Y-75439954D01*
G36*
X147701000Y-74676000D02*
G01*
X147447000Y-74295000D01*
X147955000Y-74295000D01*
X147701000Y-74676000D01*
G37*
X147701000Y-74676000D02*
X147447000Y-74295000D01*
X147955000Y-74295000D01*
X147701000Y-74676000D01*
D11*
G36*
X106553000Y-88900000D02*
G01*
X105664000Y-88900000D01*
X105664000Y-83820000D01*
X106553000Y-83820000D01*
X106553000Y-88900000D01*
G37*
X106553000Y-88900000D02*
X105664000Y-88900000D01*
X105664000Y-83820000D01*
X106553000Y-83820000D01*
X106553000Y-88900000D01*
X155910595Y-95802380D02*
X155910595Y-96611904D01*
X155958214Y-96707142D01*
X156005833Y-96754761D01*
X156101071Y-96802380D01*
X156291547Y-96802380D01*
X156386785Y-96754761D01*
X156434404Y-96707142D01*
X156482023Y-96611904D01*
X156482023Y-95802380D01*
X156910595Y-96754761D02*
X157053452Y-96802380D01*
X157291547Y-96802380D01*
X157386785Y-96754761D01*
X157434404Y-96707142D01*
X157482023Y-96611904D01*
X157482023Y-96516666D01*
X157434404Y-96421428D01*
X157386785Y-96373809D01*
X157291547Y-96326190D01*
X157101071Y-96278571D01*
X157005833Y-96230952D01*
X156958214Y-96183333D01*
X156910595Y-96088095D01*
X156910595Y-95992857D01*
X156958214Y-95897619D01*
X157005833Y-95850000D01*
X157101071Y-95802380D01*
X157339166Y-95802380D01*
X157482023Y-95850000D01*
X158243928Y-96278571D02*
X158386785Y-96326190D01*
X158434404Y-96373809D01*
X158482023Y-96469047D01*
X158482023Y-96611904D01*
X158434404Y-96707142D01*
X158386785Y-96754761D01*
X158291547Y-96802380D01*
X157910595Y-96802380D01*
X157910595Y-95802380D01*
X158243928Y-95802380D01*
X158339166Y-95850000D01*
X158386785Y-95897619D01*
X158434404Y-95992857D01*
X158434404Y-96088095D01*
X158386785Y-96183333D01*
X158339166Y-96230952D01*
X158243928Y-96278571D01*
X157910595Y-96278571D01*
X158910595Y-96802380D02*
X158910595Y-95802380D01*
X159482023Y-96802380D02*
X159053452Y-96230952D01*
X159482023Y-95802380D02*
X158910595Y-96373809D01*
X160291547Y-96754761D02*
X160196309Y-96802380D01*
X160005833Y-96802380D01*
X159910595Y-96754761D01*
X159862976Y-96659523D01*
X159862976Y-96278571D01*
X159910595Y-96183333D01*
X160005833Y-96135714D01*
X160196309Y-96135714D01*
X160291547Y-96183333D01*
X160339166Y-96278571D01*
X160339166Y-96373809D01*
X159862976Y-96469047D01*
X160672500Y-96135714D02*
X160910595Y-96802380D01*
X161148690Y-96135714D02*
X160910595Y-96802380D01*
X160815357Y-97040476D01*
X160767738Y-97088095D01*
X160672500Y-97135714D01*
X161529642Y-96802380D02*
X161529642Y-95802380D01*
X161529642Y-96183333D02*
X161624880Y-96135714D01*
X161815357Y-96135714D01*
X161910595Y-96183333D01*
X161958214Y-96230952D01*
X162005833Y-96326190D01*
X162005833Y-96611904D01*
X161958214Y-96707142D01*
X161910595Y-96754761D01*
X161815357Y-96802380D01*
X161624880Y-96802380D01*
X161529642Y-96754761D01*
X162577261Y-96802380D02*
X162482023Y-96754761D01*
X162434404Y-96707142D01*
X162386785Y-96611904D01*
X162386785Y-96326190D01*
X162434404Y-96230952D01*
X162482023Y-96183333D01*
X162577261Y-96135714D01*
X162720119Y-96135714D01*
X162815357Y-96183333D01*
X162862976Y-96230952D01*
X162910595Y-96326190D01*
X162910595Y-96611904D01*
X162862976Y-96707142D01*
X162815357Y-96754761D01*
X162720119Y-96802380D01*
X162577261Y-96802380D01*
X163767738Y-96802380D02*
X163767738Y-96278571D01*
X163720119Y-96183333D01*
X163624880Y-96135714D01*
X163434404Y-96135714D01*
X163339166Y-96183333D01*
X163767738Y-96754761D02*
X163672500Y-96802380D01*
X163434404Y-96802380D01*
X163339166Y-96754761D01*
X163291547Y-96659523D01*
X163291547Y-96564285D01*
X163339166Y-96469047D01*
X163434404Y-96421428D01*
X163672500Y-96421428D01*
X163767738Y-96373809D01*
X164243928Y-96802380D02*
X164243928Y-96135714D01*
X164243928Y-96326190D02*
X164291547Y-96230952D01*
X164339166Y-96183333D01*
X164434404Y-96135714D01*
X164529642Y-96135714D01*
X165291547Y-96802380D02*
X165291547Y-95802380D01*
X165291547Y-96754761D02*
X165196309Y-96802380D01*
X165005833Y-96802380D01*
X164910595Y-96754761D01*
X164862976Y-96707142D01*
X164815357Y-96611904D01*
X164815357Y-96326190D01*
X164862976Y-96230952D01*
X164910595Y-96183333D01*
X165005833Y-96135714D01*
X165196309Y-96135714D01*
X165291547Y-96183333D01*
X156529642Y-97745714D02*
X156910595Y-97745714D01*
X156672500Y-98412380D02*
X156672500Y-97555238D01*
X156720119Y-97460000D01*
X156815357Y-97412380D01*
X156910595Y-97412380D01*
X157386785Y-98412380D02*
X157291547Y-98364761D01*
X157243928Y-98317142D01*
X157196309Y-98221904D01*
X157196309Y-97936190D01*
X157243928Y-97840952D01*
X157291547Y-97793333D01*
X157386785Y-97745714D01*
X157529642Y-97745714D01*
X157624880Y-97793333D01*
X157672500Y-97840952D01*
X157720119Y-97936190D01*
X157720119Y-98221904D01*
X157672500Y-98317142D01*
X157624880Y-98364761D01*
X157529642Y-98412380D01*
X157386785Y-98412380D01*
X158148690Y-98412380D02*
X158148690Y-97745714D01*
X158148690Y-97936190D02*
X158196309Y-97840952D01*
X158243928Y-97793333D01*
X158339166Y-97745714D01*
X158434404Y-97745714D01*
X159482023Y-98364761D02*
X159624880Y-98412380D01*
X159862976Y-98412380D01*
X159958214Y-98364761D01*
X160005833Y-98317142D01*
X160053452Y-98221904D01*
X160053452Y-98126666D01*
X160005833Y-98031428D01*
X159958214Y-97983809D01*
X159862976Y-97936190D01*
X159672500Y-97888571D01*
X159577261Y-97840952D01*
X159529642Y-97793333D01*
X159482023Y-97698095D01*
X159482023Y-97602857D01*
X159529642Y-97507619D01*
X159577261Y-97460000D01*
X159672500Y-97412380D01*
X159910595Y-97412380D01*
X160053452Y-97460000D01*
X161005833Y-98412380D02*
X160434404Y-98412380D01*
X160720119Y-98412380D02*
X160720119Y-97412380D01*
X160624880Y-97555238D01*
X160529642Y-97650476D01*
X160434404Y-97698095D01*
X162482023Y-98745714D02*
X162243928Y-98745714D01*
X162243928Y-97317142D01*
X162482023Y-97317142D01*
X162862976Y-98412380D02*
X162862976Y-97412380D01*
X163434404Y-98412380D01*
X163434404Y-97412380D01*
X163815357Y-98745714D02*
X164053452Y-98745714D01*
X164053452Y-97317142D01*
X163815357Y-97317142D01*
D12*
X158235952Y-100056904D02*
X157969285Y-99675952D01*
X157778809Y-100056904D02*
X157778809Y-99256904D01*
X158083571Y-99256904D01*
X158159761Y-99295000D01*
X158197857Y-99333095D01*
X158235952Y-99409285D01*
X158235952Y-99523571D01*
X158197857Y-99599761D01*
X158159761Y-99637857D01*
X158083571Y-99675952D01*
X157778809Y-99675952D01*
X158883571Y-100018809D02*
X158807380Y-100056904D01*
X158655000Y-100056904D01*
X158578809Y-100018809D01*
X158540714Y-99942619D01*
X158540714Y-99637857D01*
X158578809Y-99561666D01*
X158655000Y-99523571D01*
X158807380Y-99523571D01*
X158883571Y-99561666D01*
X158921666Y-99637857D01*
X158921666Y-99714047D01*
X158540714Y-99790238D01*
X159188333Y-99523571D02*
X159378809Y-100056904D01*
X159569285Y-99523571D01*
X159874047Y-99980714D02*
X159912142Y-100018809D01*
X159874047Y-100056904D01*
X159835952Y-100018809D01*
X159874047Y-99980714D01*
X159874047Y-100056904D01*
X161016904Y-99256904D02*
X161093095Y-99256904D01*
X161169285Y-99295000D01*
X161207380Y-99333095D01*
X161245476Y-99409285D01*
X161283571Y-99561666D01*
X161283571Y-99752142D01*
X161245476Y-99904523D01*
X161207380Y-99980714D01*
X161169285Y-100018809D01*
X161093095Y-100056904D01*
X161016904Y-100056904D01*
X160940714Y-100018809D01*
X160902619Y-99980714D01*
X160864523Y-99904523D01*
X160826428Y-99752142D01*
X160826428Y-99561666D01*
X160864523Y-99409285D01*
X160902619Y-99333095D01*
X160940714Y-99295000D01*
X161016904Y-99256904D01*
X161626428Y-99980714D02*
X161664523Y-100018809D01*
X161626428Y-100056904D01*
X161588333Y-100018809D01*
X161626428Y-99980714D01*
X161626428Y-100056904D01*
X162426428Y-100056904D02*
X161969285Y-100056904D01*
X162197857Y-100056904D02*
X162197857Y-99256904D01*
X162121666Y-99371190D01*
X162045476Y-99447380D01*
X161969285Y-99485476D01*
X162769285Y-99980714D02*
X162807380Y-100018809D01*
X162769285Y-100056904D01*
X162731190Y-100018809D01*
X162769285Y-99980714D01*
X162769285Y-100056904D01*
X163569285Y-100056904D02*
X163112142Y-100056904D01*
X163340714Y-100056904D02*
X163340714Y-99256904D01*
X163264523Y-99371190D01*
X163188333Y-99447380D01*
X163112142Y-99485476D01*
X128988476Y-105771904D02*
X128988476Y-104971904D01*
X129178952Y-104971904D01*
X129293238Y-105010000D01*
X129369428Y-105086190D01*
X129407523Y-105162380D01*
X129445619Y-105314761D01*
X129445619Y-105429047D01*
X129407523Y-105581428D01*
X129369428Y-105657619D01*
X129293238Y-105733809D01*
X129178952Y-105771904D01*
X128988476Y-105771904D01*
X130093238Y-105733809D02*
X130017047Y-105771904D01*
X129864666Y-105771904D01*
X129788476Y-105733809D01*
X129750380Y-105657619D01*
X129750380Y-105352857D01*
X129788476Y-105276666D01*
X129864666Y-105238571D01*
X130017047Y-105238571D01*
X130093238Y-105276666D01*
X130131333Y-105352857D01*
X130131333Y-105429047D01*
X129750380Y-105505238D01*
X130436095Y-105733809D02*
X130512285Y-105771904D01*
X130664666Y-105771904D01*
X130740857Y-105733809D01*
X130778952Y-105657619D01*
X130778952Y-105619523D01*
X130740857Y-105543333D01*
X130664666Y-105505238D01*
X130550380Y-105505238D01*
X130474190Y-105467142D01*
X130436095Y-105390952D01*
X130436095Y-105352857D01*
X130474190Y-105276666D01*
X130550380Y-105238571D01*
X130664666Y-105238571D01*
X130740857Y-105276666D01*
X131121809Y-105771904D02*
X131121809Y-105238571D01*
X131121809Y-104971904D02*
X131083714Y-105010000D01*
X131121809Y-105048095D01*
X131159904Y-105010000D01*
X131121809Y-104971904D01*
X131121809Y-105048095D01*
X131845619Y-105238571D02*
X131845619Y-105886190D01*
X131807523Y-105962380D01*
X131769428Y-106000476D01*
X131693238Y-106038571D01*
X131578952Y-106038571D01*
X131502761Y-106000476D01*
X131845619Y-105733809D02*
X131769428Y-105771904D01*
X131617047Y-105771904D01*
X131540857Y-105733809D01*
X131502761Y-105695714D01*
X131464666Y-105619523D01*
X131464666Y-105390952D01*
X131502761Y-105314761D01*
X131540857Y-105276666D01*
X131617047Y-105238571D01*
X131769428Y-105238571D01*
X131845619Y-105276666D01*
X132226571Y-105238571D02*
X132226571Y-105771904D01*
X132226571Y-105314761D02*
X132264666Y-105276666D01*
X132340857Y-105238571D01*
X132455142Y-105238571D01*
X132531333Y-105276666D01*
X132569428Y-105352857D01*
X132569428Y-105771904D01*
X133255142Y-105733809D02*
X133178952Y-105771904D01*
X133026571Y-105771904D01*
X132950380Y-105733809D01*
X132912285Y-105657619D01*
X132912285Y-105352857D01*
X132950380Y-105276666D01*
X133026571Y-105238571D01*
X133178952Y-105238571D01*
X133255142Y-105276666D01*
X133293238Y-105352857D01*
X133293238Y-105429047D01*
X132912285Y-105505238D01*
X133978952Y-105771904D02*
X133978952Y-104971904D01*
X133978952Y-105733809D02*
X133902761Y-105771904D01*
X133750380Y-105771904D01*
X133674190Y-105733809D01*
X133636095Y-105695714D01*
X133598000Y-105619523D01*
X133598000Y-105390952D01*
X133636095Y-105314761D01*
X133674190Y-105276666D01*
X133750380Y-105238571D01*
X133902761Y-105238571D01*
X133978952Y-105276666D01*
X134969428Y-105771904D02*
X134969428Y-104971904D01*
X134969428Y-105276666D02*
X135045619Y-105238571D01*
X135198000Y-105238571D01*
X135274190Y-105276666D01*
X135312285Y-105314761D01*
X135350380Y-105390952D01*
X135350380Y-105619523D01*
X135312285Y-105695714D01*
X135274190Y-105733809D01*
X135198000Y-105771904D01*
X135045619Y-105771904D01*
X134969428Y-105733809D01*
X135617047Y-105238571D02*
X135807523Y-105771904D01*
X135998000Y-105238571D02*
X135807523Y-105771904D01*
X135731333Y-105962380D01*
X135693238Y-106000476D01*
X135617047Y-106038571D01*
X136874190Y-105733809D02*
X136988476Y-105771904D01*
X137178952Y-105771904D01*
X137255142Y-105733809D01*
X137293238Y-105695714D01*
X137331333Y-105619523D01*
X137331333Y-105543333D01*
X137293238Y-105467142D01*
X137255142Y-105429047D01*
X137178952Y-105390952D01*
X137026571Y-105352857D01*
X136950380Y-105314761D01*
X136912285Y-105276666D01*
X136874190Y-105200476D01*
X136874190Y-105124285D01*
X136912285Y-105048095D01*
X136950380Y-105010000D01*
X137026571Y-104971904D01*
X137217047Y-104971904D01*
X137331333Y-105010000D01*
X138017047Y-105771904D02*
X138017047Y-105352857D01*
X137978952Y-105276666D01*
X137902761Y-105238571D01*
X137750380Y-105238571D01*
X137674190Y-105276666D01*
X138017047Y-105733809D02*
X137940857Y-105771904D01*
X137750380Y-105771904D01*
X137674190Y-105733809D01*
X137636095Y-105657619D01*
X137636095Y-105581428D01*
X137674190Y-105505238D01*
X137750380Y-105467142D01*
X137940857Y-105467142D01*
X138017047Y-105429047D01*
X138359904Y-105733809D02*
X138436095Y-105771904D01*
X138588476Y-105771904D01*
X138664666Y-105733809D01*
X138702761Y-105657619D01*
X138702761Y-105619523D01*
X138664666Y-105543333D01*
X138588476Y-105505238D01*
X138474190Y-105505238D01*
X138398000Y-105467142D01*
X138359904Y-105390952D01*
X138359904Y-105352857D01*
X138398000Y-105276666D01*
X138474190Y-105238571D01*
X138588476Y-105238571D01*
X138664666Y-105276666D01*
X139388476Y-105771904D02*
X139388476Y-105352857D01*
X139350380Y-105276666D01*
X139274190Y-105238571D01*
X139121809Y-105238571D01*
X139045619Y-105276666D01*
X139388476Y-105733809D02*
X139312285Y-105771904D01*
X139121809Y-105771904D01*
X139045619Y-105733809D01*
X139007523Y-105657619D01*
X139007523Y-105581428D01*
X139045619Y-105505238D01*
X139121809Y-105467142D01*
X139312285Y-105467142D01*
X139388476Y-105429047D01*
X139769428Y-105238571D02*
X139769428Y-105924285D01*
X139731333Y-106000476D01*
X139655142Y-106038571D01*
X139617047Y-106038571D01*
X139769428Y-104971904D02*
X139731333Y-105010000D01*
X139769428Y-105048095D01*
X139807523Y-105010000D01*
X139769428Y-104971904D01*
X139769428Y-105048095D01*
X140150380Y-105771904D02*
X140150380Y-105238571D01*
X140150380Y-104971904D02*
X140112285Y-105010000D01*
X140150380Y-105048095D01*
X140188476Y-105010000D01*
X140150380Y-104971904D01*
X140150380Y-105048095D01*
X141102761Y-105048095D02*
X141140857Y-105010000D01*
X141217047Y-104971904D01*
X141407523Y-104971904D01*
X141483714Y-105010000D01*
X141521809Y-105048095D01*
X141559904Y-105124285D01*
X141559904Y-105200476D01*
X141521809Y-105314761D01*
X141064666Y-105771904D01*
X141559904Y-105771904D01*
X142055142Y-104971904D02*
X142131333Y-104971904D01*
X142207523Y-105010000D01*
X142245619Y-105048095D01*
X142283714Y-105124285D01*
X142321809Y-105276666D01*
X142321809Y-105467142D01*
X142283714Y-105619523D01*
X142245619Y-105695714D01*
X142207523Y-105733809D01*
X142131333Y-105771904D01*
X142055142Y-105771904D01*
X141978952Y-105733809D01*
X141940857Y-105695714D01*
X141902761Y-105619523D01*
X141864666Y-105467142D01*
X141864666Y-105276666D01*
X141902761Y-105124285D01*
X141940857Y-105048095D01*
X141978952Y-105010000D01*
X142055142Y-104971904D01*
X142626571Y-105048095D02*
X142664666Y-105010000D01*
X142740857Y-104971904D01*
X142931333Y-104971904D01*
X143007523Y-105010000D01*
X143045619Y-105048095D01*
X143083714Y-105124285D01*
X143083714Y-105200476D01*
X143045619Y-105314761D01*
X142588476Y-105771904D01*
X143083714Y-105771904D01*
X143350380Y-104971904D02*
X143845619Y-104971904D01*
X143578952Y-105276666D01*
X143693238Y-105276666D01*
X143769428Y-105314761D01*
X143807523Y-105352857D01*
X143845619Y-105429047D01*
X143845619Y-105619523D01*
X143807523Y-105695714D01*
X143769428Y-105733809D01*
X143693238Y-105771904D01*
X143464666Y-105771904D01*
X143388476Y-105733809D01*
X143350380Y-105695714D01*
D11*
X147113666Y-68032380D02*
X147113666Y-68746666D01*
X147066047Y-68889523D01*
X146970809Y-68984761D01*
X146827952Y-69032380D01*
X146732714Y-69032380D01*
X148018428Y-68365714D02*
X148018428Y-69032380D01*
X147780333Y-67984761D02*
X147542238Y-68699047D01*
X148161285Y-68699047D01*
D12*
X156451428Y-67367142D02*
X157060952Y-67367142D01*
X156756190Y-67671904D02*
X156756190Y-67062380D01*
X157822857Y-66871904D02*
X157441904Y-66871904D01*
X157403809Y-67252857D01*
X157441904Y-67214761D01*
X157518095Y-67176666D01*
X157708571Y-67176666D01*
X157784761Y-67214761D01*
X157822857Y-67252857D01*
X157860952Y-67329047D01*
X157860952Y-67519523D01*
X157822857Y-67595714D01*
X157784761Y-67633809D01*
X157708571Y-67671904D01*
X157518095Y-67671904D01*
X157441904Y-67633809D01*
X157403809Y-67595714D01*
X158089523Y-66871904D02*
X158356190Y-67671904D01*
X158622857Y-66871904D01*
X149250476Y-66910000D02*
X149174285Y-66871904D01*
X149060000Y-66871904D01*
X148945714Y-66910000D01*
X148869523Y-66986190D01*
X148831428Y-67062380D01*
X148793333Y-67214761D01*
X148793333Y-67329047D01*
X148831428Y-67481428D01*
X148869523Y-67557619D01*
X148945714Y-67633809D01*
X149060000Y-67671904D01*
X149136190Y-67671904D01*
X149250476Y-67633809D01*
X149288571Y-67595714D01*
X149288571Y-67329047D01*
X149136190Y-67329047D01*
X149631428Y-67671904D02*
X149631428Y-66871904D01*
X150088571Y-67671904D01*
X150088571Y-66871904D01*
X150469523Y-67671904D02*
X150469523Y-66871904D01*
X150660000Y-66871904D01*
X150774285Y-66910000D01*
X150850476Y-66986190D01*
X150888571Y-67062380D01*
X150926666Y-67214761D01*
X150926666Y-67329047D01*
X150888571Y-67481428D01*
X150850476Y-67557619D01*
X150774285Y-67633809D01*
X150660000Y-67671904D01*
X150469523Y-67671904D01*
X154330476Y-66871904D02*
X154787619Y-66871904D01*
X154559047Y-67671904D02*
X154559047Y-66871904D01*
X154978095Y-66871904D02*
X155511428Y-67671904D01*
X155511428Y-66871904D02*
X154978095Y-67671904D01*
X152236666Y-67671904D02*
X151970000Y-67290952D01*
X151779523Y-67671904D02*
X151779523Y-66871904D01*
X152084285Y-66871904D01*
X152160476Y-66910000D01*
X152198571Y-66948095D01*
X152236666Y-67024285D01*
X152236666Y-67138571D01*
X152198571Y-67214761D01*
X152160476Y-67252857D01*
X152084285Y-67290952D01*
X151779523Y-67290952D01*
X152503333Y-66871904D02*
X153036666Y-67671904D01*
X153036666Y-66871904D02*
X152503333Y-67671904D01*
D11*
X123698095Y-104692380D02*
X123698095Y-105501904D01*
X123745714Y-105597142D01*
X123793333Y-105644761D01*
X123888571Y-105692380D01*
X124079047Y-105692380D01*
X124174285Y-105644761D01*
X124221904Y-105597142D01*
X124269523Y-105501904D01*
X124269523Y-104692380D01*
X124698095Y-104787619D02*
X124745714Y-104740000D01*
X124840952Y-104692380D01*
X125079047Y-104692380D01*
X125174285Y-104740000D01*
X125221904Y-104787619D01*
X125269523Y-104882857D01*
X125269523Y-104978095D01*
X125221904Y-105120952D01*
X124650476Y-105692380D01*
X125269523Y-105692380D01*
D10*
X114316000Y-104429714D02*
X114696952Y-104429714D01*
X114506476Y-104620190D02*
X114506476Y-104239238D01*
X114887428Y-104120190D02*
X115196952Y-104120190D01*
X115030285Y-104310666D01*
X115101714Y-104310666D01*
X115149333Y-104334476D01*
X115173142Y-104358285D01*
X115196952Y-104405904D01*
X115196952Y-104524952D01*
X115173142Y-104572571D01*
X115149333Y-104596380D01*
X115101714Y-104620190D01*
X114958857Y-104620190D01*
X114911238Y-104596380D01*
X114887428Y-104572571D01*
X115411238Y-104572571D02*
X115435047Y-104596380D01*
X115411238Y-104620190D01*
X115387428Y-104596380D01*
X115411238Y-104572571D01*
X115411238Y-104620190D01*
X115601714Y-104120190D02*
X115911238Y-104120190D01*
X115744571Y-104310666D01*
X115816000Y-104310666D01*
X115863619Y-104334476D01*
X115887428Y-104358285D01*
X115911238Y-104405904D01*
X115911238Y-104524952D01*
X115887428Y-104572571D01*
X115863619Y-104596380D01*
X115816000Y-104620190D01*
X115673142Y-104620190D01*
X115625523Y-104596380D01*
X115601714Y-104572571D01*
X116054095Y-104120190D02*
X116220761Y-104620190D01*
X116387428Y-104120190D01*
D12*
X122789904Y-102781047D02*
X121989904Y-102781047D01*
X122789904Y-102400095D02*
X121989904Y-102400095D01*
X122789904Y-101942952D01*
X121989904Y-101942952D01*
D10*
X120007142Y-104429714D02*
X120388095Y-104429714D01*
X120197619Y-104620190D02*
X120197619Y-104239238D01*
X120864285Y-104120190D02*
X120626190Y-104120190D01*
X120602380Y-104358285D01*
X120626190Y-104334476D01*
X120673809Y-104310666D01*
X120792857Y-104310666D01*
X120840476Y-104334476D01*
X120864285Y-104358285D01*
X120888095Y-104405904D01*
X120888095Y-104524952D01*
X120864285Y-104572571D01*
X120840476Y-104596380D01*
X120792857Y-104620190D01*
X120673809Y-104620190D01*
X120626190Y-104596380D01*
X120602380Y-104572571D01*
X121030952Y-104120190D02*
X121197619Y-104620190D01*
X121364285Y-104120190D01*
X117729047Y-104144000D02*
X117681428Y-104120190D01*
X117610000Y-104120190D01*
X117538571Y-104144000D01*
X117490952Y-104191619D01*
X117467142Y-104239238D01*
X117443333Y-104334476D01*
X117443333Y-104405904D01*
X117467142Y-104501142D01*
X117490952Y-104548761D01*
X117538571Y-104596380D01*
X117610000Y-104620190D01*
X117657619Y-104620190D01*
X117729047Y-104596380D01*
X117752857Y-104572571D01*
X117752857Y-104405904D01*
X117657619Y-104405904D01*
X117967142Y-104620190D02*
X117967142Y-104120190D01*
X118252857Y-104620190D01*
X118252857Y-104120190D01*
X118490952Y-104620190D02*
X118490952Y-104120190D01*
X118610000Y-104120190D01*
X118681428Y-104144000D01*
X118729047Y-104191619D01*
X118752857Y-104239238D01*
X118776666Y-104334476D01*
X118776666Y-104405904D01*
X118752857Y-104501142D01*
X118729047Y-104548761D01*
X118681428Y-104596380D01*
X118610000Y-104620190D01*
X118490952Y-104620190D01*
D12*
X113353904Y-103162000D02*
X113353904Y-103009619D01*
X113392000Y-102933428D01*
X113468190Y-102857238D01*
X113620571Y-102819142D01*
X113887238Y-102819142D01*
X114039619Y-102857238D01*
X114115809Y-102933428D01*
X114153904Y-103009619D01*
X114153904Y-103162000D01*
X114115809Y-103238190D01*
X114039619Y-103314380D01*
X113887238Y-103352476D01*
X113620571Y-103352476D01*
X113468190Y-103314380D01*
X113392000Y-103238190D01*
X113353904Y-103162000D01*
X113353904Y-102476285D02*
X114001523Y-102476285D01*
X114077714Y-102438190D01*
X114115809Y-102400095D01*
X114153904Y-102323904D01*
X114153904Y-102171523D01*
X114115809Y-102095333D01*
X114077714Y-102057238D01*
X114001523Y-102019142D01*
X113353904Y-102019142D01*
X113353904Y-101752476D02*
X113353904Y-101295333D01*
X114153904Y-101523904D02*
X113353904Y-101523904D01*
D11*
X116038333Y-100052142D02*
X115990714Y-100099761D01*
X115847857Y-100147380D01*
X115752619Y-100147380D01*
X115609761Y-100099761D01*
X115514523Y-100004523D01*
X115466904Y-99909285D01*
X115419285Y-99718809D01*
X115419285Y-99575952D01*
X115466904Y-99385476D01*
X115514523Y-99290238D01*
X115609761Y-99195000D01*
X115752619Y-99147380D01*
X115847857Y-99147380D01*
X115990714Y-99195000D01*
X116038333Y-99242619D01*
X116609761Y-99575952D02*
X116514523Y-99528333D01*
X116466904Y-99480714D01*
X116419285Y-99385476D01*
X116419285Y-99337857D01*
X116466904Y-99242619D01*
X116514523Y-99195000D01*
X116609761Y-99147380D01*
X116800238Y-99147380D01*
X116895476Y-99195000D01*
X116943095Y-99242619D01*
X116990714Y-99337857D01*
X116990714Y-99385476D01*
X116943095Y-99480714D01*
X116895476Y-99528333D01*
X116800238Y-99575952D01*
X116609761Y-99575952D01*
X116514523Y-99623571D01*
X116466904Y-99671190D01*
X116419285Y-99766428D01*
X116419285Y-99956904D01*
X116466904Y-100052142D01*
X116514523Y-100099761D01*
X116609761Y-100147380D01*
X116800238Y-100147380D01*
X116895476Y-100099761D01*
X116943095Y-100052142D01*
X116990714Y-99956904D01*
X116990714Y-99766428D01*
X116943095Y-99671190D01*
X116895476Y-99623571D01*
X116800238Y-99575952D01*
X124928333Y-100052142D02*
X124880714Y-100099761D01*
X124737857Y-100147380D01*
X124642619Y-100147380D01*
X124499761Y-100099761D01*
X124404523Y-100004523D01*
X124356904Y-99909285D01*
X124309285Y-99718809D01*
X124309285Y-99575952D01*
X124356904Y-99385476D01*
X124404523Y-99290238D01*
X124499761Y-99195000D01*
X124642619Y-99147380D01*
X124737857Y-99147380D01*
X124880714Y-99195000D01*
X124928333Y-99242619D01*
X125261666Y-99147380D02*
X125928333Y-99147380D01*
X125499761Y-100147380D01*
X145311904Y-74747380D02*
X145311904Y-73747380D01*
X145550000Y-73747380D01*
X145692857Y-73795000D01*
X145788095Y-73890238D01*
X145835714Y-73985476D01*
X145883333Y-74175952D01*
X145883333Y-74318809D01*
X145835714Y-74509285D01*
X145788095Y-74604523D01*
X145692857Y-74699761D01*
X145550000Y-74747380D01*
X145311904Y-74747380D01*
X146835714Y-74747380D02*
X146264285Y-74747380D01*
X146550000Y-74747380D02*
X146550000Y-73747380D01*
X146454761Y-73890238D01*
X146359523Y-73985476D01*
X146264285Y-74033095D01*
X121118333Y-100052142D02*
X121070714Y-100099761D01*
X120927857Y-100147380D01*
X120832619Y-100147380D01*
X120689761Y-100099761D01*
X120594523Y-100004523D01*
X120546904Y-99909285D01*
X120499285Y-99718809D01*
X120499285Y-99575952D01*
X120546904Y-99385476D01*
X120594523Y-99290238D01*
X120689761Y-99195000D01*
X120832619Y-99147380D01*
X120927857Y-99147380D01*
X121070714Y-99195000D01*
X121118333Y-99242619D01*
X121975476Y-99147380D02*
X121785000Y-99147380D01*
X121689761Y-99195000D01*
X121642142Y-99242619D01*
X121546904Y-99385476D01*
X121499285Y-99575952D01*
X121499285Y-99956904D01*
X121546904Y-100052142D01*
X121594523Y-100099761D01*
X121689761Y-100147380D01*
X121880238Y-100147380D01*
X121975476Y-100099761D01*
X122023095Y-100052142D01*
X122070714Y-99956904D01*
X122070714Y-99718809D01*
X122023095Y-99623571D01*
X121975476Y-99575952D01*
X121880238Y-99528333D01*
X121689761Y-99528333D01*
X121594523Y-99575952D01*
X121546904Y-99623571D01*
X121499285Y-99718809D01*
X121880333Y-71826380D02*
X121547000Y-71350190D01*
X121308904Y-71826380D02*
X121308904Y-70826380D01*
X121689857Y-70826380D01*
X121785095Y-70874000D01*
X121832714Y-70921619D01*
X121880333Y-71016857D01*
X121880333Y-71159714D01*
X121832714Y-71254952D01*
X121785095Y-71302571D01*
X121689857Y-71350190D01*
X121308904Y-71350190D01*
X122737476Y-71159714D02*
X122737476Y-71826380D01*
X122499380Y-70778761D02*
X122261285Y-71493047D01*
X122880333Y-71493047D01*
X115911333Y-71826380D02*
X115578000Y-71350190D01*
X115339904Y-71826380D02*
X115339904Y-70826380D01*
X115720857Y-70826380D01*
X115816095Y-70874000D01*
X115863714Y-70921619D01*
X115911333Y-71016857D01*
X115911333Y-71159714D01*
X115863714Y-71254952D01*
X115816095Y-71302571D01*
X115720857Y-71350190D01*
X115339904Y-71350190D01*
X116244666Y-70826380D02*
X116911333Y-70826380D01*
X116482761Y-71826380D01*
X130333809Y-94591190D02*
X130333809Y-95067380D01*
X130000476Y-94067380D02*
X130333809Y-94591190D01*
X130667142Y-94067380D01*
X131524285Y-95067380D02*
X130952857Y-95067380D01*
X131238571Y-95067380D02*
X131238571Y-94067380D01*
X131143333Y-94210238D01*
X131048095Y-94305476D01*
X130952857Y-94353095D01*
X130643333Y-99417142D02*
X130595714Y-99464761D01*
X130452857Y-99512380D01*
X130357619Y-99512380D01*
X130214761Y-99464761D01*
X130119523Y-99369523D01*
X130071904Y-99274285D01*
X130024285Y-99083809D01*
X130024285Y-98940952D01*
X130071904Y-98750476D01*
X130119523Y-98655238D01*
X130214761Y-98560000D01*
X130357619Y-98512380D01*
X130452857Y-98512380D01*
X130595714Y-98560000D01*
X130643333Y-98607619D01*
X131595714Y-99512380D02*
X131024285Y-99512380D01*
X131310000Y-99512380D02*
X131310000Y-98512380D01*
X131214761Y-98655238D01*
X131119523Y-98750476D01*
X131024285Y-98798095D01*
X157654666Y-100925380D02*
X157654666Y-101639666D01*
X157607047Y-101782523D01*
X157511809Y-101877761D01*
X157368952Y-101925380D01*
X157273714Y-101925380D01*
X158035619Y-100925380D02*
X158654666Y-100925380D01*
X158321333Y-101306333D01*
X158464190Y-101306333D01*
X158559428Y-101353952D01*
X158607047Y-101401571D01*
X158654666Y-101496809D01*
X158654666Y-101734904D01*
X158607047Y-101830142D01*
X158559428Y-101877761D01*
X158464190Y-101925380D01*
X158178476Y-101925380D01*
X158083238Y-101877761D01*
X158035619Y-101830142D01*
D12*
X146304857Y-105898904D02*
X146304857Y-105098904D01*
X146533428Y-105098904D01*
X146590571Y-105137000D01*
X146619142Y-105175095D01*
X146647714Y-105251285D01*
X146647714Y-105365571D01*
X146619142Y-105441761D01*
X146590571Y-105479857D01*
X146533428Y-105517952D01*
X146304857Y-105517952D01*
X147219142Y-105137000D02*
X147162000Y-105098904D01*
X147076285Y-105098904D01*
X146990571Y-105137000D01*
X146933428Y-105213190D01*
X146904857Y-105289380D01*
X146876285Y-105441761D01*
X146876285Y-105556047D01*
X146904857Y-105708428D01*
X146933428Y-105784619D01*
X146990571Y-105860809D01*
X147076285Y-105898904D01*
X147133428Y-105898904D01*
X147219142Y-105860809D01*
X147247714Y-105822714D01*
X147247714Y-105556047D01*
X147133428Y-105556047D01*
X147504857Y-105479857D02*
X147704857Y-105479857D01*
X147790571Y-105898904D02*
X147504857Y-105898904D01*
X147504857Y-105098904D01*
X147790571Y-105098904D01*
X148390571Y-105822714D02*
X148362000Y-105860809D01*
X148276285Y-105898904D01*
X148219142Y-105898904D01*
X148133428Y-105860809D01*
X148076285Y-105784619D01*
X148047714Y-105708428D01*
X148019142Y-105556047D01*
X148019142Y-105441761D01*
X148047714Y-105289380D01*
X148076285Y-105213190D01*
X148133428Y-105137000D01*
X148219142Y-105098904D01*
X148276285Y-105098904D01*
X148362000Y-105137000D01*
X148390571Y-105175095D01*
X149104857Y-105898904D02*
X149104857Y-105098904D01*
X149333428Y-105098904D01*
X149390571Y-105137000D01*
X149419142Y-105175095D01*
X149447714Y-105251285D01*
X149447714Y-105365571D01*
X149419142Y-105441761D01*
X149390571Y-105479857D01*
X149333428Y-105517952D01*
X149104857Y-105517952D01*
X150019142Y-105137000D02*
X149962000Y-105098904D01*
X149876285Y-105098904D01*
X149790571Y-105137000D01*
X149733428Y-105213190D01*
X149704857Y-105289380D01*
X149676285Y-105441761D01*
X149676285Y-105556047D01*
X149704857Y-105708428D01*
X149733428Y-105784619D01*
X149790571Y-105860809D01*
X149876285Y-105898904D01*
X149933428Y-105898904D01*
X150019142Y-105860809D01*
X150047714Y-105822714D01*
X150047714Y-105556047D01*
X149933428Y-105556047D01*
X150304857Y-105479857D02*
X150504857Y-105479857D01*
X150590571Y-105898904D02*
X150304857Y-105898904D01*
X150304857Y-105098904D01*
X150590571Y-105098904D01*
X150847714Y-105898904D02*
X150847714Y-105098904D01*
X150990571Y-105098904D01*
X151076285Y-105137000D01*
X151133428Y-105213190D01*
X151162000Y-105289380D01*
X151190571Y-105441761D01*
X151190571Y-105556047D01*
X151162000Y-105708428D01*
X151133428Y-105784619D01*
X151076285Y-105860809D01*
X150990571Y-105898904D01*
X150847714Y-105898904D01*
X152219142Y-105137000D02*
X152162000Y-105098904D01*
X152076285Y-105098904D01*
X151990571Y-105137000D01*
X151933428Y-105213190D01*
X151904857Y-105289380D01*
X151876285Y-105441761D01*
X151876285Y-105556047D01*
X151904857Y-105708428D01*
X151933428Y-105784619D01*
X151990571Y-105860809D01*
X152076285Y-105898904D01*
X152133428Y-105898904D01*
X152219142Y-105860809D01*
X152247714Y-105822714D01*
X152247714Y-105556047D01*
X152133428Y-105556047D01*
X152504857Y-105898904D02*
X152504857Y-105098904D01*
X152847714Y-105898904D01*
X152847714Y-105098904D01*
X153133428Y-105898904D02*
X153133428Y-105098904D01*
X153276285Y-105098904D01*
X153362000Y-105137000D01*
X153419142Y-105213190D01*
X153447714Y-105289380D01*
X153476285Y-105441761D01*
X153476285Y-105556047D01*
X153447714Y-105708428D01*
X153419142Y-105784619D01*
X153362000Y-105860809D01*
X153276285Y-105898904D01*
X153133428Y-105898904D01*
X154190571Y-105594142D02*
X154647714Y-105594142D01*
X154419142Y-105898904D02*
X154419142Y-105289380D01*
X154876285Y-105098904D02*
X155247714Y-105098904D01*
X155047714Y-105403666D01*
X155133428Y-105403666D01*
X155190571Y-105441761D01*
X155219142Y-105479857D01*
X155247714Y-105556047D01*
X155247714Y-105746523D01*
X155219142Y-105822714D01*
X155190571Y-105860809D01*
X155133428Y-105898904D01*
X154962000Y-105898904D01*
X154904857Y-105860809D01*
X154876285Y-105822714D01*
X155504857Y-105822714D02*
X155533428Y-105860809D01*
X155504857Y-105898904D01*
X155476285Y-105860809D01*
X155504857Y-105822714D01*
X155504857Y-105898904D01*
X155733428Y-105098904D02*
X156104857Y-105098904D01*
X155904857Y-105403666D01*
X155990571Y-105403666D01*
X156047714Y-105441761D01*
X156076285Y-105479857D01*
X156104857Y-105556047D01*
X156104857Y-105746523D01*
X156076285Y-105822714D01*
X156047714Y-105860809D01*
X155990571Y-105898904D01*
X155819142Y-105898904D01*
X155762000Y-105860809D01*
X155733428Y-105822714D01*
X156276285Y-105098904D02*
X156476285Y-105898904D01*
X156676285Y-105098904D01*
X157333428Y-105898904D02*
X157333428Y-105098904D01*
X157533428Y-105670333D01*
X157733428Y-105098904D01*
X157733428Y-105898904D01*
X158362000Y-105822714D02*
X158333428Y-105860809D01*
X158247714Y-105898904D01*
X158190571Y-105898904D01*
X158104857Y-105860809D01*
X158047714Y-105784619D01*
X158019142Y-105708428D01*
X157990571Y-105556047D01*
X157990571Y-105441761D01*
X158019142Y-105289380D01*
X158047714Y-105213190D01*
X158104857Y-105137000D01*
X158190571Y-105098904D01*
X158247714Y-105098904D01*
X158333428Y-105137000D01*
X158362000Y-105175095D01*
X158904857Y-105898904D02*
X158619142Y-105898904D01*
X158619142Y-105098904D01*
X159447714Y-105898904D02*
X159247714Y-105517952D01*
X159104857Y-105898904D02*
X159104857Y-105098904D01*
X159333428Y-105098904D01*
X159390571Y-105137000D01*
X159419142Y-105175095D01*
X159447714Y-105251285D01*
X159447714Y-105365571D01*
X159419142Y-105441761D01*
X159390571Y-105479857D01*
X159333428Y-105517952D01*
X159104857Y-105517952D01*
X159676285Y-105365571D02*
X160104857Y-105365571D01*
X159847714Y-105022714D02*
X159676285Y-106051285D01*
X160047714Y-105708428D02*
X159619142Y-105708428D01*
X159876285Y-106051285D02*
X160047714Y-105022714D01*
D11*
X127003333Y-74112380D02*
X126670000Y-73636190D01*
X126431904Y-74112380D02*
X126431904Y-73112380D01*
X126812857Y-73112380D01*
X126908095Y-73160000D01*
X126955714Y-73207619D01*
X127003333Y-73302857D01*
X127003333Y-73445714D01*
X126955714Y-73540952D01*
X126908095Y-73588571D01*
X126812857Y-73636190D01*
X126431904Y-73636190D01*
X127908095Y-73112380D02*
X127431904Y-73112380D01*
X127384285Y-73588571D01*
X127431904Y-73540952D01*
X127527142Y-73493333D01*
X127765238Y-73493333D01*
X127860476Y-73540952D01*
X127908095Y-73588571D01*
X127955714Y-73683809D01*
X127955714Y-73921904D01*
X127908095Y-74017142D01*
X127860476Y-74064761D01*
X127765238Y-74112380D01*
X127527142Y-74112380D01*
X127431904Y-74064761D01*
X127384285Y-74017142D01*
X144613333Y-68302142D02*
X144565714Y-68349761D01*
X144422857Y-68397380D01*
X144327619Y-68397380D01*
X144184761Y-68349761D01*
X144089523Y-68254523D01*
X144041904Y-68159285D01*
X143994285Y-67968809D01*
X143994285Y-67825952D01*
X144041904Y-67635476D01*
X144089523Y-67540238D01*
X144184761Y-67445000D01*
X144327619Y-67397380D01*
X144422857Y-67397380D01*
X144565714Y-67445000D01*
X144613333Y-67492619D01*
X144994285Y-67492619D02*
X145041904Y-67445000D01*
X145137142Y-67397380D01*
X145375238Y-67397380D01*
X145470476Y-67445000D01*
X145518095Y-67492619D01*
X145565714Y-67587857D01*
X145565714Y-67683095D01*
X145518095Y-67825952D01*
X144946666Y-68397380D01*
X145565714Y-68397380D01*
X154932142Y-100687142D02*
X154884523Y-100734761D01*
X154741666Y-100782380D01*
X154646428Y-100782380D01*
X154503571Y-100734761D01*
X154408333Y-100639523D01*
X154360714Y-100544285D01*
X154313095Y-100353809D01*
X154313095Y-100210952D01*
X154360714Y-100020476D01*
X154408333Y-99925238D01*
X154503571Y-99830000D01*
X154646428Y-99782380D01*
X154741666Y-99782380D01*
X154884523Y-99830000D01*
X154932142Y-99877619D01*
X155884523Y-100782380D02*
X155313095Y-100782380D01*
X155598809Y-100782380D02*
X155598809Y-99782380D01*
X155503571Y-99925238D01*
X155408333Y-100020476D01*
X155313095Y-100068095D01*
X156503571Y-99782380D02*
X156598809Y-99782380D01*
X156694047Y-99830000D01*
X156741666Y-99877619D01*
X156789285Y-99972857D01*
X156836904Y-100163333D01*
X156836904Y-100401428D01*
X156789285Y-100591904D01*
X156741666Y-100687142D01*
X156694047Y-100734761D01*
X156598809Y-100782380D01*
X156503571Y-100782380D01*
X156408333Y-100734761D01*
X156360714Y-100687142D01*
X156313095Y-100591904D01*
X156265476Y-100401428D01*
X156265476Y-100163333D01*
X156313095Y-99972857D01*
X156360714Y-99877619D01*
X156408333Y-99830000D01*
X156503571Y-99782380D01*
X162861666Y-93432380D02*
X162861666Y-94146666D01*
X162814047Y-94289523D01*
X162718809Y-94384761D01*
X162575952Y-94432380D01*
X162480714Y-94432380D01*
X163290238Y-93527619D02*
X163337857Y-93480000D01*
X163433095Y-93432380D01*
X163671190Y-93432380D01*
X163766428Y-93480000D01*
X163814047Y-93527619D01*
X163861666Y-93622857D01*
X163861666Y-93718095D01*
X163814047Y-93860952D01*
X163242619Y-94432380D01*
X163861666Y-94432380D01*
X144613333Y-84812142D02*
X144565714Y-84859761D01*
X144422857Y-84907380D01*
X144327619Y-84907380D01*
X144184761Y-84859761D01*
X144089523Y-84764523D01*
X144041904Y-84669285D01*
X143994285Y-84478809D01*
X143994285Y-84335952D01*
X144041904Y-84145476D01*
X144089523Y-84050238D01*
X144184761Y-83955000D01*
X144327619Y-83907380D01*
X144422857Y-83907380D01*
X144565714Y-83955000D01*
X144613333Y-84002619D01*
X144946666Y-83907380D02*
X145565714Y-83907380D01*
X145232380Y-84288333D01*
X145375238Y-84288333D01*
X145470476Y-84335952D01*
X145518095Y-84383571D01*
X145565714Y-84478809D01*
X145565714Y-84716904D01*
X145518095Y-84812142D01*
X145470476Y-84859761D01*
X145375238Y-84907380D01*
X145089523Y-84907380D01*
X144994285Y-84859761D01*
X144946666Y-84812142D01*
X107021333Y-82367380D02*
X106688000Y-81891190D01*
X106449904Y-82367380D02*
X106449904Y-81367380D01*
X106830857Y-81367380D01*
X106926095Y-81415000D01*
X106973714Y-81462619D01*
X107021333Y-81557857D01*
X107021333Y-81700714D01*
X106973714Y-81795952D01*
X106926095Y-81843571D01*
X106830857Y-81891190D01*
X106449904Y-81891190D01*
X107878476Y-81367380D02*
X107688000Y-81367380D01*
X107592761Y-81415000D01*
X107545142Y-81462619D01*
X107449904Y-81605476D01*
X107402285Y-81795952D01*
X107402285Y-82176904D01*
X107449904Y-82272142D01*
X107497523Y-82319761D01*
X107592761Y-82367380D01*
X107783238Y-82367380D01*
X107878476Y-82319761D01*
X107926095Y-82272142D01*
X107973714Y-82176904D01*
X107973714Y-81938809D01*
X107926095Y-81843571D01*
X107878476Y-81795952D01*
X107783238Y-81748333D01*
X107592761Y-81748333D01*
X107497523Y-81795952D01*
X107449904Y-81843571D01*
X107402285Y-81938809D01*
X143978333Y-95607142D02*
X143930714Y-95654761D01*
X143787857Y-95702380D01*
X143692619Y-95702380D01*
X143549761Y-95654761D01*
X143454523Y-95559523D01*
X143406904Y-95464285D01*
X143359285Y-95273809D01*
X143359285Y-95130952D01*
X143406904Y-94940476D01*
X143454523Y-94845238D01*
X143549761Y-94750000D01*
X143692619Y-94702380D01*
X143787857Y-94702380D01*
X143930714Y-94750000D01*
X143978333Y-94797619D01*
X144835476Y-95035714D02*
X144835476Y-95702380D01*
X144597380Y-94654761D02*
X144359285Y-95369047D01*
X144978333Y-95369047D01*
X150963333Y-81732380D02*
X150630000Y-81256190D01*
X150391904Y-81732380D02*
X150391904Y-80732380D01*
X150772857Y-80732380D01*
X150868095Y-80780000D01*
X150915714Y-80827619D01*
X150963333Y-80922857D01*
X150963333Y-81065714D01*
X150915714Y-81160952D01*
X150868095Y-81208571D01*
X150772857Y-81256190D01*
X150391904Y-81256190D01*
X151915714Y-81732380D02*
X151344285Y-81732380D01*
X151630000Y-81732380D02*
X151630000Y-80732380D01*
X151534761Y-80875238D01*
X151439523Y-80970476D01*
X151344285Y-81018095D01*
X158011904Y-76906380D02*
X158011904Y-75906380D01*
X158250000Y-75906380D01*
X158392857Y-75954000D01*
X158488095Y-76049238D01*
X158535714Y-76144476D01*
X158583333Y-76334952D01*
X158583333Y-76477809D01*
X158535714Y-76668285D01*
X158488095Y-76763523D01*
X158392857Y-76858761D01*
X158250000Y-76906380D01*
X158011904Y-76906380D01*
X158916666Y-75906380D02*
X159535714Y-75906380D01*
X159202380Y-76287333D01*
X159345238Y-76287333D01*
X159440476Y-76334952D01*
X159488095Y-76382571D01*
X159535714Y-76477809D01*
X159535714Y-76715904D01*
X159488095Y-76811142D01*
X159440476Y-76858761D01*
X159345238Y-76906380D01*
X159059523Y-76906380D01*
X158964285Y-76858761D01*
X158916666Y-76811142D01*
X136398095Y-66957380D02*
X136398095Y-67766904D01*
X136445714Y-67862142D01*
X136493333Y-67909761D01*
X136588571Y-67957380D01*
X136779047Y-67957380D01*
X136874285Y-67909761D01*
X136921904Y-67862142D01*
X136969523Y-67766904D01*
X136969523Y-66957380D01*
X137969523Y-67957380D02*
X137398095Y-67957380D01*
X137683809Y-67957380D02*
X137683809Y-66957380D01*
X137588571Y-67100238D01*
X137493333Y-67195476D01*
X137398095Y-67243095D01*
X136342380Y-92510714D02*
X135342380Y-92510714D01*
X135342380Y-92129761D01*
X135390000Y-92034523D01*
X135437619Y-91986904D01*
X135532857Y-91939285D01*
X135675714Y-91939285D01*
X135770952Y-91986904D01*
X135818571Y-92034523D01*
X135866190Y-92129761D01*
X135866190Y-92510714D01*
X136342380Y-91510714D02*
X135342380Y-91510714D01*
X136247142Y-90463095D02*
X136294761Y-90510714D01*
X136342380Y-90653571D01*
X136342380Y-90748809D01*
X136294761Y-90891666D01*
X136199523Y-90986904D01*
X136104285Y-91034523D01*
X135913809Y-91082142D01*
X135770952Y-91082142D01*
X135580476Y-91034523D01*
X135485238Y-90986904D01*
X135390000Y-90891666D01*
X135342380Y-90748809D01*
X135342380Y-90653571D01*
X135390000Y-90510714D01*
X135437619Y-90463095D01*
X135342380Y-90129761D02*
X135342380Y-89510714D01*
X135723333Y-89844047D01*
X135723333Y-89701190D01*
X135770952Y-89605952D01*
X135818571Y-89558333D01*
X135913809Y-89510714D01*
X136151904Y-89510714D01*
X136247142Y-89558333D01*
X136294761Y-89605952D01*
X136342380Y-89701190D01*
X136342380Y-89986904D01*
X136294761Y-90082142D01*
X136247142Y-90129761D01*
X135437619Y-89129761D02*
X135390000Y-89082142D01*
X135342380Y-88986904D01*
X135342380Y-88748809D01*
X135390000Y-88653571D01*
X135437619Y-88605952D01*
X135532857Y-88558333D01*
X135628095Y-88558333D01*
X135770952Y-88605952D01*
X136342380Y-89177380D01*
X136342380Y-88558333D01*
X136342380Y-88129761D02*
X135342380Y-88129761D01*
X136056666Y-87796428D01*
X135342380Y-87463095D01*
X136342380Y-87463095D01*
X135342380Y-87082142D02*
X136342380Y-86415476D01*
X135342380Y-86415476D02*
X136342380Y-87082142D01*
X135437619Y-86082142D02*
X135390000Y-86034523D01*
X135342380Y-85939285D01*
X135342380Y-85701190D01*
X135390000Y-85605952D01*
X135437619Y-85558333D01*
X135532857Y-85510714D01*
X135628095Y-85510714D01*
X135770952Y-85558333D01*
X136342380Y-86129761D01*
X136342380Y-85510714D01*
X135342380Y-85177380D02*
X135342380Y-84558333D01*
X135723333Y-84891666D01*
X135723333Y-84748809D01*
X135770952Y-84653571D01*
X135818571Y-84605952D01*
X135913809Y-84558333D01*
X136151904Y-84558333D01*
X136247142Y-84605952D01*
X136294761Y-84653571D01*
X136342380Y-84748809D01*
X136342380Y-85034523D01*
X136294761Y-85129761D01*
X136247142Y-85177380D01*
X135342380Y-83939285D02*
X135342380Y-83844047D01*
X135390000Y-83748809D01*
X135437619Y-83701190D01*
X135532857Y-83653571D01*
X135723333Y-83605952D01*
X135961428Y-83605952D01*
X136151904Y-83653571D01*
X136247142Y-83701190D01*
X136294761Y-83748809D01*
X136342380Y-83844047D01*
X136342380Y-83939285D01*
X136294761Y-84034523D01*
X136247142Y-84082142D01*
X136151904Y-84129761D01*
X135961428Y-84177380D01*
X135723333Y-84177380D01*
X135532857Y-84129761D01*
X135437619Y-84082142D01*
X135390000Y-84034523D01*
X135342380Y-83939285D01*
X135818571Y-82844047D02*
X135818571Y-83177380D01*
X136342380Y-83177380D02*
X135342380Y-83177380D01*
X135342380Y-82701190D01*
X135342380Y-82129761D02*
X135342380Y-82034523D01*
X135390000Y-81939285D01*
X135437619Y-81891666D01*
X135532857Y-81844047D01*
X135723333Y-81796428D01*
X135961428Y-81796428D01*
X136151904Y-81844047D01*
X136247142Y-81891666D01*
X136294761Y-81939285D01*
X136342380Y-82034523D01*
X136342380Y-82129761D01*
X136294761Y-82225000D01*
X136247142Y-82272619D01*
X136151904Y-82320238D01*
X135961428Y-82367857D01*
X135723333Y-82367857D01*
X135532857Y-82320238D01*
X135437619Y-82272619D01*
X135390000Y-82225000D01*
X135342380Y-82129761D01*
X135342380Y-80939285D02*
X135342380Y-81129761D01*
X135390000Y-81225000D01*
X135437619Y-81272619D01*
X135580476Y-81367857D01*
X135770952Y-81415476D01*
X136151904Y-81415476D01*
X136247142Y-81367857D01*
X136294761Y-81320238D01*
X136342380Y-81225000D01*
X136342380Y-81034523D01*
X136294761Y-80939285D01*
X136247142Y-80891666D01*
X136151904Y-80844047D01*
X135913809Y-80844047D01*
X135818571Y-80891666D01*
X135770952Y-80939285D01*
X135723333Y-81034523D01*
X135723333Y-81225000D01*
X135770952Y-81320238D01*
X135818571Y-81367857D01*
X135913809Y-81415476D01*
X135675714Y-79986904D02*
X136342380Y-79986904D01*
X135294761Y-80225000D02*
X136009047Y-80463095D01*
X136009047Y-79844047D01*
X135818571Y-79129761D02*
X135866190Y-78986904D01*
X135913809Y-78939285D01*
X136009047Y-78891666D01*
X136151904Y-78891666D01*
X136247142Y-78939285D01*
X136294761Y-78986904D01*
X136342380Y-79082142D01*
X136342380Y-79463095D01*
X135342380Y-79463095D01*
X135342380Y-79129761D01*
X135390000Y-79034523D01*
X135437619Y-78986904D01*
X135532857Y-78939285D01*
X135628095Y-78939285D01*
X135723333Y-78986904D01*
X135770952Y-79034523D01*
X135818571Y-79129761D01*
X135818571Y-79463095D01*
X106513333Y-96877142D02*
X106465714Y-96924761D01*
X106322857Y-96972380D01*
X106227619Y-96972380D01*
X106084761Y-96924761D01*
X105989523Y-96829523D01*
X105941904Y-96734285D01*
X105894285Y-96543809D01*
X105894285Y-96400952D01*
X105941904Y-96210476D01*
X105989523Y-96115238D01*
X106084761Y-96020000D01*
X106227619Y-95972380D01*
X106322857Y-95972380D01*
X106465714Y-96020000D01*
X106513333Y-96067619D01*
X107418095Y-95972380D02*
X106941904Y-95972380D01*
X106894285Y-96448571D01*
X106941904Y-96400952D01*
X107037142Y-96353333D01*
X107275238Y-96353333D01*
X107370476Y-96400952D01*
X107418095Y-96448571D01*
X107465714Y-96543809D01*
X107465714Y-96781904D01*
X107418095Y-96877142D01*
X107370476Y-96924761D01*
X107275238Y-96972380D01*
X107037142Y-96972380D01*
X106941904Y-96924761D01*
X106894285Y-96877142D01*
X107021333Y-74874380D02*
X106688000Y-74398190D01*
X106449904Y-74874380D02*
X106449904Y-73874380D01*
X106830857Y-73874380D01*
X106926095Y-73922000D01*
X106973714Y-73969619D01*
X107021333Y-74064857D01*
X107021333Y-74207714D01*
X106973714Y-74302952D01*
X106926095Y-74350571D01*
X106830857Y-74398190D01*
X106449904Y-74398190D01*
X107592761Y-74302952D02*
X107497523Y-74255333D01*
X107449904Y-74207714D01*
X107402285Y-74112476D01*
X107402285Y-74064857D01*
X107449904Y-73969619D01*
X107497523Y-73922000D01*
X107592761Y-73874380D01*
X107783238Y-73874380D01*
X107878476Y-73922000D01*
X107926095Y-73969619D01*
X107973714Y-74064857D01*
X107973714Y-74112476D01*
X107926095Y-74207714D01*
X107878476Y-74255333D01*
X107783238Y-74302952D01*
X107592761Y-74302952D01*
X107497523Y-74350571D01*
X107449904Y-74398190D01*
X107402285Y-74493428D01*
X107402285Y-74683904D01*
X107449904Y-74779142D01*
X107497523Y-74826761D01*
X107592761Y-74874380D01*
X107783238Y-74874380D01*
X107878476Y-74826761D01*
X107926095Y-74779142D01*
X107973714Y-74683904D01*
X107973714Y-74493428D01*
X107926095Y-74398190D01*
X107878476Y-74350571D01*
X107783238Y-74302952D01*
X150963333Y-89352380D02*
X150630000Y-88876190D01*
X150391904Y-89352380D02*
X150391904Y-88352380D01*
X150772857Y-88352380D01*
X150868095Y-88400000D01*
X150915714Y-88447619D01*
X150963333Y-88542857D01*
X150963333Y-88685714D01*
X150915714Y-88780952D01*
X150868095Y-88828571D01*
X150772857Y-88876190D01*
X150391904Y-88876190D01*
X151296666Y-88352380D02*
X151915714Y-88352380D01*
X151582380Y-88733333D01*
X151725238Y-88733333D01*
X151820476Y-88780952D01*
X151868095Y-88828571D01*
X151915714Y-88923809D01*
X151915714Y-89161904D01*
X151868095Y-89257142D01*
X151820476Y-89304761D01*
X151725238Y-89352380D01*
X151439523Y-89352380D01*
X151344285Y-89304761D01*
X151296666Y-89257142D01*
X125087142Y-82907142D02*
X125039523Y-82954761D01*
X124896666Y-83002380D01*
X124801428Y-83002380D01*
X124658571Y-82954761D01*
X124563333Y-82859523D01*
X124515714Y-82764285D01*
X124468095Y-82573809D01*
X124468095Y-82430952D01*
X124515714Y-82240476D01*
X124563333Y-82145238D01*
X124658571Y-82050000D01*
X124801428Y-82002380D01*
X124896666Y-82002380D01*
X125039523Y-82050000D01*
X125087142Y-82097619D01*
X126039523Y-83002380D02*
X125468095Y-83002380D01*
X125753809Y-83002380D02*
X125753809Y-82002380D01*
X125658571Y-82145238D01*
X125563333Y-82240476D01*
X125468095Y-82288095D01*
X126991904Y-83002380D02*
X126420476Y-83002380D01*
X126706190Y-83002380D02*
X126706190Y-82002380D01*
X126610952Y-82145238D01*
X126515714Y-82240476D01*
X126420476Y-82288095D01*
X123658333Y-73382142D02*
X123610714Y-73429761D01*
X123467857Y-73477380D01*
X123372619Y-73477380D01*
X123229761Y-73429761D01*
X123134523Y-73334523D01*
X123086904Y-73239285D01*
X123039285Y-73048809D01*
X123039285Y-72905952D01*
X123086904Y-72715476D01*
X123134523Y-72620238D01*
X123229761Y-72525000D01*
X123372619Y-72477380D01*
X123467857Y-72477380D01*
X123610714Y-72525000D01*
X123658333Y-72572619D01*
X124134523Y-73477380D02*
X124325000Y-73477380D01*
X124420238Y-73429761D01*
X124467857Y-73382142D01*
X124563095Y-73239285D01*
X124610714Y-73048809D01*
X124610714Y-72667857D01*
X124563095Y-72572619D01*
X124515476Y-72525000D01*
X124420238Y-72477380D01*
X124229761Y-72477380D01*
X124134523Y-72525000D01*
X124086904Y-72572619D01*
X124039285Y-72667857D01*
X124039285Y-72905952D01*
X124086904Y-73001190D01*
X124134523Y-73048809D01*
X124229761Y-73096428D01*
X124420238Y-73096428D01*
X124515476Y-73048809D01*
X124563095Y-73001190D01*
X124610714Y-72905952D01*
X107021333Y-78684380D02*
X106688000Y-78208190D01*
X106449904Y-78684380D02*
X106449904Y-77684380D01*
X106830857Y-77684380D01*
X106926095Y-77732000D01*
X106973714Y-77779619D01*
X107021333Y-77874857D01*
X107021333Y-78017714D01*
X106973714Y-78112952D01*
X106926095Y-78160571D01*
X106830857Y-78208190D01*
X106449904Y-78208190D01*
X107497523Y-78684380D02*
X107688000Y-78684380D01*
X107783238Y-78636761D01*
X107830857Y-78589142D01*
X107926095Y-78446285D01*
X107973714Y-78255809D01*
X107973714Y-77874857D01*
X107926095Y-77779619D01*
X107878476Y-77732000D01*
X107783238Y-77684380D01*
X107592761Y-77684380D01*
X107497523Y-77732000D01*
X107449904Y-77779619D01*
X107402285Y-77874857D01*
X107402285Y-78112952D01*
X107449904Y-78208190D01*
X107497523Y-78255809D01*
X107592761Y-78303428D01*
X107783238Y-78303428D01*
X107878476Y-78255809D01*
X107926095Y-78208190D01*
X107973714Y-78112952D01*
X128206666Y-82469761D02*
X128349523Y-82517380D01*
X128587619Y-82517380D01*
X128682857Y-82469761D01*
X128730476Y-82422142D01*
X128778095Y-82326904D01*
X128778095Y-82231666D01*
X128730476Y-82136428D01*
X128682857Y-82088809D01*
X128587619Y-82041190D01*
X128397142Y-81993571D01*
X128301904Y-81945952D01*
X128254285Y-81898333D01*
X128206666Y-81803095D01*
X128206666Y-81707857D01*
X128254285Y-81612619D01*
X128301904Y-81565000D01*
X128397142Y-81517380D01*
X128635238Y-81517380D01*
X128778095Y-81565000D01*
X129111428Y-81517380D02*
X129349523Y-82517380D01*
X129540000Y-81803095D01*
X129730476Y-82517380D01*
X129968571Y-81517380D01*
X130873333Y-82517380D02*
X130301904Y-82517380D01*
X130587619Y-82517380D02*
X130587619Y-81517380D01*
X130492380Y-81660238D01*
X130397142Y-81755476D01*
X130301904Y-81803095D01*
X152931904Y-78176380D02*
X152931904Y-77176380D01*
X153170000Y-77176380D01*
X153312857Y-77224000D01*
X153408095Y-77319238D01*
X153455714Y-77414476D01*
X153503333Y-77604952D01*
X153503333Y-77747809D01*
X153455714Y-77938285D01*
X153408095Y-78033523D01*
X153312857Y-78128761D01*
X153170000Y-78176380D01*
X152931904Y-78176380D01*
X153884285Y-77271619D02*
X153931904Y-77224000D01*
X154027142Y-77176380D01*
X154265238Y-77176380D01*
X154360476Y-77224000D01*
X154408095Y-77271619D01*
X154455714Y-77366857D01*
X154455714Y-77462095D01*
X154408095Y-77604952D01*
X153836666Y-78176380D01*
X154455714Y-78176380D01*
X150963333Y-85542380D02*
X150630000Y-85066190D01*
X150391904Y-85542380D02*
X150391904Y-84542380D01*
X150772857Y-84542380D01*
X150868095Y-84590000D01*
X150915714Y-84637619D01*
X150963333Y-84732857D01*
X150963333Y-84875714D01*
X150915714Y-84970952D01*
X150868095Y-85018571D01*
X150772857Y-85066190D01*
X150391904Y-85066190D01*
X151344285Y-84637619D02*
X151391904Y-84590000D01*
X151487142Y-84542380D01*
X151725238Y-84542380D01*
X151820476Y-84590000D01*
X151868095Y-84637619D01*
X151915714Y-84732857D01*
X151915714Y-84828095D01*
X151868095Y-84970952D01*
X151296666Y-85542380D01*
X151915714Y-85542380D01*
X122547142Y-94337142D02*
X122499523Y-94384761D01*
X122356666Y-94432380D01*
X122261428Y-94432380D01*
X122118571Y-94384761D01*
X122023333Y-94289523D01*
X121975714Y-94194285D01*
X121928095Y-94003809D01*
X121928095Y-93860952D01*
X121975714Y-93670476D01*
X122023333Y-93575238D01*
X122118571Y-93480000D01*
X122261428Y-93432380D01*
X122356666Y-93432380D01*
X122499523Y-93480000D01*
X122547142Y-93527619D01*
X123499523Y-94432380D02*
X122928095Y-94432380D01*
X123213809Y-94432380D02*
X123213809Y-93432380D01*
X123118571Y-93575238D01*
X123023333Y-93670476D01*
X122928095Y-93718095D01*
X123880476Y-93527619D02*
X123928095Y-93480000D01*
X124023333Y-93432380D01*
X124261428Y-93432380D01*
X124356666Y-93480000D01*
X124404285Y-93527619D01*
X124451904Y-93622857D01*
X124451904Y-93718095D01*
X124404285Y-93860952D01*
X123832857Y-94432380D01*
X124451904Y-94432380D01*
X109720142Y-93194142D02*
X109672523Y-93241761D01*
X109529666Y-93289380D01*
X109434428Y-93289380D01*
X109291571Y-93241761D01*
X109196333Y-93146523D01*
X109148714Y-93051285D01*
X109101095Y-92860809D01*
X109101095Y-92717952D01*
X109148714Y-92527476D01*
X109196333Y-92432238D01*
X109291571Y-92337000D01*
X109434428Y-92289380D01*
X109529666Y-92289380D01*
X109672523Y-92337000D01*
X109720142Y-92384619D01*
X110672523Y-93289380D02*
X110101095Y-93289380D01*
X110386809Y-93289380D02*
X110386809Y-92289380D01*
X110291571Y-92432238D01*
X110196333Y-92527476D01*
X110101095Y-92575095D01*
X111005857Y-92289380D02*
X111624904Y-92289380D01*
X111291571Y-92670333D01*
X111434428Y-92670333D01*
X111529666Y-92717952D01*
X111577285Y-92765571D01*
X111624904Y-92860809D01*
X111624904Y-93098904D01*
X111577285Y-93194142D01*
X111529666Y-93241761D01*
X111434428Y-93289380D01*
X111148714Y-93289380D01*
X111053476Y-93241761D01*
X111005857Y-93194142D01*
X112742380Y-85423333D02*
X113456666Y-85423333D01*
X113599523Y-85470952D01*
X113694761Y-85566190D01*
X113742380Y-85709047D01*
X113742380Y-85804285D01*
X113742380Y-84423333D02*
X113742380Y-84994761D01*
X113742380Y-84709047D02*
X112742380Y-84709047D01*
X112885238Y-84804285D01*
X112980476Y-84899523D01*
X113028095Y-84994761D01*
D12*
X156210000Y-67885000D02*
X148530000Y-67885000D01*
X148530000Y-67885000D02*
X148530000Y-70545000D01*
X157480000Y-67885000D02*
X158810000Y-67885000D01*
X156210000Y-70545000D02*
X148530000Y-70545000D01*
X158810000Y-67885000D02*
X158810000Y-69215000D01*
X156210000Y-67885000D02*
X156210000Y-70545000D01*
X123230000Y-105240000D02*
X112990000Y-105240000D01*
X123230000Y-105240000D02*
X123230000Y-100499000D01*
X123230000Y-103700000D02*
X112990000Y-103700000D01*
X123230000Y-100499000D02*
X112990000Y-100499000D01*
X112990000Y-105240000D02*
X112990000Y-100499000D01*
X117845000Y-98910000D02*
X117845000Y-98845000D01*
X114605000Y-96735000D02*
X114605000Y-96670000D01*
X117845000Y-96670000D02*
X114605000Y-96670000D01*
X117845000Y-96735000D02*
X117845000Y-96670000D01*
X114605000Y-98910000D02*
X114605000Y-98845000D01*
X117845000Y-98910000D02*
X114605000Y-98910000D01*
X126555000Y-103600888D02*
X125371000Y-103600888D01*
X129320000Y-99725113D02*
X128820000Y-99725113D01*
X130131000Y-102759888D02*
X128635000Y-102759888D01*
X129690000Y-103800888D02*
X128635000Y-103800888D01*
X128693000Y-104640888D02*
X126497000Y-104640888D01*
X126555000Y-103480888D02*
X125305000Y-103480888D01*
X126555000Y-104040888D02*
X125694000Y-104040888D01*
X126555000Y-104440888D02*
X126152000Y-104440888D01*
X129380000Y-104160888D02*
X128635000Y-104160888D01*
X129977000Y-103280888D02*
X128635000Y-103280888D01*
X130160000Y-102559888D02*
X128635000Y-102559888D01*
X126555000Y-104280888D02*
X125942000Y-104280888D01*
X128773000Y-104600888D02*
X126417000Y-104600888D01*
X130138000Y-102719888D02*
X128635000Y-102719888D01*
X130050000Y-103080888D02*
X128635000Y-103080888D01*
X129863000Y-103520888D02*
X128635000Y-103520888D01*
X126555000Y-103960888D02*
X125624000Y-103960888D01*
X126555000Y-104320888D02*
X125990000Y-104320888D01*
X129338000Y-104200888D02*
X128635000Y-104200888D01*
X126555000Y-104160888D02*
X125810000Y-104160888D01*
X126555000Y-102799888D02*
X125067000Y-102799888D01*
X129149000Y-104360888D02*
X128635000Y-104360888D01*
X129496000Y-104040888D02*
X128635000Y-104040888D01*
X126555000Y-102879888D02*
X125084000Y-102879888D01*
X126555000Y-104080888D02*
X125731000Y-104080888D01*
X129717000Y-103760888D02*
X128635000Y-103760888D01*
X126555000Y-104400888D02*
X126095000Y-104400888D01*
X126555000Y-103400888D02*
X125266000Y-103400888D01*
X129744000Y-103720888D02*
X128635000Y-103720888D01*
X126555000Y-104480888D02*
X126212000Y-104480888D01*
X127879000Y-104880888D02*
X127311000Y-104880888D01*
X126555000Y-104200888D02*
X125852000Y-104200888D01*
X126555000Y-104360888D02*
X126041000Y-104360888D01*
X126555000Y-103360888D02*
X125247000Y-103360888D01*
X129599000Y-103920888D02*
X128635000Y-103920888D01*
X130168000Y-102479888D02*
X125022000Y-102479888D01*
X129905000Y-103440888D02*
X128635000Y-103440888D01*
X128510000Y-104720888D02*
X126680000Y-104720888D01*
X126555000Y-103800888D02*
X125500000Y-103800888D01*
X130115000Y-102839888D02*
X128635000Y-102839888D01*
X126555000Y-102679888D02*
X125045000Y-102679888D01*
X126555000Y-104000888D02*
X125658000Y-104000888D01*
X129294000Y-104240888D02*
X128635000Y-104240888D01*
X126555000Y-103320888D02*
X125230000Y-103320888D01*
X129421000Y-104120888D02*
X128635000Y-104120888D01*
X130145000Y-102679888D02*
X128635000Y-102679888D01*
X126555000Y-103000888D02*
X125115000Y-103000888D01*
X126555000Y-103040888D02*
X125127000Y-103040888D01*
X129095000Y-104400888D02*
X128635000Y-104400888D01*
X128978000Y-104480888D02*
X128635000Y-104480888D01*
X130174000Y-102359888D02*
X125016000Y-102359888D01*
X126555000Y-102959888D02*
X125104000Y-102959888D01*
X128914000Y-104520888D02*
X128635000Y-104520888D01*
X129924000Y-103400888D02*
X128635000Y-103400888D01*
X128846000Y-104560888D02*
X128635000Y-104560888D01*
X130023000Y-103160888D02*
X128635000Y-103160888D01*
X126555000Y-102919888D02*
X125094000Y-102919888D01*
X128272000Y-104800888D02*
X126918000Y-104800888D01*
X126555000Y-103200888D02*
X125181000Y-103200888D01*
X129993000Y-103240888D02*
X128635000Y-103240888D01*
X126555000Y-103920888D02*
X125591000Y-103920888D01*
X129459000Y-104080888D02*
X128635000Y-104080888D01*
X126555000Y-103760888D02*
X125473000Y-103760888D01*
X126555000Y-103560888D02*
X125348000Y-103560888D01*
X126555000Y-103880888D02*
X125560000Y-103880888D01*
X130106000Y-102879888D02*
X128635000Y-102879888D01*
X126555000Y-102839888D02*
X125075000Y-102839888D01*
X130123000Y-102799888D02*
X128635000Y-102799888D01*
X128113000Y-104840888D02*
X127077000Y-104840888D01*
X128400000Y-104760888D02*
X126790000Y-104760888D01*
X129038000Y-104440888D02*
X128635000Y-104440888D01*
X129770000Y-103680888D02*
X128635000Y-103680888D01*
X126555000Y-103520888D02*
X125327000Y-103520888D01*
X130175000Y-102279888D02*
X125015000Y-102279888D01*
X126555000Y-104240888D02*
X125896000Y-104240888D01*
X126555000Y-104120888D02*
X125769000Y-104120888D01*
X129630000Y-103880888D02*
X128635000Y-103880888D01*
X126555000Y-102599888D02*
X125034000Y-102599888D01*
X126555000Y-102519888D02*
X125026000Y-102519888D01*
X129819000Y-103600888D02*
X128635000Y-103600888D01*
X130086000Y-102959888D02*
X128635000Y-102959888D01*
X126555000Y-103640888D02*
X125395000Y-103640888D01*
X130171000Y-102439888D02*
X125019000Y-102439888D01*
X129532000Y-104000888D02*
X128635000Y-104000888D01*
X129200000Y-104320888D02*
X128635000Y-104320888D01*
X126555000Y-103720888D02*
X125446000Y-103720888D01*
X126555000Y-103120888D02*
X125153000Y-103120888D01*
X126555000Y-102559888D02*
X125030000Y-102559888D01*
X130037000Y-103120888D02*
X128635000Y-103120888D01*
X129885000Y-103480888D02*
X128635000Y-103480888D01*
X126555000Y-104520888D02*
X126276000Y-104520888D01*
X126555000Y-103080888D02*
X125140000Y-103080888D01*
X129566000Y-103960888D02*
X128635000Y-103960888D01*
X129660000Y-103840888D02*
X128635000Y-103840888D01*
X129943000Y-103360888D02*
X128635000Y-103360888D01*
X130175000Y-102319888D02*
X125015000Y-102319888D01*
X130009000Y-103200888D02*
X128635000Y-103200888D01*
X130096000Y-102919888D02*
X128635000Y-102919888D01*
X129960000Y-103320888D02*
X128635000Y-103320888D01*
X130151000Y-102639888D02*
X128635000Y-102639888D01*
X126555000Y-102639888D02*
X125039000Y-102639888D01*
X130173000Y-102399888D02*
X125017000Y-102399888D01*
X126555000Y-103160888D02*
X125167000Y-103160888D01*
X126555000Y-102719888D02*
X125052000Y-102719888D01*
X130063000Y-103040888D02*
X128635000Y-103040888D01*
X128606000Y-104680888D02*
X126584000Y-104680888D01*
X126555000Y-103840888D02*
X125530000Y-103840888D01*
X130075000Y-103000888D02*
X128635000Y-103000888D01*
X126555000Y-102759888D02*
X125059000Y-102759888D01*
X129070000Y-99475113D02*
X129070000Y-99975113D01*
X126555000Y-103280888D02*
X125213000Y-103280888D01*
X126555000Y-103680888D02*
X125420000Y-103680888D01*
X129842000Y-103560888D02*
X128635000Y-103560888D01*
X126555000Y-103440888D02*
X125285000Y-103440888D01*
X129248000Y-104280888D02*
X128635000Y-104280888D01*
X126555000Y-103240888D02*
X125197000Y-103240888D01*
X126555000Y-104560888D02*
X126344000Y-104560888D01*
X130156000Y-102599888D02*
X128635000Y-102599888D01*
X130164000Y-102519888D02*
X128635000Y-102519888D01*
X129795000Y-103640888D02*
X128635000Y-103640888D01*
X130215000Y-102279888D02*
G75*
G03*
X130215000Y-102279888I-2620000J0D01*
G01*
X149900000Y-71955000D02*
X149670000Y-71955000D01*
X149900000Y-76755000D02*
X147280000Y-76755000D01*
X147280000Y-71835000D02*
X147280000Y-76755000D01*
X149900000Y-71835000D02*
X149900000Y-76755000D01*
X149900000Y-71835000D02*
X147280000Y-71835000D01*
X147510000Y-72075000D02*
X147280000Y-72075000D01*
X149900000Y-72075000D02*
X149670000Y-72075000D01*
X147510000Y-71955000D02*
X147280000Y-71955000D01*
X123520000Y-96670000D02*
X120280000Y-96670000D01*
X120280000Y-96735000D02*
X120280000Y-96670000D01*
X120280000Y-98910000D02*
X120280000Y-98845000D01*
X123520000Y-98910000D02*
X120280000Y-98910000D01*
X123520000Y-96735000D02*
X123520000Y-96670000D01*
X123520000Y-98910000D02*
X123520000Y-98845000D01*
X121512000Y-69440000D02*
X121582000Y-69440000D01*
X121512000Y-69440000D02*
G75*
G03*
X121512000Y-69440000I-1370000J0D01*
G01*
X115670000Y-69469000D02*
X115740000Y-69469000D01*
X115670000Y-69469000D02*
G75*
G03*
X115670000Y-69469000I-1370000J0D01*
G01*
X130795000Y-92035000D02*
X130795000Y-85785000D01*
X125745000Y-92035000D02*
X125745000Y-85785000D01*
X125745000Y-92035000D02*
G75*
G03*
X130795000Y-92035000I2525000J0D01*
G01*
X130795000Y-85785000D02*
G75*
G03*
X125745000Y-85785000I-2525000J0D01*
G01*
X129870000Y-96100000D02*
X129870000Y-96035000D01*
X129870000Y-98275000D02*
X126630000Y-98275000D01*
X126630000Y-96100000D02*
X126630000Y-96035000D01*
X129870000Y-98275000D02*
X129870000Y-98210000D01*
X129870000Y-96035000D02*
X126630000Y-96035000D01*
X126630000Y-98275000D02*
X126630000Y-98210000D01*
X156845000Y-102175000D02*
X144085000Y-102175000D01*
X156845000Y-102175000D02*
X156845000Y-104835000D01*
X144085000Y-102175000D02*
X144085000Y-104835000D01*
X156845000Y-104835000D02*
X144085000Y-104835000D01*
X158115000Y-102175000D02*
X159445000Y-102175000D01*
X159445000Y-102175000D02*
X159445000Y-103505000D01*
X129540000Y-70385000D02*
X129540000Y-70315000D01*
X130910000Y-71755000D02*
G75*
G03*
X130910000Y-71755000I-1370000J0D01*
G01*
X145900000Y-69480000D02*
X145835000Y-69480000D01*
X143660000Y-69480000D02*
X143660000Y-72720000D01*
X145900000Y-69480000D02*
X145900000Y-72720000D01*
X145900000Y-72720000D02*
X145835000Y-72720000D01*
X143725000Y-72720000D02*
X143660000Y-72720000D01*
X143725000Y-69480000D02*
X143660000Y-69480000D01*
X151057380Y-100322000D02*
X151057380Y-98195000D01*
X150536380Y-96115000D02*
X150536380Y-94137000D01*
X151337380Y-100366000D02*
X151337380Y-98195000D01*
X149376380Y-99420000D02*
X149376380Y-94890000D01*
X150416380Y-96115000D02*
X150416380Y-94185000D01*
X149736380Y-96115000D02*
X149736380Y-94577000D01*
X149096380Y-99099000D02*
X149096380Y-95211000D01*
X151577380Y-100383000D02*
X151577380Y-93927000D01*
X149616380Y-99639000D02*
X149616380Y-98195000D01*
X150216380Y-100031000D02*
X150216380Y-98195000D01*
X149576380Y-96115000D02*
X149576380Y-94705000D01*
X150376380Y-100107000D02*
X150376380Y-98195000D01*
X150616380Y-96115000D02*
X150616380Y-94108000D01*
X151497380Y-100379000D02*
X151497380Y-93931000D01*
X150536380Y-100173000D02*
X150536380Y-98195000D01*
X150016380Y-96115000D02*
X150016380Y-94389000D01*
X150176380Y-100011000D02*
X150176380Y-98195000D01*
X148576380Y-98095000D02*
X148576380Y-96215000D01*
X148696380Y-98417000D02*
X148696380Y-95893000D01*
X150656380Y-100216000D02*
X150656380Y-98195000D01*
X150656380Y-96115000D02*
X150656380Y-94094000D01*
X150256380Y-96115000D02*
X150256380Y-94259000D01*
X150256380Y-100051000D02*
X150256380Y-98195000D01*
X150936380Y-96115000D02*
X150936380Y-94014000D01*
X150496380Y-100157000D02*
X150496380Y-98195000D01*
X150416380Y-100125000D02*
X150416380Y-98195000D01*
X150936380Y-100296000D02*
X150936380Y-98195000D01*
X150216380Y-96115000D02*
X150216380Y-94279000D01*
X148616380Y-98214000D02*
X148616380Y-96096000D01*
X150856380Y-100276000D02*
X150856380Y-98195000D01*
X150976380Y-96115000D02*
X150976380Y-94005000D01*
X149296380Y-99337000D02*
X149296380Y-94973000D01*
X150816380Y-100265000D02*
X150816380Y-98195000D01*
X151297380Y-100361000D02*
X151297380Y-98195000D01*
X149816380Y-96115000D02*
X149816380Y-94519000D01*
X149496380Y-99535000D02*
X149496380Y-98195000D01*
X151377380Y-96115000D02*
X151377380Y-93940000D01*
X150176380Y-96115000D02*
X150176380Y-94299000D01*
X151257380Y-100356000D02*
X151257380Y-98195000D01*
X151097380Y-96115000D02*
X151097380Y-93980000D01*
X149976380Y-99897000D02*
X149976380Y-98195000D01*
X148896380Y-98805000D02*
X148896380Y-95505000D01*
X148856380Y-98736000D02*
X148856380Y-95574000D01*
X151617380Y-100385000D02*
X151617380Y-93925000D01*
X151137380Y-96115000D02*
X151137380Y-93973000D01*
X149576380Y-99605000D02*
X149576380Y-98195000D01*
X151017380Y-96115000D02*
X151017380Y-93996000D01*
X150456380Y-96115000D02*
X150456380Y-94169000D01*
X150496380Y-96115000D02*
X150496380Y-94153000D01*
X151217380Y-96115000D02*
X151217380Y-93960000D01*
X149136380Y-99150000D02*
X149136380Y-95160000D01*
X150696380Y-100229000D02*
X150696380Y-98195000D01*
X149896380Y-99845000D02*
X149896380Y-98195000D01*
X149536380Y-99571000D02*
X149536380Y-98195000D01*
X151217380Y-100350000D02*
X151217380Y-98195000D01*
X150136380Y-99989000D02*
X150136380Y-98195000D01*
X149856380Y-99819000D02*
X149856380Y-98195000D01*
X151177380Y-100344000D02*
X151177380Y-98195000D01*
X149936380Y-99871000D02*
X149936380Y-98195000D01*
X149656380Y-99671000D02*
X149656380Y-98195000D01*
X151177380Y-96115000D02*
X151177380Y-93966000D01*
X154882621Y-99309000D02*
X154882621Y-98679000D01*
X149016380Y-98989000D02*
X149016380Y-95321000D01*
X149736380Y-99733000D02*
X149736380Y-98195000D01*
X149656380Y-96115000D02*
X149656380Y-94639000D01*
X151137380Y-100337000D02*
X151137380Y-98195000D01*
X150616380Y-100202000D02*
X150616380Y-98195000D01*
X150856380Y-96115000D02*
X150856380Y-94034000D01*
X150736380Y-96115000D02*
X150736380Y-94069000D01*
X148736380Y-98505000D02*
X148736380Y-95805000D01*
X149256380Y-99292000D02*
X149256380Y-95018000D01*
X151057380Y-96115000D02*
X151057380Y-93988000D01*
X150056380Y-99945000D02*
X150056380Y-98195000D01*
X149816380Y-99791000D02*
X149816380Y-98195000D01*
X149776380Y-99762000D02*
X149776380Y-98195000D01*
X149496380Y-96115000D02*
X149496380Y-94775000D01*
X150576380Y-96115000D02*
X150576380Y-94122000D01*
X151377380Y-100370000D02*
X151377380Y-98195000D01*
X150976380Y-100305000D02*
X150976380Y-98195000D01*
X150896380Y-96115000D02*
X150896380Y-94024000D01*
X148456380Y-97557000D02*
X148456380Y-96753000D01*
X150376380Y-96115000D02*
X150376380Y-94203000D01*
X151657380Y-100385000D02*
X151657380Y-93925000D01*
X150336380Y-100089000D02*
X150336380Y-98195000D01*
X150456380Y-100141000D02*
X150456380Y-98195000D01*
X149456380Y-99498000D02*
X149456380Y-98195000D01*
X150136380Y-96115000D02*
X150136380Y-94321000D01*
X148496380Y-97788000D02*
X148496380Y-96522000D01*
X150576380Y-100188000D02*
X150576380Y-98195000D01*
X150816380Y-96115000D02*
X150816380Y-94045000D01*
X150296380Y-96115000D02*
X150296380Y-94239000D01*
X150056380Y-96115000D02*
X150056380Y-94365000D01*
X149416380Y-99460000D02*
X149416380Y-98195000D01*
X149456380Y-96115000D02*
X149456380Y-94812000D01*
X148776380Y-98587000D02*
X148776380Y-95723000D01*
X150696380Y-96115000D02*
X150696380Y-94081000D01*
X151257380Y-96115000D02*
X151257380Y-93954000D01*
X149336380Y-99379000D02*
X149336380Y-94931000D01*
X151417380Y-100373000D02*
X151417380Y-98195000D01*
X149696380Y-96115000D02*
X149696380Y-94607000D01*
X149976380Y-96115000D02*
X149976380Y-94413000D01*
X151417380Y-96115000D02*
X151417380Y-93937000D01*
X151337380Y-96115000D02*
X151337380Y-93944000D01*
X148816380Y-98664000D02*
X148816380Y-95646000D01*
X151457380Y-96115000D02*
X151457380Y-93933000D01*
X149616380Y-96115000D02*
X149616380Y-94671000D01*
X148936380Y-98869000D02*
X148936380Y-95441000D01*
X149936380Y-96115000D02*
X149936380Y-94439000D01*
X150296380Y-100071000D02*
X150296380Y-98195000D01*
X151697380Y-100385000D02*
X151697380Y-93925000D01*
X150336380Y-96115000D02*
X150336380Y-94221000D01*
X148976380Y-98931000D02*
X148976380Y-95379000D01*
X149176380Y-99199000D02*
X149176380Y-95111000D01*
X155197621Y-98994000D02*
X154567621Y-98994000D01*
X150776380Y-96115000D02*
X150776380Y-94057000D01*
X148536380Y-97957000D02*
X148536380Y-96353000D01*
X149216380Y-99247000D02*
X149216380Y-95063000D01*
X149416380Y-96115000D02*
X149416380Y-94850000D01*
X150016380Y-99921000D02*
X150016380Y-98195000D01*
X150896380Y-100286000D02*
X150896380Y-98195000D01*
X150776380Y-100253000D02*
X150776380Y-98195000D01*
X149776380Y-96115000D02*
X149776380Y-94548000D01*
X149856380Y-96115000D02*
X149856380Y-94491000D01*
X148656380Y-98320000D02*
X148656380Y-95990000D01*
X151457380Y-100377000D02*
X151457380Y-98195000D01*
X150736380Y-100241000D02*
X150736380Y-98195000D01*
X149696380Y-99703000D02*
X149696380Y-98195000D01*
X151017380Y-100314000D02*
X151017380Y-98195000D01*
X149056380Y-99045000D02*
X149056380Y-95265000D01*
X150096380Y-96115000D02*
X150096380Y-94343000D01*
X149536380Y-96115000D02*
X149536380Y-94739000D01*
X149896380Y-96115000D02*
X149896380Y-94465000D01*
X150096380Y-99967000D02*
X150096380Y-98195000D01*
X151297380Y-96115000D02*
X151297380Y-93949000D01*
X151537380Y-100382000D02*
X151537380Y-93928000D01*
X151097380Y-100330000D02*
X151097380Y-98195000D01*
X154967380Y-97155000D02*
G75*
G03*
X154967380Y-97155000I-3270000J0D01*
G01*
X168510000Y-79050000D02*
X168510000Y-79700000D01*
X153550000Y-93020000D02*
X153550000Y-79700000D01*
X161430000Y-79700000D02*
X168510000Y-79700000D01*
X153550000Y-93020000D02*
X155930000Y-93020000D01*
X168510000Y-93020000D02*
X161430000Y-93020000D01*
X153330000Y-90760000D02*
X153330000Y-88960000D01*
X168510000Y-93020000D02*
X168510000Y-93670000D01*
X153550000Y-79700000D02*
X155930000Y-79700000D01*
X168510000Y-93670000D02*
X169030000Y-93670000D01*
X169030000Y-93670000D02*
X169030000Y-79050000D01*
X169030000Y-79050000D02*
X168510000Y-79050000D01*
X143660000Y-82920000D02*
X143660000Y-79680000D01*
X145900000Y-82920000D02*
X145900000Y-79680000D01*
X145835000Y-79680000D02*
X145900000Y-79680000D01*
X143660000Y-79680000D02*
X143725000Y-79680000D01*
X143660000Y-82920000D02*
X143725000Y-82920000D01*
X145835000Y-82920000D02*
X145900000Y-82920000D01*
X110390000Y-81915000D02*
X110320000Y-81915000D01*
X113130000Y-81915000D02*
G75*
G03*
X113130000Y-81915000I-1370000J0D01*
G01*
X146945000Y-89510000D02*
X146945000Y-91035000D01*
X147065000Y-89525000D02*
X147065000Y-91035000D01*
X147986000Y-93115000D02*
X147986000Y-94299000D01*
X147906000Y-89807000D02*
X147906000Y-91035000D01*
X147826000Y-89765000D02*
X147826000Y-91035000D01*
X147506000Y-89633000D02*
X147506000Y-91035000D01*
X147426000Y-93115000D02*
X147426000Y-94543000D01*
X148866000Y-90692000D02*
X148866000Y-91035000D01*
X146905000Y-89506000D02*
X146905000Y-91035000D01*
X147546000Y-89647000D02*
X147546000Y-91035000D01*
X148306000Y-90071000D02*
X148306000Y-91035000D01*
X147506000Y-93115000D02*
X147506000Y-94517000D01*
X147426000Y-89607000D02*
X147426000Y-91035000D01*
X148106000Y-93115000D02*
X148106000Y-94224000D01*
X147265000Y-89564000D02*
X147265000Y-91035000D01*
X149226000Y-91557000D02*
X149226000Y-92593000D01*
X147626000Y-89677000D02*
X147626000Y-91035000D01*
X148706000Y-93115000D02*
X148706000Y-93680000D01*
X148666000Y-93115000D02*
X148666000Y-93728000D01*
X148826000Y-90632000D02*
X148826000Y-91035000D01*
X147145000Y-93115000D02*
X147145000Y-94611000D01*
X147946000Y-89828000D02*
X147946000Y-91035000D01*
X147666000Y-89693000D02*
X147666000Y-91035000D01*
X147345000Y-89584000D02*
X147345000Y-91035000D01*
X148026000Y-89875000D02*
X148026000Y-91035000D01*
X143860225Y-90600000D02*
X144360225Y-90600000D01*
X148466000Y-93115000D02*
X148466000Y-93939000D01*
X148346000Y-90104000D02*
X148346000Y-91035000D01*
X147586000Y-89661000D02*
X147586000Y-91035000D01*
X148666000Y-90422000D02*
X148666000Y-91035000D01*
X148746000Y-93115000D02*
X148746000Y-93629000D01*
X148866000Y-93115000D02*
X148866000Y-93458000D01*
X148546000Y-90290000D02*
X148546000Y-91035000D01*
X148186000Y-93115000D02*
X148186000Y-94170000D01*
X147946000Y-93115000D02*
X147946000Y-94322000D01*
X146705000Y-89495000D02*
X146705000Y-94655000D01*
X148346000Y-93115000D02*
X148346000Y-94046000D01*
X147866000Y-89785000D02*
X147866000Y-91035000D01*
X147746000Y-89727000D02*
X147746000Y-91035000D01*
X147185000Y-93115000D02*
X147185000Y-94603000D01*
X147025000Y-89519000D02*
X147025000Y-91035000D01*
X148626000Y-93115000D02*
X148626000Y-93774000D01*
X147305000Y-93115000D02*
X147305000Y-94576000D01*
X148226000Y-93115000D02*
X148226000Y-94140000D01*
X146905000Y-93115000D02*
X146905000Y-94644000D01*
X147105000Y-89532000D02*
X147105000Y-91035000D01*
X146825000Y-89499000D02*
X146825000Y-94651000D01*
X146985000Y-93115000D02*
X146985000Y-94636000D01*
X148506000Y-90249000D02*
X148506000Y-91035000D01*
X147466000Y-93115000D02*
X147466000Y-94530000D01*
X146865000Y-89502000D02*
X146865000Y-94648000D01*
X148386000Y-93115000D02*
X148386000Y-94012000D01*
X147706000Y-93115000D02*
X147706000Y-94440000D01*
X148426000Y-93115000D02*
X148426000Y-93976000D01*
X148546000Y-93115000D02*
X148546000Y-93860000D01*
X147826000Y-93115000D02*
X147826000Y-94385000D01*
X148026000Y-93115000D02*
X148026000Y-94275000D01*
X146985000Y-89514000D02*
X146985000Y-91035000D01*
X148786000Y-90575000D02*
X148786000Y-91035000D01*
X148186000Y-89980000D02*
X148186000Y-91035000D01*
X148906000Y-90756000D02*
X148906000Y-91035000D01*
X147706000Y-89710000D02*
X147706000Y-91035000D01*
X147466000Y-89620000D02*
X147466000Y-91035000D01*
X148586000Y-93115000D02*
X148586000Y-93818000D01*
X147666000Y-93115000D02*
X147666000Y-94457000D01*
X148226000Y-90010000D02*
X148226000Y-91035000D01*
X147906000Y-93115000D02*
X147906000Y-94343000D01*
X148586000Y-90332000D02*
X148586000Y-91035000D01*
X147386000Y-93115000D02*
X147386000Y-94555000D01*
X148066000Y-93115000D02*
X148066000Y-94250000D01*
X144110225Y-90350000D02*
X144110225Y-90850000D01*
X149106000Y-91160000D02*
X149106000Y-92990000D01*
X147225000Y-93115000D02*
X147225000Y-94595000D01*
X148266000Y-90040000D02*
X148266000Y-91035000D01*
X148466000Y-90211000D02*
X148466000Y-91035000D01*
X147626000Y-93115000D02*
X147626000Y-94473000D01*
X147546000Y-93115000D02*
X147546000Y-94503000D01*
X148746000Y-90521000D02*
X148746000Y-91035000D01*
X149266000Y-91791000D02*
X149266000Y-92359000D01*
X147746000Y-93115000D02*
X147746000Y-94423000D01*
X147345000Y-93115000D02*
X147345000Y-94566000D01*
X149186000Y-91398000D02*
X149186000Y-92752000D01*
X147065000Y-93115000D02*
X147065000Y-94625000D01*
X148946000Y-93115000D02*
X148946000Y-93326000D01*
X147786000Y-89746000D02*
X147786000Y-91035000D01*
X148826000Y-93115000D02*
X148826000Y-93518000D01*
X147305000Y-89574000D02*
X147305000Y-91035000D01*
X148506000Y-93115000D02*
X148506000Y-93901000D01*
X146665000Y-89495000D02*
X146665000Y-94655000D01*
X148946000Y-90824000D02*
X148946000Y-91035000D01*
X149146000Y-91270000D02*
X149146000Y-92880000D01*
X147866000Y-93115000D02*
X147866000Y-94365000D01*
X147225000Y-89555000D02*
X147225000Y-91035000D01*
X147105000Y-93115000D02*
X147105000Y-94618000D01*
X147145000Y-89539000D02*
X147145000Y-91035000D01*
X148786000Y-93115000D02*
X148786000Y-93575000D01*
X149066000Y-91064000D02*
X149066000Y-93086000D01*
X148906000Y-93115000D02*
X148906000Y-93394000D01*
X147586000Y-93115000D02*
X147586000Y-94489000D01*
X148306000Y-93115000D02*
X148306000Y-94079000D01*
X146745000Y-89496000D02*
X146745000Y-94654000D01*
X148066000Y-89900000D02*
X148066000Y-91035000D01*
X146785000Y-89497000D02*
X146785000Y-94653000D01*
X147386000Y-89595000D02*
X147386000Y-91035000D01*
X147786000Y-93115000D02*
X147786000Y-94404000D01*
X147185000Y-89547000D02*
X147185000Y-91035000D01*
X148626000Y-90376000D02*
X148626000Y-91035000D01*
X147986000Y-89851000D02*
X147986000Y-91035000D01*
X147265000Y-93115000D02*
X147265000Y-94586000D01*
X148706000Y-90470000D02*
X148706000Y-91035000D01*
X147025000Y-93115000D02*
X147025000Y-94631000D01*
X148986000Y-90897000D02*
X148986000Y-93253000D01*
X149026000Y-90977000D02*
X149026000Y-93173000D01*
X146945000Y-93115000D02*
X146945000Y-94640000D01*
X148146000Y-93115000D02*
X148146000Y-94197000D01*
X148386000Y-90138000D02*
X148386000Y-91035000D01*
X148106000Y-89926000D02*
X148106000Y-91035000D01*
X148146000Y-89953000D02*
X148146000Y-91035000D01*
X148426000Y-90174000D02*
X148426000Y-91035000D01*
X148266000Y-93115000D02*
X148266000Y-94110000D01*
X149285000Y-92075000D02*
G75*
G03*
X149285000Y-92075000I-2620000J0D01*
G01*
X149960000Y-79375000D02*
X150030000Y-79375000D01*
X149960000Y-79375000D02*
G75*
G03*
X149960000Y-79375000I-1370000J0D01*
G01*
X161210000Y-75605000D02*
X156290000Y-75605000D01*
X161090000Y-75605000D02*
X161090000Y-75375000D01*
X161210000Y-75605000D02*
X161210000Y-72985000D01*
X156290000Y-75605000D02*
X156290000Y-72985000D01*
X160970000Y-75605000D02*
X160970000Y-75375000D01*
X161090000Y-73215000D02*
X161090000Y-72985000D01*
X161210000Y-72985000D02*
X156290000Y-72985000D01*
X160970000Y-73215000D02*
X160970000Y-72985000D01*
X136160000Y-68505000D02*
X134510000Y-68505000D01*
X132020000Y-68445000D02*
X132020000Y-104245000D01*
X139810000Y-68505000D02*
X138160000Y-68505000D01*
X132020000Y-104245000D02*
X142300000Y-104245000D01*
X139810000Y-104185000D02*
X139810000Y-68505000D01*
X134510000Y-68505000D02*
X134510000Y-104185000D01*
X142300000Y-104245000D02*
X142300000Y-68445000D01*
X134510000Y-104185000D02*
X139810000Y-104185000D01*
X142300000Y-68445000D02*
X132020000Y-68445000D01*
X136160000Y-68505000D02*
G75*
G03*
X138160000Y-68505000I1000000J0D01*
G01*
X109830000Y-95480000D02*
X109830000Y-94029000D01*
X109349000Y-98830000D02*
X109349000Y-97560000D01*
X109149000Y-95480000D02*
X109149000Y-94320000D01*
X108549000Y-98219000D02*
X108549000Y-97560000D01*
X108469000Y-95480000D02*
X108469000Y-94915000D01*
X109709000Y-98975000D02*
X109709000Y-97560000D01*
X108749000Y-98421000D02*
X108749000Y-97560000D01*
X108309000Y-97903000D02*
X108309000Y-97560000D01*
X109870000Y-95480000D02*
X109870000Y-94019000D01*
X108989000Y-98615000D02*
X108989000Y-97560000D01*
X109389000Y-95480000D02*
X109389000Y-94191000D01*
X109830000Y-99011000D02*
X109830000Y-97560000D01*
X108629000Y-98305000D02*
X108629000Y-97560000D01*
X109189000Y-98744000D02*
X109189000Y-97560000D01*
X108869000Y-98524000D02*
X108869000Y-97560000D01*
X109709000Y-95480000D02*
X109709000Y-94065000D01*
X108629000Y-95480000D02*
X108629000Y-94735000D01*
X109589000Y-98934000D02*
X109589000Y-97560000D01*
X108269000Y-95480000D02*
X108269000Y-95201000D01*
X110510000Y-99100000D02*
X110510000Y-93940000D01*
X110270000Y-99089000D02*
X110270000Y-97560000D01*
X108229000Y-95480000D02*
X108229000Y-95269000D01*
X109069000Y-95480000D02*
X109069000Y-94371000D01*
X107989000Y-97197000D02*
X107989000Y-95843000D01*
X108389000Y-98020000D02*
X108389000Y-97560000D01*
X108349000Y-97963000D02*
X108349000Y-97560000D01*
X108589000Y-95480000D02*
X108589000Y-94777000D01*
X108829000Y-98491000D02*
X108829000Y-97560000D01*
X109910000Y-99031000D02*
X109910000Y-97560000D01*
X109870000Y-99021000D02*
X109870000Y-97560000D01*
X108949000Y-95480000D02*
X108949000Y-94455000D01*
X108429000Y-98074000D02*
X108429000Y-97560000D01*
X108829000Y-95480000D02*
X108829000Y-94549000D01*
X110070000Y-99063000D02*
X110070000Y-97560000D01*
X107909000Y-96804000D02*
X107909000Y-96236000D01*
X108909000Y-98555000D02*
X108909000Y-97560000D01*
X110190000Y-95480000D02*
X110190000Y-93959000D01*
X108789000Y-98457000D02*
X108789000Y-97560000D01*
X109990000Y-95480000D02*
X109990000Y-93992000D01*
X110190000Y-99081000D02*
X110190000Y-97560000D01*
X108189000Y-97698000D02*
X108189000Y-95342000D01*
X109789000Y-99000000D02*
X109789000Y-97560000D01*
X108389000Y-95480000D02*
X108389000Y-95020000D01*
X110030000Y-95480000D02*
X110030000Y-93984000D01*
X113064775Y-98245000D02*
X113064775Y-97745000D01*
X108429000Y-95480000D02*
X108429000Y-94966000D01*
X109429000Y-98868000D02*
X109429000Y-97560000D01*
X108549000Y-95480000D02*
X108549000Y-94821000D01*
X108269000Y-97839000D02*
X108269000Y-97560000D01*
X109950000Y-99040000D02*
X109950000Y-97560000D01*
X109429000Y-95480000D02*
X109429000Y-94172000D01*
X109669000Y-98962000D02*
X109669000Y-97560000D01*
X108589000Y-98263000D02*
X108589000Y-97560000D01*
X109309000Y-98810000D02*
X109309000Y-97560000D01*
X109469000Y-98885000D02*
X109469000Y-97560000D01*
X110350000Y-99096000D02*
X110350000Y-93944000D01*
X110070000Y-95480000D02*
X110070000Y-93977000D01*
X109990000Y-99048000D02*
X109990000Y-97560000D01*
X110150000Y-99076000D02*
X110150000Y-97560000D01*
X109549000Y-95480000D02*
X109549000Y-94122000D01*
X109269000Y-98788000D02*
X109269000Y-97560000D01*
X109309000Y-95480000D02*
X109309000Y-94230000D01*
X109029000Y-98642000D02*
X109029000Y-97560000D01*
X110110000Y-95480000D02*
X110110000Y-93970000D01*
X110310000Y-99093000D02*
X110310000Y-93947000D01*
X109109000Y-98695000D02*
X109109000Y-97560000D01*
X109389000Y-98849000D02*
X109389000Y-97560000D01*
X109629000Y-95480000D02*
X109629000Y-94092000D01*
X108229000Y-97771000D02*
X108229000Y-97560000D01*
X109509000Y-98902000D02*
X109509000Y-97560000D01*
X108149000Y-97618000D02*
X108149000Y-95422000D01*
X108309000Y-95480000D02*
X108309000Y-95137000D01*
X110150000Y-95480000D02*
X110150000Y-93964000D01*
X109069000Y-98669000D02*
X109069000Y-97560000D01*
X108069000Y-97435000D02*
X108069000Y-95605000D01*
X110030000Y-99056000D02*
X110030000Y-97560000D01*
X109229000Y-95480000D02*
X109229000Y-94273000D01*
X109910000Y-95480000D02*
X109910000Y-94009000D01*
X109349000Y-95480000D02*
X109349000Y-94210000D01*
X108909000Y-95480000D02*
X108909000Y-94485000D01*
X109269000Y-95480000D02*
X109269000Y-94252000D01*
X108669000Y-98346000D02*
X108669000Y-97560000D01*
X109749000Y-98988000D02*
X109749000Y-97560000D01*
X108989000Y-95480000D02*
X108989000Y-94425000D01*
X109749000Y-95480000D02*
X109749000Y-94052000D01*
X110470000Y-99100000D02*
X110470000Y-93940000D01*
X108669000Y-95480000D02*
X108669000Y-94694000D01*
X110230000Y-95480000D02*
X110230000Y-93955000D01*
X110390000Y-99098000D02*
X110390000Y-93942000D01*
X110430000Y-99099000D02*
X110430000Y-93941000D01*
X109629000Y-98948000D02*
X109629000Y-97560000D01*
X109549000Y-98918000D02*
X109549000Y-97560000D01*
X108949000Y-98585000D02*
X108949000Y-97560000D01*
X109149000Y-98720000D02*
X109149000Y-97560000D01*
X110270000Y-95480000D02*
X110270000Y-93951000D01*
X108469000Y-98125000D02*
X108469000Y-97560000D01*
X108709000Y-95480000D02*
X108709000Y-94656000D01*
X108749000Y-95480000D02*
X108749000Y-94619000D01*
X113314775Y-97995000D02*
X112814775Y-97995000D01*
X109669000Y-95480000D02*
X109669000Y-94078000D01*
X108109000Y-97531000D02*
X108109000Y-95509000D01*
X108869000Y-95480000D02*
X108869000Y-94516000D01*
X108349000Y-95480000D02*
X108349000Y-95077000D01*
X109229000Y-98767000D02*
X109229000Y-97560000D01*
X109509000Y-95480000D02*
X109509000Y-94138000D01*
X110110000Y-99070000D02*
X110110000Y-97560000D01*
X109029000Y-95480000D02*
X109029000Y-94398000D01*
X108789000Y-95480000D02*
X108789000Y-94583000D01*
X108509000Y-95480000D02*
X108509000Y-94867000D01*
X109469000Y-95480000D02*
X109469000Y-94155000D01*
X109189000Y-95480000D02*
X109189000Y-94296000D01*
X108029000Y-97325000D02*
X108029000Y-95715000D01*
X108709000Y-98384000D02*
X108709000Y-97560000D01*
X109109000Y-95480000D02*
X109109000Y-94345000D01*
X107949000Y-97038000D02*
X107949000Y-96002000D01*
X110230000Y-99085000D02*
X110230000Y-97560000D01*
X109950000Y-95480000D02*
X109950000Y-94000000D01*
X109789000Y-95480000D02*
X109789000Y-94040000D01*
X109589000Y-95480000D02*
X109589000Y-94106000D01*
X108509000Y-98173000D02*
X108509000Y-97560000D01*
X113130000Y-96520000D02*
G75*
G03*
X113130000Y-96520000I-2620000J0D01*
G01*
X110390000Y-74295000D02*
X110320000Y-74295000D01*
X113130000Y-74295000D02*
G75*
G03*
X113130000Y-74295000I-1370000J0D01*
G01*
X149960000Y-86995000D02*
X150030000Y-86995000D01*
X149960000Y-86995000D02*
G75*
G03*
X149960000Y-86995000I-1370000J0D01*
G01*
X124310000Y-83450000D02*
X124310000Y-86690000D01*
X124310000Y-83450000D02*
X124245000Y-83450000D01*
X122135000Y-83450000D02*
X122070000Y-83450000D01*
X122070000Y-83450000D02*
X122070000Y-86690000D01*
X122135000Y-86690000D02*
X122070000Y-86690000D01*
X124310000Y-86690000D02*
X124245000Y-86690000D01*
X124675000Y-68845000D02*
X124610000Y-68845000D01*
X126850000Y-68845000D02*
X126785000Y-68845000D01*
X124675000Y-72085000D02*
X124610000Y-72085000D01*
X126850000Y-72085000D02*
X126785000Y-72085000D01*
X126850000Y-68845000D02*
X126850000Y-72085000D01*
X124610000Y-68845000D02*
X124610000Y-72085000D01*
X110390000Y-78105000D02*
X110320000Y-78105000D01*
X113130000Y-78105000D02*
G75*
G03*
X113130000Y-78105000I-1370000J0D01*
G01*
X128540000Y-74565000D02*
X124040000Y-74565000D01*
X124040000Y-81065000D02*
X128540000Y-81065000D01*
X129790000Y-78565000D02*
X129790000Y-77065000D01*
X122790000Y-77065000D02*
X122790000Y-78565000D01*
X154345000Y-76755000D02*
X151725000Y-76755000D01*
X154345000Y-72075000D02*
X154115000Y-72075000D01*
X151955000Y-71955000D02*
X151725000Y-71955000D01*
X154345000Y-71955000D02*
X154115000Y-71955000D01*
X154345000Y-71835000D02*
X154345000Y-76755000D01*
X151955000Y-72075000D02*
X151725000Y-72075000D01*
X151725000Y-71835000D02*
X151725000Y-76755000D01*
X154345000Y-71835000D02*
X151725000Y-71835000D01*
X149960000Y-83185000D02*
X150030000Y-83185000D01*
X149960000Y-83185000D02*
G75*
G03*
X149960000Y-83185000I-1370000J0D01*
G01*
X124310000Y-89185000D02*
X124245000Y-89185000D01*
X124310000Y-92425000D02*
X124245000Y-92425000D01*
X122135000Y-92425000D02*
X122070000Y-92425000D01*
X124310000Y-89185000D02*
X124310000Y-92425000D01*
X122070000Y-89185000D02*
X122070000Y-92425000D01*
X122135000Y-89185000D02*
X122070000Y-89185000D01*
X112130000Y-91860000D02*
X112130000Y-91925000D01*
X112130000Y-89685000D02*
X112130000Y-89750000D01*
X108890000Y-91925000D02*
X112130000Y-91925000D01*
X108890000Y-89685000D02*
X112130000Y-89685000D01*
X108890000Y-89685000D02*
X108890000Y-89750000D01*
X108890000Y-91860000D02*
X108890000Y-91925000D01*
X114390000Y-72660000D02*
X114390000Y-74460000D01*
X114390000Y-74460000D02*
X115140000Y-74460000D01*
X115140000Y-74460000D02*
X115140000Y-72660000D01*
X114380000Y-95270000D02*
X120350000Y-95270000D01*
X114390000Y-93460000D02*
X114390000Y-95260000D01*
X116640000Y-94510000D02*
X119590000Y-94510000D01*
X119590000Y-94510000D02*
X119590000Y-83960000D01*
X114090000Y-95560000D02*
X115340000Y-95560000D01*
X116640000Y-73410000D02*
X119590000Y-73410000D01*
X115140000Y-93460000D02*
X114390000Y-93460000D01*
X114090000Y-94310000D02*
X114090000Y-95560000D01*
X114390000Y-95260000D02*
X115140000Y-95260000D01*
X115140000Y-72660000D02*
X114390000Y-72660000D01*
X120350000Y-95270000D02*
X120350000Y-72650000D01*
X115140000Y-75960000D02*
X114390000Y-75960000D01*
X120350000Y-72650000D02*
X114380000Y-72650000D01*
X115140000Y-91960000D02*
X115140000Y-75960000D01*
X116640000Y-95260000D02*
X116640000Y-94510000D01*
X115140000Y-95260000D02*
X115140000Y-93460000D01*
X114380000Y-72650000D02*
X114380000Y-95270000D01*
X114390000Y-75960000D02*
X114390000Y-91960000D01*
X119590000Y-73410000D02*
X119590000Y-83960000D01*
X114390000Y-91960000D02*
X115140000Y-91960000D01*
X116640000Y-72660000D02*
X116640000Y-73410000D01*
%LPC*%
D13*
X157480000Y-69215000D03*
D14*
X154940000Y-69215000D03*
X152400000Y-69215000D03*
X149860000Y-69215000D03*
D15*
X120650000Y-102470000D03*
D16*
X118110000Y-102470000D03*
X115570000Y-102470000D03*
D17*
X117475000Y-97790000D03*
X114975000Y-97790000D03*
D18*
X127595000Y-101029888D03*
D17*
X127595000Y-103529888D03*
D19*
X148590000Y-73025000D03*
D20*
X148590000Y-75565000D03*
D21*
X108585000Y-69215000D03*
D17*
X123150000Y-97790000D03*
X120650000Y-97790000D03*
D21*
X163195000Y-69215000D03*
D17*
X120142000Y-69440000D03*
D22*
X122682000Y-69440000D03*
D17*
X114300000Y-69469000D03*
D22*
X116840000Y-69469000D03*
D23*
X128270000Y-91360000D03*
X128270000Y-86460000D03*
D17*
X129500000Y-97155000D03*
X127000000Y-97155000D03*
D13*
X158115000Y-103505000D03*
D14*
X155575000Y-103505000D03*
X153035000Y-103505000D03*
X150495000Y-103505000D03*
X147955000Y-103505000D03*
X145415000Y-103505000D03*
D17*
X129540000Y-71755000D03*
D22*
X129540000Y-69215000D03*
D17*
X144780000Y-69850000D03*
X144780000Y-72350000D03*
D21*
X163195000Y-103505000D03*
D18*
X152947380Y-97155000D03*
D17*
X150447380Y-97155000D03*
D24*
X155930000Y-89860000D03*
D17*
X155930000Y-87360000D03*
X155930000Y-85360000D03*
X155930000Y-82860000D03*
D25*
X158640000Y-92930000D03*
X158640000Y-79790000D03*
D17*
X144780000Y-82550000D03*
X144780000Y-80050000D03*
X111760000Y-81915000D03*
D22*
X109220000Y-81915000D03*
D18*
X145415000Y-92075000D03*
D17*
X147915000Y-92075000D03*
X148590000Y-79375000D03*
D22*
X151130000Y-79375000D03*
D19*
X160020000Y-74295000D03*
D20*
X157480000Y-74295000D03*
D18*
X133350000Y-69835000D03*
D22*
X133350000Y-72375000D03*
X133350000Y-74915000D03*
X133350000Y-77455000D03*
X133350000Y-79995000D03*
X133350000Y-82535000D03*
X133350000Y-85075000D03*
X133350000Y-87615000D03*
X133350000Y-90155000D03*
X133350000Y-92695000D03*
X133350000Y-95235000D03*
X133350000Y-97775000D03*
X133350000Y-100315000D03*
X133350000Y-102855000D03*
X140970000Y-102855000D03*
X140970000Y-100315000D03*
X140970000Y-97775000D03*
X140970000Y-95235000D03*
X140970000Y-92695000D03*
X140970000Y-90155000D03*
X140970000Y-87615000D03*
X140970000Y-85075000D03*
X140970000Y-82535000D03*
X140970000Y-79995000D03*
X140970000Y-77455000D03*
X140970000Y-74915000D03*
X140970000Y-72375000D03*
X140970000Y-69835000D03*
D18*
X111760000Y-96520000D03*
D17*
X109260000Y-96520000D03*
X111760000Y-74295000D03*
D22*
X109220000Y-74295000D03*
D17*
X148590000Y-86995000D03*
D22*
X151130000Y-86995000D03*
D17*
X123190000Y-83820000D03*
X123190000Y-86320000D03*
X125730000Y-69215000D03*
X125730000Y-71715000D03*
X111760000Y-78105000D03*
D22*
X109220000Y-78105000D03*
D26*
X129540000Y-80065000D03*
X123040000Y-80065000D03*
X123040000Y-75565000D03*
X129540000Y-75565000D03*
D19*
X153035000Y-73025000D03*
D20*
X153035000Y-75565000D03*
D17*
X148590000Y-83185000D03*
D22*
X151130000Y-83185000D03*
D21*
X108585000Y-103505000D03*
D17*
X123190000Y-89555000D03*
X123190000Y-92055000D03*
X109260000Y-90805000D03*
X111760000Y-90805000D03*
D27*
X116840000Y-92710000D03*
D28*
X116840000Y-90210000D03*
X116840000Y-87710000D03*
X116840000Y-85210000D03*
X116840000Y-82710000D03*
X116840000Y-80210000D03*
X116840000Y-77710000D03*
X116840000Y-75210000D03*
M02*
