%FSLAX45Y45*%
G04 Gerber Fmt 4.5, Leading zero omitted, Abs format (unit mm)*
G04 Created by KiCad (PCBNEW (6.0.6)) date 2023-10-21 22:29:06*
%MOMM*%
%LPD*%
G01*
G04 APERTURE LIST*
%TA.AperFunction,Profile*%
%ADD10C,0.100000*%
%TD*%
%ADD11C,0.200000*%
%ADD12C,0.220000*%
G04 APERTURE END LIST*
D10*
X10541000Y-6604000D02*
X16637000Y-6604000D01*
X16637000Y-6604000D02*
X16637000Y-10668000D01*
X16637000Y-10668000D02*
X10541000Y-10668000D01*
X10541000Y-10668000D02*
X10541000Y-6604000D01*
D11*
D12*
X10748500Y-6811500D02*
X10968500Y-7031500D01*
X10968500Y-6811500D02*
X10748500Y-7031500D01*
X10748500Y-10240500D02*
X10968500Y-10460500D01*
X10968500Y-10240500D02*
X10748500Y-10460500D01*
X16209500Y-6811500D02*
X16429500Y-7031500D01*
X16429500Y-6811500D02*
X16209500Y-7031500D01*
X16209500Y-10240500D02*
X16429500Y-10460500D01*
X16429500Y-10240500D02*
X16209500Y-10460500D01*
D11*
X10793619Y-10983476D02*
X10793619Y-10783476D01*
X10841238Y-10783476D01*
X10869810Y-10793000D01*
X10888857Y-10812048D01*
X10898381Y-10831095D01*
X10907905Y-10869190D01*
X10907905Y-10897762D01*
X10898381Y-10935857D01*
X10888857Y-10954905D01*
X10869810Y-10973952D01*
X10841238Y-10983476D01*
X10793619Y-10983476D01*
X10993619Y-10983476D02*
X10993619Y-10850143D01*
X10993619Y-10888238D02*
X11003143Y-10869190D01*
X11012667Y-10859667D01*
X11031714Y-10850143D01*
X11050762Y-10850143D01*
X11117429Y-10983476D02*
X11117429Y-10850143D01*
X11117429Y-10783476D02*
X11107905Y-10793000D01*
X11117429Y-10802524D01*
X11126952Y-10793000D01*
X11117429Y-10783476D01*
X11117429Y-10802524D01*
X11241238Y-10983476D02*
X11222190Y-10973952D01*
X11212667Y-10954905D01*
X11212667Y-10783476D01*
X11346000Y-10983476D02*
X11326952Y-10973952D01*
X11317428Y-10954905D01*
X11317428Y-10783476D01*
X11574571Y-10983476D02*
X11574571Y-10783476D01*
X11641238Y-10926333D01*
X11707905Y-10783476D01*
X11707905Y-10983476D01*
X11888857Y-10983476D02*
X11888857Y-10878714D01*
X11879333Y-10859667D01*
X11860286Y-10850143D01*
X11822190Y-10850143D01*
X11803143Y-10859667D01*
X11888857Y-10973952D02*
X11869809Y-10983476D01*
X11822190Y-10983476D01*
X11803143Y-10973952D01*
X11793619Y-10954905D01*
X11793619Y-10935857D01*
X11803143Y-10916810D01*
X11822190Y-10907286D01*
X11869809Y-10907286D01*
X11888857Y-10897762D01*
X11984095Y-10850143D02*
X11984095Y-11050143D01*
X11984095Y-10859667D02*
X12003143Y-10850143D01*
X12041238Y-10850143D01*
X12060286Y-10859667D01*
X12069809Y-10869190D01*
X12079333Y-10888238D01*
X12079333Y-10945381D01*
X12069809Y-10964429D01*
X12060286Y-10973952D01*
X12041238Y-10983476D01*
X12003143Y-10983476D01*
X11984095Y-10973952D01*
X12165048Y-10964429D02*
X12174571Y-10973952D01*
X12165048Y-10983476D01*
X12155524Y-10973952D01*
X12165048Y-10964429D01*
X12165048Y-10983476D01*
X12165048Y-10859667D02*
X12174571Y-10869190D01*
X12165048Y-10878714D01*
X12155524Y-10869190D01*
X12165048Y-10859667D01*
X12165048Y-10878714D01*
X10336000Y-11213000D02*
X10536000Y-11413000D01*
X10536000Y-11213000D02*
X10336000Y-11413000D01*
X10784095Y-11222524D02*
X10793619Y-11213000D01*
X10812667Y-11203476D01*
X10860286Y-11203476D01*
X10879333Y-11213000D01*
X10888857Y-11222524D01*
X10898381Y-11241571D01*
X10898381Y-11260619D01*
X10888857Y-11289190D01*
X10774571Y-11403476D01*
X10898381Y-11403476D01*
X10984095Y-11384428D02*
X10993619Y-11393952D01*
X10984095Y-11403476D01*
X10974571Y-11393952D01*
X10984095Y-11384428D01*
X10984095Y-11403476D01*
X11069810Y-11222524D02*
X11079333Y-11213000D01*
X11098381Y-11203476D01*
X11146000Y-11203476D01*
X11165048Y-11213000D01*
X11174571Y-11222524D01*
X11184095Y-11241571D01*
X11184095Y-11260619D01*
X11174571Y-11289190D01*
X11060286Y-11403476D01*
X11184095Y-11403476D01*
X11307905Y-11203476D02*
X11326952Y-11203476D01*
X11346000Y-11213000D01*
X11355524Y-11222524D01*
X11365048Y-11241571D01*
X11374571Y-11279667D01*
X11374571Y-11327286D01*
X11365048Y-11365381D01*
X11355524Y-11384428D01*
X11346000Y-11393952D01*
X11326952Y-11403476D01*
X11307905Y-11403476D01*
X11288857Y-11393952D01*
X11279333Y-11384428D01*
X11269809Y-11365381D01*
X11260286Y-11327286D01*
X11260286Y-11279667D01*
X11269809Y-11241571D01*
X11279333Y-11222524D01*
X11288857Y-11213000D01*
X11307905Y-11203476D01*
X11498381Y-11203476D02*
X11517428Y-11203476D01*
X11536476Y-11213000D01*
X11546000Y-11222524D01*
X11555524Y-11241571D01*
X11565048Y-11279667D01*
X11565048Y-11327286D01*
X11555524Y-11365381D01*
X11546000Y-11384428D01*
X11536476Y-11393952D01*
X11517428Y-11403476D01*
X11498381Y-11403476D01*
X11479333Y-11393952D01*
X11469809Y-11384428D01*
X11460286Y-11365381D01*
X11450762Y-11327286D01*
X11450762Y-11279667D01*
X11460286Y-11241571D01*
X11469809Y-11222524D01*
X11479333Y-11213000D01*
X11498381Y-11203476D01*
X11650762Y-11403476D02*
X11650762Y-11270143D01*
X11650762Y-11289190D02*
X11660286Y-11279667D01*
X11679333Y-11270143D01*
X11707905Y-11270143D01*
X11726952Y-11279667D01*
X11736476Y-11298714D01*
X11736476Y-11403476D01*
X11736476Y-11298714D02*
X11746000Y-11279667D01*
X11765048Y-11270143D01*
X11793619Y-11270143D01*
X11812667Y-11279667D01*
X11822190Y-11298714D01*
X11822190Y-11403476D01*
X11917428Y-11403476D02*
X11917428Y-11270143D01*
X11917428Y-11289190D02*
X11926952Y-11279667D01*
X11946000Y-11270143D01*
X11974571Y-11270143D01*
X11993619Y-11279667D01*
X12003143Y-11298714D01*
X12003143Y-11403476D01*
X12003143Y-11298714D02*
X12012667Y-11279667D01*
X12031714Y-11270143D01*
X12060286Y-11270143D01*
X12079333Y-11279667D01*
X12088857Y-11298714D01*
X12088857Y-11403476D01*
X12479333Y-11193952D02*
X12307905Y-11451095D01*
X12736476Y-11203476D02*
X12755524Y-11203476D01*
X12774571Y-11213000D01*
X12784095Y-11222524D01*
X12793619Y-11241571D01*
X12803143Y-11279667D01*
X12803143Y-11327286D01*
X12793619Y-11365381D01*
X12784095Y-11384428D01*
X12774571Y-11393952D01*
X12755524Y-11403476D01*
X12736476Y-11403476D01*
X12717428Y-11393952D01*
X12707905Y-11384428D01*
X12698381Y-11365381D01*
X12688857Y-11327286D01*
X12688857Y-11279667D01*
X12698381Y-11241571D01*
X12707905Y-11222524D01*
X12717428Y-11213000D01*
X12736476Y-11203476D01*
X12888857Y-11384428D02*
X12898381Y-11393952D01*
X12888857Y-11403476D01*
X12879333Y-11393952D01*
X12888857Y-11384428D01*
X12888857Y-11403476D01*
X13022190Y-11203476D02*
X13041238Y-11203476D01*
X13060286Y-11213000D01*
X13069809Y-11222524D01*
X13079333Y-11241571D01*
X13088857Y-11279667D01*
X13088857Y-11327286D01*
X13079333Y-11365381D01*
X13069809Y-11384428D01*
X13060286Y-11393952D01*
X13041238Y-11403476D01*
X13022190Y-11403476D01*
X13003143Y-11393952D01*
X12993619Y-11384428D01*
X12984095Y-11365381D01*
X12974571Y-11327286D01*
X12974571Y-11279667D01*
X12984095Y-11241571D01*
X12993619Y-11222524D01*
X13003143Y-11213000D01*
X13022190Y-11203476D01*
X13203143Y-11289190D02*
X13184095Y-11279667D01*
X13174571Y-11270143D01*
X13165048Y-11251095D01*
X13165048Y-11241571D01*
X13174571Y-11222524D01*
X13184095Y-11213000D01*
X13203143Y-11203476D01*
X13241238Y-11203476D01*
X13260286Y-11213000D01*
X13269809Y-11222524D01*
X13279333Y-11241571D01*
X13279333Y-11251095D01*
X13269809Y-11270143D01*
X13260286Y-11279667D01*
X13241238Y-11289190D01*
X13203143Y-11289190D01*
X13184095Y-11298714D01*
X13174571Y-11308238D01*
X13165048Y-11327286D01*
X13165048Y-11365381D01*
X13174571Y-11384428D01*
X13184095Y-11393952D01*
X13203143Y-11403476D01*
X13241238Y-11403476D01*
X13260286Y-11393952D01*
X13269809Y-11384428D01*
X13279333Y-11365381D01*
X13279333Y-11327286D01*
X13269809Y-11308238D01*
X13260286Y-11298714D01*
X13241238Y-11289190D01*
X13450762Y-11203476D02*
X13412667Y-11203476D01*
X13393619Y-11213000D01*
X13384095Y-11222524D01*
X13365048Y-11251095D01*
X13355524Y-11289190D01*
X13355524Y-11365381D01*
X13365048Y-11384428D01*
X13374571Y-11393952D01*
X13393619Y-11403476D01*
X13431714Y-11403476D01*
X13450762Y-11393952D01*
X13460286Y-11384428D01*
X13469809Y-11365381D01*
X13469809Y-11317762D01*
X13460286Y-11298714D01*
X13450762Y-11289190D01*
X13431714Y-11279667D01*
X13393619Y-11279667D01*
X13374571Y-11289190D01*
X13365048Y-11298714D01*
X13355524Y-11317762D01*
X13641238Y-11203476D02*
X13603143Y-11203476D01*
X13584095Y-11213000D01*
X13574571Y-11222524D01*
X13555524Y-11251095D01*
X13546000Y-11289190D01*
X13546000Y-11365381D01*
X13555524Y-11384428D01*
X13565048Y-11393952D01*
X13584095Y-11403476D01*
X13622190Y-11403476D01*
X13641238Y-11393952D01*
X13650762Y-11384428D01*
X13660286Y-11365381D01*
X13660286Y-11317762D01*
X13650762Y-11298714D01*
X13641238Y-11289190D01*
X13622190Y-11279667D01*
X13584095Y-11279667D01*
X13565048Y-11289190D01*
X13555524Y-11298714D01*
X13546000Y-11317762D01*
X13736476Y-11203476D02*
X13736476Y-11241571D01*
X13812667Y-11203476D02*
X13812667Y-11241571D01*
X14107905Y-11479667D02*
X14098381Y-11470143D01*
X14079333Y-11441571D01*
X14069809Y-11422524D01*
X14060286Y-11393952D01*
X14050762Y-11346333D01*
X14050762Y-11308238D01*
X14060286Y-11260619D01*
X14069809Y-11232048D01*
X14079333Y-11213000D01*
X14098381Y-11184429D01*
X14107905Y-11174905D01*
X14269809Y-11270143D02*
X14269809Y-11403476D01*
X14222190Y-11193952D02*
X14174571Y-11336809D01*
X14298381Y-11336809D01*
X14526952Y-11403476D02*
X14526952Y-11203476D01*
X14612667Y-11403476D02*
X14612667Y-11298714D01*
X14603143Y-11279667D01*
X14584095Y-11270143D01*
X14555524Y-11270143D01*
X14536476Y-11279667D01*
X14526952Y-11289190D01*
X14736476Y-11403476D02*
X14717428Y-11393952D01*
X14707905Y-11384428D01*
X14698381Y-11365381D01*
X14698381Y-11308238D01*
X14707905Y-11289190D01*
X14717428Y-11279667D01*
X14736476Y-11270143D01*
X14765048Y-11270143D01*
X14784095Y-11279667D01*
X14793619Y-11289190D01*
X14803143Y-11308238D01*
X14803143Y-11365381D01*
X14793619Y-11384428D01*
X14784095Y-11393952D01*
X14765048Y-11403476D01*
X14736476Y-11403476D01*
X14917428Y-11403476D02*
X14898381Y-11393952D01*
X14888857Y-11374905D01*
X14888857Y-11203476D01*
X15069809Y-11393952D02*
X15050762Y-11403476D01*
X15012667Y-11403476D01*
X14993619Y-11393952D01*
X14984095Y-11374905D01*
X14984095Y-11298714D01*
X14993619Y-11279667D01*
X15012667Y-11270143D01*
X15050762Y-11270143D01*
X15069809Y-11279667D01*
X15079333Y-11298714D01*
X15079333Y-11317762D01*
X14984095Y-11336809D01*
X15155524Y-11393952D02*
X15174571Y-11403476D01*
X15212667Y-11403476D01*
X15231714Y-11393952D01*
X15241238Y-11374905D01*
X15241238Y-11365381D01*
X15231714Y-11346333D01*
X15212667Y-11336809D01*
X15184095Y-11336809D01*
X15165048Y-11327286D01*
X15155524Y-11308238D01*
X15155524Y-11298714D01*
X15165048Y-11279667D01*
X15184095Y-11270143D01*
X15212667Y-11270143D01*
X15231714Y-11279667D01*
X15307905Y-11479667D02*
X15317428Y-11470143D01*
X15336476Y-11441571D01*
X15346000Y-11422524D01*
X15355524Y-11393952D01*
X15365048Y-11346333D01*
X15365048Y-11308238D01*
X15355524Y-11260619D01*
X15346000Y-11232048D01*
X15336476Y-11213000D01*
X15317428Y-11184429D01*
X15307905Y-11174905D01*
X15669809Y-11479667D02*
X15660286Y-11470143D01*
X15641238Y-11441571D01*
X15631714Y-11422524D01*
X15622190Y-11393952D01*
X15612667Y-11346333D01*
X15612667Y-11308238D01*
X15622190Y-11260619D01*
X15631714Y-11232048D01*
X15641238Y-11213000D01*
X15660286Y-11184429D01*
X15669809Y-11174905D01*
X15746000Y-11270143D02*
X15746000Y-11403476D01*
X15746000Y-11289190D02*
X15755524Y-11279667D01*
X15774571Y-11270143D01*
X15803143Y-11270143D01*
X15822190Y-11279667D01*
X15831714Y-11298714D01*
X15831714Y-11403476D01*
X15955524Y-11403476D02*
X15936476Y-11393952D01*
X15926952Y-11384428D01*
X15917428Y-11365381D01*
X15917428Y-11308238D01*
X15926952Y-11289190D01*
X15936476Y-11279667D01*
X15955524Y-11270143D01*
X15984095Y-11270143D01*
X16003143Y-11279667D01*
X16012667Y-11289190D01*
X16022190Y-11308238D01*
X16022190Y-11365381D01*
X16012667Y-11384428D01*
X16003143Y-11393952D01*
X15984095Y-11403476D01*
X15955524Y-11403476D01*
X16079333Y-11270143D02*
X16155524Y-11270143D01*
X16107905Y-11203476D02*
X16107905Y-11374905D01*
X16117428Y-11393952D01*
X16136476Y-11403476D01*
X16155524Y-11403476D01*
X16374571Y-11270143D02*
X16374571Y-11470143D01*
X16374571Y-11279667D02*
X16393619Y-11270143D01*
X16431714Y-11270143D01*
X16450762Y-11279667D01*
X16460286Y-11289190D01*
X16469809Y-11308238D01*
X16469809Y-11365381D01*
X16460286Y-11384428D01*
X16450762Y-11393952D01*
X16431714Y-11403476D01*
X16393619Y-11403476D01*
X16374571Y-11393952D01*
X16584095Y-11403476D02*
X16565048Y-11393952D01*
X16555524Y-11374905D01*
X16555524Y-11203476D01*
X16746000Y-11403476D02*
X16746000Y-11298714D01*
X16736476Y-11279667D01*
X16717428Y-11270143D01*
X16679333Y-11270143D01*
X16660286Y-11279667D01*
X16746000Y-11393952D02*
X16726952Y-11403476D01*
X16679333Y-11403476D01*
X16660286Y-11393952D01*
X16650762Y-11374905D01*
X16650762Y-11355857D01*
X16660286Y-11336809D01*
X16679333Y-11327286D01*
X16726952Y-11327286D01*
X16746000Y-11317762D01*
X16812667Y-11270143D02*
X16888857Y-11270143D01*
X16841238Y-11203476D02*
X16841238Y-11374905D01*
X16850762Y-11393952D01*
X16869810Y-11403476D01*
X16888857Y-11403476D01*
X17031714Y-11393952D02*
X17012667Y-11403476D01*
X16974571Y-11403476D01*
X16955524Y-11393952D01*
X16946000Y-11374905D01*
X16946000Y-11298714D01*
X16955524Y-11279667D01*
X16974571Y-11270143D01*
X17012667Y-11270143D01*
X17031714Y-11279667D01*
X17041238Y-11298714D01*
X17041238Y-11317762D01*
X16946000Y-11336809D01*
X17212667Y-11403476D02*
X17212667Y-11203476D01*
X17212667Y-11393952D02*
X17193619Y-11403476D01*
X17155524Y-11403476D01*
X17136476Y-11393952D01*
X17126952Y-11384428D01*
X17117429Y-11365381D01*
X17117429Y-11308238D01*
X17126952Y-11289190D01*
X17136476Y-11279667D01*
X17155524Y-11270143D01*
X17193619Y-11270143D01*
X17212667Y-11279667D01*
X17288857Y-11479667D02*
X17298381Y-11470143D01*
X17317429Y-11441571D01*
X17326952Y-11422524D01*
X17336476Y-11393952D01*
X17346000Y-11346333D01*
X17346000Y-11308238D01*
X17336476Y-11260619D01*
X17326952Y-11232048D01*
X17317429Y-11213000D01*
X17298381Y-11184429D01*
X17288857Y-11174905D01*
M02*
