M48
; DRILL file {KiCad (6.0.6)} date Sun May 14 15:30:50 2023
; FORMAT={-:-/ absolute / metric / decimal}
; #@! TF.CreationDate,2023-05-14T15:30:50+09:00
; #@! TF.GenerationSoftware,Kicad,Pcbnew,(6.0.6)
; #@! TF.FileFunction,Plated,1,2,PTH
FMAT,2
METRIC
; #@! TA.AperFunction,Plated,PTH,ViaDrill
T1C0.400
; #@! TA.AperFunction,Plated,PTH,ComponentDrill
T2C0.800
; #@! TA.AperFunction,Plated,PTH,ComponentDrill
T3C0.900
; #@! TA.AperFunction,Plated,PTH,ComponentDrill
T4C0.950
; #@! TA.AperFunction,Plated,PTH,ComponentDrill
T5C1.000
; #@! TA.AperFunction,Plated,PTH,ComponentDrill
T6C1.100
; #@! TA.AperFunction,Plated,PTH,ComponentDrill
T7C2.300
%
G90
G05
T1
X130.81Y-93.345
X135.89Y-69.85
X137.414Y-84.455
X137.795Y-89.154
X137.795Y-92.456
X137.795Y-103.505
X146.304Y-75.692
X149.225Y-100.33
X152.4Y-100.965
X160.655Y-84.455
X162.56Y-86.36
T2
X109.22Y-74.295
X109.22Y-78.105
X109.22Y-81.915
X109.22Y-90.805
X109.26Y-96.52
X111.76Y-74.295
X111.76Y-78.105
X111.76Y-81.915
X111.76Y-90.805
X111.76Y-96.52
X114.975Y-97.79
X117.475Y-97.79
X120.015Y-69.44
X120.65Y-97.79
X122.555Y-69.44
X123.15Y-97.79
X123.19Y-83.82
X123.19Y-86.32
X123.19Y-89.555
X123.19Y-92.055
X125.73Y-69.215
X125.73Y-71.715
X127.0Y-97.155
X127.595Y-101.03
X127.595Y-103.53
X128.27Y-86.46
X128.27Y-91.36
X129.5Y-97.155
X129.54Y-69.215
X129.54Y-71.755
X133.35Y-69.835
X133.35Y-72.375
X133.35Y-74.915
X133.35Y-77.455
X133.35Y-79.995
X133.35Y-82.535
X133.35Y-85.075
X133.35Y-87.615
X133.35Y-90.155
X133.35Y-92.695
X133.35Y-95.235
X133.35Y-97.775
X133.35Y-100.315
X133.35Y-102.855
X140.97Y-69.835
X140.97Y-72.375
X140.97Y-74.915
X140.97Y-77.455
X140.97Y-79.995
X140.97Y-82.535
X140.97Y-85.075
X140.97Y-87.615
X140.97Y-90.155
X140.97Y-92.695
X140.97Y-95.235
X140.97Y-97.775
X140.97Y-100.315
X140.97Y-102.855
X144.78Y-69.85
X144.78Y-72.35
X144.78Y-80.05
X144.78Y-82.55
X145.415Y-92.075
X147.915Y-92.075
X148.59Y-79.375
X148.59Y-83.185
X148.59Y-86.995
X150.447Y-97.155
X151.13Y-79.375
X151.13Y-83.185
X151.13Y-86.995
X152.947Y-97.155
T3
X148.59Y-73.025
X148.59Y-75.565
X153.035Y-73.025
X153.035Y-75.565
X157.48Y-74.295
X160.02Y-74.295
T4
X116.84Y-75.21
X116.84Y-77.71
X116.84Y-80.21
X116.84Y-82.71
X116.84Y-85.21
X116.84Y-87.71
X116.84Y-90.21
X116.84Y-92.71
X155.93Y-82.86
X155.93Y-85.36
X155.93Y-87.36
X155.93Y-89.86
T5
X145.415Y-103.505
X147.955Y-103.505
X149.86Y-69.215
X150.495Y-103.505
X152.4Y-69.215
X153.035Y-103.505
X154.94Y-69.215
X155.575Y-103.505
X157.48Y-69.215
X158.115Y-103.505
T6
X115.57Y-102.47
X118.11Y-102.47
X120.65Y-102.47
X123.04Y-75.565
X123.04Y-80.065
X129.54Y-75.565
X129.54Y-80.065
T7
X158.64Y-79.79
X158.64Y-92.93
T0
M30
