%FSLAX45Y45*%
G04 Gerber Fmt 4.5, Leading zero omitted, Abs format (unit mm)*
G04 Created by KiCad (PCBNEW (6.0.6)) date 2023-05-14 15:30:51*
%MOMM*%
%LPD*%
G01*
G04 APERTURE LIST*
%TA.AperFunction,Profile*%
%ADD10C,0.100000*%
%TD*%
%ADD11C,0.200000*%
%ADD12C,0.040000*%
%ADD13C,0.080000*%
%ADD14C,0.090000*%
%ADD15C,0.095000*%
%ADD16C,0.100000*%
%ADD17C,0.110000*%
%ADD18C,0.230000*%
G04 APERTURE END LIST*
D10*
X10541000Y-6604000D02*
X16637000Y-6604000D01*
X16637000Y-6604000D02*
X16637000Y-10668000D01*
X16637000Y-10668000D02*
X10541000Y-10668000D01*
X10541000Y-10668000D02*
X10541000Y-6604000D01*
D11*
D12*
X13061000Y-9314500D02*
X13101000Y-9354500D01*
X13101000Y-9314500D02*
X13061000Y-9354500D01*
X13569000Y-6965000D02*
X13609000Y-7005000D01*
X13609000Y-6965000D02*
X13569000Y-7005000D01*
X13721400Y-8425500D02*
X13761400Y-8465500D01*
X13761400Y-8425500D02*
X13721400Y-8465500D01*
X13759500Y-8895400D02*
X13799500Y-8935400D01*
X13799500Y-8895400D02*
X13759500Y-8935400D01*
X13759500Y-9225600D02*
X13799500Y-9265600D01*
X13799500Y-9225600D02*
X13759500Y-9265600D01*
X13759500Y-10330500D02*
X13799500Y-10370500D01*
X13799500Y-10330500D02*
X13759500Y-10370500D01*
X14610400Y-7549200D02*
X14650400Y-7589200D01*
X14650400Y-7549200D02*
X14610400Y-7589200D01*
X14902500Y-10013000D02*
X14942500Y-10053000D01*
X14942500Y-10013000D02*
X14902500Y-10053000D01*
X15220000Y-10076500D02*
X15260000Y-10116500D01*
X15260000Y-10076500D02*
X15220000Y-10116500D01*
X16045500Y-8425500D02*
X16085500Y-8465500D01*
X16085500Y-8425500D02*
X16045500Y-8465500D01*
X16236000Y-8616000D02*
X16276000Y-8656000D01*
X16276000Y-8616000D02*
X16236000Y-8656000D01*
D13*
X10962000Y-7429500D02*
G75*
G03*
X10962000Y-7429500I-40000J0D01*
G01*
X10962000Y-7810500D02*
G75*
G03*
X10962000Y-7810500I-40000J0D01*
G01*
X10962000Y-8191500D02*
G75*
G03*
X10962000Y-8191500I-40000J0D01*
G01*
X10962000Y-9080500D02*
G75*
G03*
X10962000Y-9080500I-40000J0D01*
G01*
X10966000Y-9652000D02*
G75*
G03*
X10966000Y-9652000I-40000J0D01*
G01*
X11216000Y-7429500D02*
G75*
G03*
X11216000Y-7429500I-40000J0D01*
G01*
X11216000Y-7810500D02*
G75*
G03*
X11216000Y-7810500I-40000J0D01*
G01*
X11216000Y-8191500D02*
G75*
G03*
X11216000Y-8191500I-40000J0D01*
G01*
X11216000Y-9080500D02*
G75*
G03*
X11216000Y-9080500I-40000J0D01*
G01*
X11216000Y-9652000D02*
G75*
G03*
X11216000Y-9652000I-40000J0D01*
G01*
X11537500Y-9779000D02*
G75*
G03*
X11537500Y-9779000I-40000J0D01*
G01*
X11787500Y-9779000D02*
G75*
G03*
X11787500Y-9779000I-40000J0D01*
G01*
X12041500Y-6944000D02*
G75*
G03*
X12041500Y-6944000I-40000J0D01*
G01*
X12105000Y-9779000D02*
G75*
G03*
X12105000Y-9779000I-40000J0D01*
G01*
X12295500Y-6944000D02*
G75*
G03*
X12295500Y-6944000I-40000J0D01*
G01*
X12355000Y-9779000D02*
G75*
G03*
X12355000Y-9779000I-40000J0D01*
G01*
X12359000Y-8382000D02*
G75*
G03*
X12359000Y-8382000I-40000J0D01*
G01*
X12359000Y-8632000D02*
G75*
G03*
X12359000Y-8632000I-40000J0D01*
G01*
X12359000Y-8955500D02*
G75*
G03*
X12359000Y-8955500I-40000J0D01*
G01*
X12359000Y-9205500D02*
G75*
G03*
X12359000Y-9205500I-40000J0D01*
G01*
X12613000Y-6921500D02*
G75*
G03*
X12613000Y-6921500I-40000J0D01*
G01*
X12613000Y-7171500D02*
G75*
G03*
X12613000Y-7171500I-40000J0D01*
G01*
X12740000Y-9715500D02*
G75*
G03*
X12740000Y-9715500I-40000J0D01*
G01*
X12799500Y-10102989D02*
G75*
G03*
X12799500Y-10102989I-40000J0D01*
G01*
X12799500Y-10352989D02*
G75*
G03*
X12799500Y-10352989I-40000J0D01*
G01*
X12867000Y-8646000D02*
G75*
G03*
X12867000Y-8646000I-40000J0D01*
G01*
X12867000Y-9136000D02*
G75*
G03*
X12867000Y-9136000I-40000J0D01*
G01*
X12990000Y-9715500D02*
G75*
G03*
X12990000Y-9715500I-40000J0D01*
G01*
X12994000Y-6921500D02*
G75*
G03*
X12994000Y-6921500I-40000J0D01*
G01*
X12994000Y-7175500D02*
G75*
G03*
X12994000Y-7175500I-40000J0D01*
G01*
X13375000Y-6983500D02*
G75*
G03*
X13375000Y-6983500I-40000J0D01*
G01*
X13375000Y-7237500D02*
G75*
G03*
X13375000Y-7237500I-40000J0D01*
G01*
X13375000Y-7491500D02*
G75*
G03*
X13375000Y-7491500I-40000J0D01*
G01*
X13375000Y-7745500D02*
G75*
G03*
X13375000Y-7745500I-40000J0D01*
G01*
X13375000Y-7999500D02*
G75*
G03*
X13375000Y-7999500I-40000J0D01*
G01*
X13375000Y-8253500D02*
G75*
G03*
X13375000Y-8253500I-40000J0D01*
G01*
X13375000Y-8507500D02*
G75*
G03*
X13375000Y-8507500I-40000J0D01*
G01*
X13375000Y-8761500D02*
G75*
G03*
X13375000Y-8761500I-40000J0D01*
G01*
X13375000Y-9015500D02*
G75*
G03*
X13375000Y-9015500I-40000J0D01*
G01*
X13375000Y-9269500D02*
G75*
G03*
X13375000Y-9269500I-40000J0D01*
G01*
X13375000Y-9523500D02*
G75*
G03*
X13375000Y-9523500I-40000J0D01*
G01*
X13375000Y-9777500D02*
G75*
G03*
X13375000Y-9777500I-40000J0D01*
G01*
X13375000Y-10031500D02*
G75*
G03*
X13375000Y-10031500I-40000J0D01*
G01*
X13375000Y-10285500D02*
G75*
G03*
X13375000Y-10285500I-40000J0D01*
G01*
X14137000Y-6983500D02*
G75*
G03*
X14137000Y-6983500I-40000J0D01*
G01*
X14137000Y-7237500D02*
G75*
G03*
X14137000Y-7237500I-40000J0D01*
G01*
X14137000Y-7491500D02*
G75*
G03*
X14137000Y-7491500I-40000J0D01*
G01*
X14137000Y-7745500D02*
G75*
G03*
X14137000Y-7745500I-40000J0D01*
G01*
X14137000Y-7999500D02*
G75*
G03*
X14137000Y-7999500I-40000J0D01*
G01*
X14137000Y-8253500D02*
G75*
G03*
X14137000Y-8253500I-40000J0D01*
G01*
X14137000Y-8507500D02*
G75*
G03*
X14137000Y-8507500I-40000J0D01*
G01*
X14137000Y-8761500D02*
G75*
G03*
X14137000Y-8761500I-40000J0D01*
G01*
X14137000Y-9015500D02*
G75*
G03*
X14137000Y-9015500I-40000J0D01*
G01*
X14137000Y-9269500D02*
G75*
G03*
X14137000Y-9269500I-40000J0D01*
G01*
X14137000Y-9523500D02*
G75*
G03*
X14137000Y-9523500I-40000J0D01*
G01*
X14137000Y-9777500D02*
G75*
G03*
X14137000Y-9777500I-40000J0D01*
G01*
X14137000Y-10031500D02*
G75*
G03*
X14137000Y-10031500I-40000J0D01*
G01*
X14137000Y-10285500D02*
G75*
G03*
X14137000Y-10285500I-40000J0D01*
G01*
X14518000Y-6985000D02*
G75*
G03*
X14518000Y-6985000I-40000J0D01*
G01*
X14518000Y-7235000D02*
G75*
G03*
X14518000Y-7235000I-40000J0D01*
G01*
X14518000Y-8005000D02*
G75*
G03*
X14518000Y-8005000I-40000J0D01*
G01*
X14518000Y-8255000D02*
G75*
G03*
X14518000Y-8255000I-40000J0D01*
G01*
X14581500Y-9207500D02*
G75*
G03*
X14581500Y-9207500I-40000J0D01*
G01*
X14831500Y-9207500D02*
G75*
G03*
X14831500Y-9207500I-40000J0D01*
G01*
X14899000Y-7937500D02*
G75*
G03*
X14899000Y-7937500I-40000J0D01*
G01*
X14899000Y-8318500D02*
G75*
G03*
X14899000Y-8318500I-40000J0D01*
G01*
X14899000Y-8699500D02*
G75*
G03*
X14899000Y-8699500I-40000J0D01*
G01*
X15084738Y-9715500D02*
G75*
G03*
X15084738Y-9715500I-40000J0D01*
G01*
X15153000Y-7937500D02*
G75*
G03*
X15153000Y-7937500I-40000J0D01*
G01*
X15153000Y-8318500D02*
G75*
G03*
X15153000Y-8318500I-40000J0D01*
G01*
X15153000Y-8699500D02*
G75*
G03*
X15153000Y-8699500I-40000J0D01*
G01*
X15334738Y-9715500D02*
G75*
G03*
X15334738Y-9715500I-40000J0D01*
G01*
D14*
X14859000Y-7257500D02*
X14859000Y-7347500D01*
X14814000Y-7302500D02*
X14904000Y-7302500D01*
X14859000Y-7511500D02*
X14859000Y-7601500D01*
X14814000Y-7556500D02*
X14904000Y-7556500D01*
X15303500Y-7257500D02*
X15303500Y-7347500D01*
X15258500Y-7302500D02*
X15348500Y-7302500D01*
X15303500Y-7511500D02*
X15303500Y-7601500D01*
X15258500Y-7556500D02*
X15348500Y-7556500D01*
X15748000Y-7384500D02*
X15748000Y-7474500D01*
X15703000Y-7429500D02*
X15793000Y-7429500D01*
X16002000Y-7384500D02*
X16002000Y-7474500D01*
X15957000Y-7429500D02*
X16047000Y-7429500D01*
D15*
X11717588Y-7554588D02*
X11717588Y-7487412D01*
X11650412Y-7487412D01*
X11650412Y-7554588D01*
X11717588Y-7554588D01*
X11717588Y-7804588D02*
X11717588Y-7737412D01*
X11650412Y-7737412D01*
X11650412Y-7804588D01*
X11717588Y-7804588D01*
X11717588Y-8054588D02*
X11717588Y-7987412D01*
X11650412Y-7987412D01*
X11650412Y-8054588D01*
X11717588Y-8054588D01*
X11717588Y-8304588D02*
X11717588Y-8237412D01*
X11650412Y-8237412D01*
X11650412Y-8304588D01*
X11717588Y-8304588D01*
X11717588Y-8554588D02*
X11717588Y-8487412D01*
X11650412Y-8487412D01*
X11650412Y-8554588D01*
X11717588Y-8554588D01*
X11717588Y-8804588D02*
X11717588Y-8737412D01*
X11650412Y-8737412D01*
X11650412Y-8804588D01*
X11717588Y-8804588D01*
X11717588Y-9054588D02*
X11717588Y-8987412D01*
X11650412Y-8987412D01*
X11650412Y-9054588D01*
X11717588Y-9054588D01*
X11717588Y-9304588D02*
X11717588Y-9237412D01*
X11650412Y-9237412D01*
X11650412Y-9304588D01*
X11717588Y-9304588D01*
X15626588Y-8319588D02*
X15626588Y-8252412D01*
X15559412Y-8252412D01*
X15559412Y-8319588D01*
X15626588Y-8319588D01*
X15626588Y-8569588D02*
X15626588Y-8502412D01*
X15559412Y-8502412D01*
X15559412Y-8569588D01*
X15626588Y-8569588D01*
X15626588Y-8769588D02*
X15626588Y-8702412D01*
X15559412Y-8702412D01*
X15559412Y-8769588D01*
X15626588Y-8769588D01*
X15626588Y-9019588D02*
X15626588Y-8952412D01*
X15559412Y-8952412D01*
X15559412Y-9019588D01*
X15626588Y-9019588D01*
D16*
X14541500Y-10400500D02*
X14591500Y-10350500D01*
X14541500Y-10300500D01*
X14491500Y-10350500D01*
X14541500Y-10400500D01*
X14795500Y-10400500D02*
X14845500Y-10350500D01*
X14795500Y-10300500D01*
X14745500Y-10350500D01*
X14795500Y-10400500D01*
X14986000Y-6971500D02*
X15036000Y-6921500D01*
X14986000Y-6871500D01*
X14936000Y-6921500D01*
X14986000Y-6971500D01*
X15049500Y-10400500D02*
X15099500Y-10350500D01*
X15049500Y-10300500D01*
X14999500Y-10350500D01*
X15049500Y-10400500D01*
X15240000Y-6971500D02*
X15290000Y-6921500D01*
X15240000Y-6871500D01*
X15190000Y-6921500D01*
X15240000Y-6971500D01*
X15303500Y-10400500D02*
X15353500Y-10350500D01*
X15303500Y-10300500D01*
X15253500Y-10350500D01*
X15303500Y-10400500D01*
X15494000Y-6971500D02*
X15544000Y-6921500D01*
X15494000Y-6871500D01*
X15444000Y-6921500D01*
X15494000Y-6971500D01*
X15557500Y-10400500D02*
X15607500Y-10350500D01*
X15557500Y-10300500D01*
X15507500Y-10350500D01*
X15557500Y-10400500D01*
X15748000Y-6971500D02*
X15798000Y-6921500D01*
X15748000Y-6871500D01*
X15698000Y-6921500D01*
X15748000Y-6971500D01*
X15811500Y-10400500D02*
X15861500Y-10350500D01*
X15811500Y-10300500D01*
X15761500Y-10350500D01*
X15811500Y-10400500D01*
D17*
X11502000Y-10192000D02*
X11612000Y-10302000D01*
X11612000Y-10192000D02*
X11502000Y-10302000D01*
X11612000Y-10247000D02*
G75*
G03*
X11612000Y-10247000I-55000J0D01*
G01*
X11756000Y-10192000D02*
X11866000Y-10302000D01*
X11866000Y-10192000D02*
X11756000Y-10302000D01*
X11866000Y-10247000D02*
G75*
G03*
X11866000Y-10247000I-55000J0D01*
G01*
X12010000Y-10192000D02*
X12120000Y-10302000D01*
X12120000Y-10192000D02*
X12010000Y-10302000D01*
X12120000Y-10247000D02*
G75*
G03*
X12120000Y-10247000I-55000J0D01*
G01*
X12249000Y-7501500D02*
X12359000Y-7611500D01*
X12359000Y-7501500D02*
X12249000Y-7611500D01*
X12359000Y-7556500D02*
G75*
G03*
X12359000Y-7556500I-55000J0D01*
G01*
X12249000Y-7951500D02*
X12359000Y-8061500D01*
X12359000Y-7951500D02*
X12249000Y-8061500D01*
X12359000Y-8006500D02*
G75*
G03*
X12359000Y-8006500I-55000J0D01*
G01*
X12899000Y-7501500D02*
X13009000Y-7611500D01*
X13009000Y-7501500D02*
X12899000Y-7611500D01*
X13009000Y-7556500D02*
G75*
G03*
X13009000Y-7556500I-55000J0D01*
G01*
X12899000Y-7951500D02*
X13009000Y-8061500D01*
X13009000Y-7951500D02*
X12899000Y-8061500D01*
X13009000Y-8006500D02*
G75*
G03*
X13009000Y-8006500I-55000J0D01*
G01*
D18*
X15749000Y-7864000D02*
X15979000Y-8094000D01*
X15979000Y-7864000D02*
X15749000Y-8094000D01*
X15864000Y-7864000D02*
X15864000Y-8094000D01*
X15749000Y-7979000D02*
X15979000Y-7979000D01*
X15749000Y-9178000D02*
X15979000Y-9408000D01*
X15979000Y-9178000D02*
X15749000Y-9408000D01*
X15864000Y-9178000D02*
X15864000Y-9408000D01*
X15749000Y-9293000D02*
X15979000Y-9293000D01*
D11*
X10793619Y-10983476D02*
X10793619Y-10783476D01*
X10841238Y-10783476D01*
X10869810Y-10793000D01*
X10888857Y-10812048D01*
X10898381Y-10831095D01*
X10907905Y-10869190D01*
X10907905Y-10897762D01*
X10898381Y-10935857D01*
X10888857Y-10954905D01*
X10869810Y-10973952D01*
X10841238Y-10983476D01*
X10793619Y-10983476D01*
X10993619Y-10983476D02*
X10993619Y-10850143D01*
X10993619Y-10888238D02*
X11003143Y-10869190D01*
X11012667Y-10859667D01*
X11031714Y-10850143D01*
X11050762Y-10850143D01*
X11117429Y-10983476D02*
X11117429Y-10850143D01*
X11117429Y-10783476D02*
X11107905Y-10793000D01*
X11117429Y-10802524D01*
X11126952Y-10793000D01*
X11117429Y-10783476D01*
X11117429Y-10802524D01*
X11241238Y-10983476D02*
X11222190Y-10973952D01*
X11212667Y-10954905D01*
X11212667Y-10783476D01*
X11346000Y-10983476D02*
X11326952Y-10973952D01*
X11317428Y-10954905D01*
X11317428Y-10783476D01*
X11574571Y-10983476D02*
X11574571Y-10783476D01*
X11641238Y-10926333D01*
X11707905Y-10783476D01*
X11707905Y-10983476D01*
X11888857Y-10983476D02*
X11888857Y-10878714D01*
X11879333Y-10859667D01*
X11860286Y-10850143D01*
X11822190Y-10850143D01*
X11803143Y-10859667D01*
X11888857Y-10973952D02*
X11869809Y-10983476D01*
X11822190Y-10983476D01*
X11803143Y-10973952D01*
X11793619Y-10954905D01*
X11793619Y-10935857D01*
X11803143Y-10916810D01*
X11822190Y-10907286D01*
X11869809Y-10907286D01*
X11888857Y-10897762D01*
X11984095Y-10850143D02*
X11984095Y-11050143D01*
X11984095Y-10859667D02*
X12003143Y-10850143D01*
X12041238Y-10850143D01*
X12060286Y-10859667D01*
X12069809Y-10869190D01*
X12079333Y-10888238D01*
X12079333Y-10945381D01*
X12069809Y-10964429D01*
X12060286Y-10973952D01*
X12041238Y-10983476D01*
X12003143Y-10983476D01*
X11984095Y-10973952D01*
X12165048Y-10964429D02*
X12174571Y-10973952D01*
X12165048Y-10983476D01*
X12155524Y-10973952D01*
X12165048Y-10964429D01*
X12165048Y-10983476D01*
X12165048Y-10859667D02*
X12174571Y-10869190D01*
X12165048Y-10878714D01*
X12155524Y-10869190D01*
X12165048Y-10859667D01*
X12165048Y-10878714D01*
D12*
X10496000Y-11293000D02*
X10536000Y-11333000D01*
X10536000Y-11293000D02*
X10496000Y-11333000D01*
D11*
X10831714Y-11203476D02*
X10850762Y-11203476D01*
X10869810Y-11213000D01*
X10879333Y-11222524D01*
X10888857Y-11241571D01*
X10898381Y-11279667D01*
X10898381Y-11327286D01*
X10888857Y-11365381D01*
X10879333Y-11384428D01*
X10869810Y-11393952D01*
X10850762Y-11403476D01*
X10831714Y-11403476D01*
X10812667Y-11393952D01*
X10803143Y-11384428D01*
X10793619Y-11365381D01*
X10784095Y-11327286D01*
X10784095Y-11279667D01*
X10793619Y-11241571D01*
X10803143Y-11222524D01*
X10812667Y-11213000D01*
X10831714Y-11203476D01*
X10984095Y-11384428D02*
X10993619Y-11393952D01*
X10984095Y-11403476D01*
X10974571Y-11393952D01*
X10984095Y-11384428D01*
X10984095Y-11403476D01*
X11165048Y-11270143D02*
X11165048Y-11403476D01*
X11117429Y-11193952D02*
X11069810Y-11336809D01*
X11193619Y-11336809D01*
X11307905Y-11203476D02*
X11326952Y-11203476D01*
X11346000Y-11213000D01*
X11355524Y-11222524D01*
X11365048Y-11241571D01*
X11374571Y-11279667D01*
X11374571Y-11327286D01*
X11365048Y-11365381D01*
X11355524Y-11384428D01*
X11346000Y-11393952D01*
X11326952Y-11403476D01*
X11307905Y-11403476D01*
X11288857Y-11393952D01*
X11279333Y-11384428D01*
X11269809Y-11365381D01*
X11260286Y-11327286D01*
X11260286Y-11279667D01*
X11269809Y-11241571D01*
X11279333Y-11222524D01*
X11288857Y-11213000D01*
X11307905Y-11203476D01*
X11498381Y-11203476D02*
X11517428Y-11203476D01*
X11536476Y-11213000D01*
X11546000Y-11222524D01*
X11555524Y-11241571D01*
X11565048Y-11279667D01*
X11565048Y-11327286D01*
X11555524Y-11365381D01*
X11546000Y-11384428D01*
X11536476Y-11393952D01*
X11517428Y-11403476D01*
X11498381Y-11403476D01*
X11479333Y-11393952D01*
X11469809Y-11384428D01*
X11460286Y-11365381D01*
X11450762Y-11327286D01*
X11450762Y-11279667D01*
X11460286Y-11241571D01*
X11469809Y-11222524D01*
X11479333Y-11213000D01*
X11498381Y-11203476D01*
X11650762Y-11403476D02*
X11650762Y-11270143D01*
X11650762Y-11289190D02*
X11660286Y-11279667D01*
X11679333Y-11270143D01*
X11707905Y-11270143D01*
X11726952Y-11279667D01*
X11736476Y-11298714D01*
X11736476Y-11403476D01*
X11736476Y-11298714D02*
X11746000Y-11279667D01*
X11765048Y-11270143D01*
X11793619Y-11270143D01*
X11812667Y-11279667D01*
X11822190Y-11298714D01*
X11822190Y-11403476D01*
X11917428Y-11403476D02*
X11917428Y-11270143D01*
X11917428Y-11289190D02*
X11926952Y-11279667D01*
X11946000Y-11270143D01*
X11974571Y-11270143D01*
X11993619Y-11279667D01*
X12003143Y-11298714D01*
X12003143Y-11403476D01*
X12003143Y-11298714D02*
X12012667Y-11279667D01*
X12031714Y-11270143D01*
X12060286Y-11270143D01*
X12079333Y-11279667D01*
X12088857Y-11298714D01*
X12088857Y-11403476D01*
X12479333Y-11193952D02*
X12307905Y-11451095D01*
X12736476Y-11203476D02*
X12755524Y-11203476D01*
X12774571Y-11213000D01*
X12784095Y-11222524D01*
X12793619Y-11241571D01*
X12803143Y-11279667D01*
X12803143Y-11327286D01*
X12793619Y-11365381D01*
X12784095Y-11384428D01*
X12774571Y-11393952D01*
X12755524Y-11403476D01*
X12736476Y-11403476D01*
X12717428Y-11393952D01*
X12707905Y-11384428D01*
X12698381Y-11365381D01*
X12688857Y-11327286D01*
X12688857Y-11279667D01*
X12698381Y-11241571D01*
X12707905Y-11222524D01*
X12717428Y-11213000D01*
X12736476Y-11203476D01*
X12888857Y-11384428D02*
X12898381Y-11393952D01*
X12888857Y-11403476D01*
X12879333Y-11393952D01*
X12888857Y-11384428D01*
X12888857Y-11403476D01*
X13022190Y-11203476D02*
X13041238Y-11203476D01*
X13060286Y-11213000D01*
X13069809Y-11222524D01*
X13079333Y-11241571D01*
X13088857Y-11279667D01*
X13088857Y-11327286D01*
X13079333Y-11365381D01*
X13069809Y-11384428D01*
X13060286Y-11393952D01*
X13041238Y-11403476D01*
X13022190Y-11403476D01*
X13003143Y-11393952D01*
X12993619Y-11384428D01*
X12984095Y-11365381D01*
X12974571Y-11327286D01*
X12974571Y-11279667D01*
X12984095Y-11241571D01*
X12993619Y-11222524D01*
X13003143Y-11213000D01*
X13022190Y-11203476D01*
X13279333Y-11403476D02*
X13165048Y-11403476D01*
X13222190Y-11403476D02*
X13222190Y-11203476D01*
X13203143Y-11232048D01*
X13184095Y-11251095D01*
X13165048Y-11260619D01*
X13460286Y-11203476D02*
X13365048Y-11203476D01*
X13355524Y-11298714D01*
X13365048Y-11289190D01*
X13384095Y-11279667D01*
X13431714Y-11279667D01*
X13450762Y-11289190D01*
X13460286Y-11298714D01*
X13469809Y-11317762D01*
X13469809Y-11365381D01*
X13460286Y-11384428D01*
X13450762Y-11393952D01*
X13431714Y-11403476D01*
X13384095Y-11403476D01*
X13365048Y-11393952D01*
X13355524Y-11384428D01*
X13536476Y-11203476D02*
X13669809Y-11203476D01*
X13584095Y-11403476D01*
X13736476Y-11203476D02*
X13736476Y-11241571D01*
X13812667Y-11203476D02*
X13812667Y-11241571D01*
X14107905Y-11479667D02*
X14098381Y-11470143D01*
X14079333Y-11441571D01*
X14069809Y-11422524D01*
X14060286Y-11393952D01*
X14050762Y-11346333D01*
X14050762Y-11308238D01*
X14060286Y-11260619D01*
X14069809Y-11232048D01*
X14079333Y-11213000D01*
X14098381Y-11184429D01*
X14107905Y-11174905D01*
X14288857Y-11403476D02*
X14174571Y-11403476D01*
X14231714Y-11403476D02*
X14231714Y-11203476D01*
X14212667Y-11232048D01*
X14193619Y-11251095D01*
X14174571Y-11260619D01*
X14479333Y-11403476D02*
X14365048Y-11403476D01*
X14422190Y-11403476D02*
X14422190Y-11203476D01*
X14403143Y-11232048D01*
X14384095Y-11251095D01*
X14365048Y-11260619D01*
X14717428Y-11403476D02*
X14717428Y-11203476D01*
X14803143Y-11403476D02*
X14803143Y-11298714D01*
X14793619Y-11279667D01*
X14774571Y-11270143D01*
X14746000Y-11270143D01*
X14726952Y-11279667D01*
X14717428Y-11289190D01*
X14926952Y-11403476D02*
X14907905Y-11393952D01*
X14898381Y-11384428D01*
X14888857Y-11365381D01*
X14888857Y-11308238D01*
X14898381Y-11289190D01*
X14907905Y-11279667D01*
X14926952Y-11270143D01*
X14955524Y-11270143D01*
X14974571Y-11279667D01*
X14984095Y-11289190D01*
X14993619Y-11308238D01*
X14993619Y-11365381D01*
X14984095Y-11384428D01*
X14974571Y-11393952D01*
X14955524Y-11403476D01*
X14926952Y-11403476D01*
X15107905Y-11403476D02*
X15088857Y-11393952D01*
X15079333Y-11374905D01*
X15079333Y-11203476D01*
X15260286Y-11393952D02*
X15241238Y-11403476D01*
X15203143Y-11403476D01*
X15184095Y-11393952D01*
X15174571Y-11374905D01*
X15174571Y-11298714D01*
X15184095Y-11279667D01*
X15203143Y-11270143D01*
X15241238Y-11270143D01*
X15260286Y-11279667D01*
X15269809Y-11298714D01*
X15269809Y-11317762D01*
X15174571Y-11336809D01*
X15346000Y-11393952D02*
X15365048Y-11403476D01*
X15403143Y-11403476D01*
X15422190Y-11393952D01*
X15431714Y-11374905D01*
X15431714Y-11365381D01*
X15422190Y-11346333D01*
X15403143Y-11336809D01*
X15374571Y-11336809D01*
X15355524Y-11327286D01*
X15346000Y-11308238D01*
X15346000Y-11298714D01*
X15355524Y-11279667D01*
X15374571Y-11270143D01*
X15403143Y-11270143D01*
X15422190Y-11279667D01*
X15498381Y-11479667D02*
X15507905Y-11470143D01*
X15526952Y-11441571D01*
X15536476Y-11422524D01*
X15546000Y-11393952D01*
X15555524Y-11346333D01*
X15555524Y-11308238D01*
X15546000Y-11260619D01*
X15536476Y-11232048D01*
X15526952Y-11213000D01*
X15507905Y-11184429D01*
X15498381Y-11174905D01*
D13*
X10536000Y-11577000D02*
G75*
G03*
X10536000Y-11577000I-40000J0D01*
G01*
D11*
X10831714Y-11467476D02*
X10850762Y-11467476D01*
X10869810Y-11477000D01*
X10879333Y-11486524D01*
X10888857Y-11505571D01*
X10898381Y-11543667D01*
X10898381Y-11591286D01*
X10888857Y-11629381D01*
X10879333Y-11648428D01*
X10869810Y-11657952D01*
X10850762Y-11667476D01*
X10831714Y-11667476D01*
X10812667Y-11657952D01*
X10803143Y-11648428D01*
X10793619Y-11629381D01*
X10784095Y-11591286D01*
X10784095Y-11543667D01*
X10793619Y-11505571D01*
X10803143Y-11486524D01*
X10812667Y-11477000D01*
X10831714Y-11467476D01*
X10984095Y-11648428D02*
X10993619Y-11657952D01*
X10984095Y-11667476D01*
X10974571Y-11657952D01*
X10984095Y-11648428D01*
X10984095Y-11667476D01*
X11107905Y-11553190D02*
X11088857Y-11543667D01*
X11079333Y-11534143D01*
X11069810Y-11515095D01*
X11069810Y-11505571D01*
X11079333Y-11486524D01*
X11088857Y-11477000D01*
X11107905Y-11467476D01*
X11146000Y-11467476D01*
X11165048Y-11477000D01*
X11174571Y-11486524D01*
X11184095Y-11505571D01*
X11184095Y-11515095D01*
X11174571Y-11534143D01*
X11165048Y-11543667D01*
X11146000Y-11553190D01*
X11107905Y-11553190D01*
X11088857Y-11562714D01*
X11079333Y-11572238D01*
X11069810Y-11591286D01*
X11069810Y-11629381D01*
X11079333Y-11648428D01*
X11088857Y-11657952D01*
X11107905Y-11667476D01*
X11146000Y-11667476D01*
X11165048Y-11657952D01*
X11174571Y-11648428D01*
X11184095Y-11629381D01*
X11184095Y-11591286D01*
X11174571Y-11572238D01*
X11165048Y-11562714D01*
X11146000Y-11553190D01*
X11307905Y-11467476D02*
X11326952Y-11467476D01*
X11346000Y-11477000D01*
X11355524Y-11486524D01*
X11365048Y-11505571D01*
X11374571Y-11543667D01*
X11374571Y-11591286D01*
X11365048Y-11629381D01*
X11355524Y-11648428D01*
X11346000Y-11657952D01*
X11326952Y-11667476D01*
X11307905Y-11667476D01*
X11288857Y-11657952D01*
X11279333Y-11648428D01*
X11269809Y-11629381D01*
X11260286Y-11591286D01*
X11260286Y-11543667D01*
X11269809Y-11505571D01*
X11279333Y-11486524D01*
X11288857Y-11477000D01*
X11307905Y-11467476D01*
X11498381Y-11467476D02*
X11517428Y-11467476D01*
X11536476Y-11477000D01*
X11546000Y-11486524D01*
X11555524Y-11505571D01*
X11565048Y-11543667D01*
X11565048Y-11591286D01*
X11555524Y-11629381D01*
X11546000Y-11648428D01*
X11536476Y-11657952D01*
X11517428Y-11667476D01*
X11498381Y-11667476D01*
X11479333Y-11657952D01*
X11469809Y-11648428D01*
X11460286Y-11629381D01*
X11450762Y-11591286D01*
X11450762Y-11543667D01*
X11460286Y-11505571D01*
X11469809Y-11486524D01*
X11479333Y-11477000D01*
X11498381Y-11467476D01*
X11650762Y-11667476D02*
X11650762Y-11534143D01*
X11650762Y-11553190D02*
X11660286Y-11543667D01*
X11679333Y-11534143D01*
X11707905Y-11534143D01*
X11726952Y-11543667D01*
X11736476Y-11562714D01*
X11736476Y-11667476D01*
X11736476Y-11562714D02*
X11746000Y-11543667D01*
X11765048Y-11534143D01*
X11793619Y-11534143D01*
X11812667Y-11543667D01*
X11822190Y-11562714D01*
X11822190Y-11667476D01*
X11917428Y-11667476D02*
X11917428Y-11534143D01*
X11917428Y-11553190D02*
X11926952Y-11543667D01*
X11946000Y-11534143D01*
X11974571Y-11534143D01*
X11993619Y-11543667D01*
X12003143Y-11562714D01*
X12003143Y-11667476D01*
X12003143Y-11562714D02*
X12012667Y-11543667D01*
X12031714Y-11534143D01*
X12060286Y-11534143D01*
X12079333Y-11543667D01*
X12088857Y-11562714D01*
X12088857Y-11667476D01*
X12479333Y-11457952D02*
X12307905Y-11715095D01*
X12736476Y-11467476D02*
X12755524Y-11467476D01*
X12774571Y-11477000D01*
X12784095Y-11486524D01*
X12793619Y-11505571D01*
X12803143Y-11543667D01*
X12803143Y-11591286D01*
X12793619Y-11629381D01*
X12784095Y-11648428D01*
X12774571Y-11657952D01*
X12755524Y-11667476D01*
X12736476Y-11667476D01*
X12717428Y-11657952D01*
X12707905Y-11648428D01*
X12698381Y-11629381D01*
X12688857Y-11591286D01*
X12688857Y-11543667D01*
X12698381Y-11505571D01*
X12707905Y-11486524D01*
X12717428Y-11477000D01*
X12736476Y-11467476D01*
X12888857Y-11648428D02*
X12898381Y-11657952D01*
X12888857Y-11667476D01*
X12879333Y-11657952D01*
X12888857Y-11648428D01*
X12888857Y-11667476D01*
X13022190Y-11467476D02*
X13041238Y-11467476D01*
X13060286Y-11477000D01*
X13069809Y-11486524D01*
X13079333Y-11505571D01*
X13088857Y-11543667D01*
X13088857Y-11591286D01*
X13079333Y-11629381D01*
X13069809Y-11648428D01*
X13060286Y-11657952D01*
X13041238Y-11667476D01*
X13022190Y-11667476D01*
X13003143Y-11657952D01*
X12993619Y-11648428D01*
X12984095Y-11629381D01*
X12974571Y-11591286D01*
X12974571Y-11543667D01*
X12984095Y-11505571D01*
X12993619Y-11486524D01*
X13003143Y-11477000D01*
X13022190Y-11467476D01*
X13155524Y-11467476D02*
X13279333Y-11467476D01*
X13212667Y-11543667D01*
X13241238Y-11543667D01*
X13260286Y-11553190D01*
X13269809Y-11562714D01*
X13279333Y-11581762D01*
X13279333Y-11629381D01*
X13269809Y-11648428D01*
X13260286Y-11657952D01*
X13241238Y-11667476D01*
X13184095Y-11667476D01*
X13165048Y-11657952D01*
X13155524Y-11648428D01*
X13469809Y-11667476D02*
X13355524Y-11667476D01*
X13412667Y-11667476D02*
X13412667Y-11467476D01*
X13393619Y-11496048D01*
X13374571Y-11515095D01*
X13355524Y-11524619D01*
X13650762Y-11467476D02*
X13555524Y-11467476D01*
X13546000Y-11562714D01*
X13555524Y-11553190D01*
X13574571Y-11543667D01*
X13622190Y-11543667D01*
X13641238Y-11553190D01*
X13650762Y-11562714D01*
X13660286Y-11581762D01*
X13660286Y-11629381D01*
X13650762Y-11648428D01*
X13641238Y-11657952D01*
X13622190Y-11667476D01*
X13574571Y-11667476D01*
X13555524Y-11657952D01*
X13546000Y-11648428D01*
X13736476Y-11467476D02*
X13736476Y-11505571D01*
X13812667Y-11467476D02*
X13812667Y-11505571D01*
X14107905Y-11743667D02*
X14098381Y-11734143D01*
X14079333Y-11705571D01*
X14069809Y-11686524D01*
X14060286Y-11657952D01*
X14050762Y-11610333D01*
X14050762Y-11572238D01*
X14060286Y-11524619D01*
X14069809Y-11496048D01*
X14079333Y-11477000D01*
X14098381Y-11448428D01*
X14107905Y-11438905D01*
X14165048Y-11467476D02*
X14298381Y-11467476D01*
X14212667Y-11667476D01*
X14365048Y-11486524D02*
X14374571Y-11477000D01*
X14393619Y-11467476D01*
X14441238Y-11467476D01*
X14460286Y-11477000D01*
X14469809Y-11486524D01*
X14479333Y-11505571D01*
X14479333Y-11524619D01*
X14469809Y-11553190D01*
X14355524Y-11667476D01*
X14479333Y-11667476D01*
X14717428Y-11667476D02*
X14717428Y-11467476D01*
X14803143Y-11667476D02*
X14803143Y-11562714D01*
X14793619Y-11543667D01*
X14774571Y-11534143D01*
X14746000Y-11534143D01*
X14726952Y-11543667D01*
X14717428Y-11553190D01*
X14926952Y-11667476D02*
X14907905Y-11657952D01*
X14898381Y-11648428D01*
X14888857Y-11629381D01*
X14888857Y-11572238D01*
X14898381Y-11553190D01*
X14907905Y-11543667D01*
X14926952Y-11534143D01*
X14955524Y-11534143D01*
X14974571Y-11543667D01*
X14984095Y-11553190D01*
X14993619Y-11572238D01*
X14993619Y-11629381D01*
X14984095Y-11648428D01*
X14974571Y-11657952D01*
X14955524Y-11667476D01*
X14926952Y-11667476D01*
X15107905Y-11667476D02*
X15088857Y-11657952D01*
X15079333Y-11638905D01*
X15079333Y-11467476D01*
X15260286Y-11657952D02*
X15241238Y-11667476D01*
X15203143Y-11667476D01*
X15184095Y-11657952D01*
X15174571Y-11638905D01*
X15174571Y-11562714D01*
X15184095Y-11543667D01*
X15203143Y-11534143D01*
X15241238Y-11534143D01*
X15260286Y-11543667D01*
X15269809Y-11562714D01*
X15269809Y-11581762D01*
X15174571Y-11600809D01*
X15346000Y-11657952D02*
X15365048Y-11667476D01*
X15403143Y-11667476D01*
X15422190Y-11657952D01*
X15431714Y-11638905D01*
X15431714Y-11629381D01*
X15422190Y-11610333D01*
X15403143Y-11600809D01*
X15374571Y-11600809D01*
X15355524Y-11591286D01*
X15346000Y-11572238D01*
X15346000Y-11562714D01*
X15355524Y-11543667D01*
X15374571Y-11534143D01*
X15403143Y-11534143D01*
X15422190Y-11543667D01*
X15498381Y-11743667D02*
X15507905Y-11734143D01*
X15526952Y-11705571D01*
X15536476Y-11686524D01*
X15546000Y-11657952D01*
X15555524Y-11610333D01*
X15555524Y-11572238D01*
X15546000Y-11524619D01*
X15536476Y-11496048D01*
X15526952Y-11477000D01*
X15507905Y-11448428D01*
X15498381Y-11438905D01*
D14*
X10491000Y-11796000D02*
X10491000Y-11886000D01*
X10446000Y-11841000D02*
X10536000Y-11841000D01*
D11*
X10831714Y-11731476D02*
X10850762Y-11731476D01*
X10869810Y-11741000D01*
X10879333Y-11750524D01*
X10888857Y-11769571D01*
X10898381Y-11807667D01*
X10898381Y-11855286D01*
X10888857Y-11893381D01*
X10879333Y-11912428D01*
X10869810Y-11921952D01*
X10850762Y-11931476D01*
X10831714Y-11931476D01*
X10812667Y-11921952D01*
X10803143Y-11912428D01*
X10793619Y-11893381D01*
X10784095Y-11855286D01*
X10784095Y-11807667D01*
X10793619Y-11769571D01*
X10803143Y-11750524D01*
X10812667Y-11741000D01*
X10831714Y-11731476D01*
X10984095Y-11912428D02*
X10993619Y-11921952D01*
X10984095Y-11931476D01*
X10974571Y-11921952D01*
X10984095Y-11912428D01*
X10984095Y-11931476D01*
X11088857Y-11931476D02*
X11126952Y-11931476D01*
X11146000Y-11921952D01*
X11155524Y-11912428D01*
X11174571Y-11883857D01*
X11184095Y-11845762D01*
X11184095Y-11769571D01*
X11174571Y-11750524D01*
X11165048Y-11741000D01*
X11146000Y-11731476D01*
X11107905Y-11731476D01*
X11088857Y-11741000D01*
X11079333Y-11750524D01*
X11069810Y-11769571D01*
X11069810Y-11817190D01*
X11079333Y-11836238D01*
X11088857Y-11845762D01*
X11107905Y-11855286D01*
X11146000Y-11855286D01*
X11165048Y-11845762D01*
X11174571Y-11836238D01*
X11184095Y-11817190D01*
X11307905Y-11731476D02*
X11326952Y-11731476D01*
X11346000Y-11741000D01*
X11355524Y-11750524D01*
X11365048Y-11769571D01*
X11374571Y-11807667D01*
X11374571Y-11855286D01*
X11365048Y-11893381D01*
X11355524Y-11912428D01*
X11346000Y-11921952D01*
X11326952Y-11931476D01*
X11307905Y-11931476D01*
X11288857Y-11921952D01*
X11279333Y-11912428D01*
X11269809Y-11893381D01*
X11260286Y-11855286D01*
X11260286Y-11807667D01*
X11269809Y-11769571D01*
X11279333Y-11750524D01*
X11288857Y-11741000D01*
X11307905Y-11731476D01*
X11498381Y-11731476D02*
X11517428Y-11731476D01*
X11536476Y-11741000D01*
X11546000Y-11750524D01*
X11555524Y-11769571D01*
X11565048Y-11807667D01*
X11565048Y-11855286D01*
X11555524Y-11893381D01*
X11546000Y-11912428D01*
X11536476Y-11921952D01*
X11517428Y-11931476D01*
X11498381Y-11931476D01*
X11479333Y-11921952D01*
X11469809Y-11912428D01*
X11460286Y-11893381D01*
X11450762Y-11855286D01*
X11450762Y-11807667D01*
X11460286Y-11769571D01*
X11469809Y-11750524D01*
X11479333Y-11741000D01*
X11498381Y-11731476D01*
X11650762Y-11931476D02*
X11650762Y-11798143D01*
X11650762Y-11817190D02*
X11660286Y-11807667D01*
X11679333Y-11798143D01*
X11707905Y-11798143D01*
X11726952Y-11807667D01*
X11736476Y-11826714D01*
X11736476Y-11931476D01*
X11736476Y-11826714D02*
X11746000Y-11807667D01*
X11765048Y-11798143D01*
X11793619Y-11798143D01*
X11812667Y-11807667D01*
X11822190Y-11826714D01*
X11822190Y-11931476D01*
X11917428Y-11931476D02*
X11917428Y-11798143D01*
X11917428Y-11817190D02*
X11926952Y-11807667D01*
X11946000Y-11798143D01*
X11974571Y-11798143D01*
X11993619Y-11807667D01*
X12003143Y-11826714D01*
X12003143Y-11931476D01*
X12003143Y-11826714D02*
X12012667Y-11807667D01*
X12031714Y-11798143D01*
X12060286Y-11798143D01*
X12079333Y-11807667D01*
X12088857Y-11826714D01*
X12088857Y-11931476D01*
X12479333Y-11721952D02*
X12307905Y-11979095D01*
X12736476Y-11731476D02*
X12755524Y-11731476D01*
X12774571Y-11741000D01*
X12784095Y-11750524D01*
X12793619Y-11769571D01*
X12803143Y-11807667D01*
X12803143Y-11855286D01*
X12793619Y-11893381D01*
X12784095Y-11912428D01*
X12774571Y-11921952D01*
X12755524Y-11931476D01*
X12736476Y-11931476D01*
X12717428Y-11921952D01*
X12707905Y-11912428D01*
X12698381Y-11893381D01*
X12688857Y-11855286D01*
X12688857Y-11807667D01*
X12698381Y-11769571D01*
X12707905Y-11750524D01*
X12717428Y-11741000D01*
X12736476Y-11731476D01*
X12888857Y-11912428D02*
X12898381Y-11921952D01*
X12888857Y-11931476D01*
X12879333Y-11921952D01*
X12888857Y-11912428D01*
X12888857Y-11931476D01*
X13022190Y-11731476D02*
X13041238Y-11731476D01*
X13060286Y-11741000D01*
X13069809Y-11750524D01*
X13079333Y-11769571D01*
X13088857Y-11807667D01*
X13088857Y-11855286D01*
X13079333Y-11893381D01*
X13069809Y-11912428D01*
X13060286Y-11921952D01*
X13041238Y-11931476D01*
X13022190Y-11931476D01*
X13003143Y-11921952D01*
X12993619Y-11912428D01*
X12984095Y-11893381D01*
X12974571Y-11855286D01*
X12974571Y-11807667D01*
X12984095Y-11769571D01*
X12993619Y-11750524D01*
X13003143Y-11741000D01*
X13022190Y-11731476D01*
X13155524Y-11731476D02*
X13279333Y-11731476D01*
X13212667Y-11807667D01*
X13241238Y-11807667D01*
X13260286Y-11817190D01*
X13269809Y-11826714D01*
X13279333Y-11845762D01*
X13279333Y-11893381D01*
X13269809Y-11912428D01*
X13260286Y-11921952D01*
X13241238Y-11931476D01*
X13184095Y-11931476D01*
X13165048Y-11921952D01*
X13155524Y-11912428D01*
X13460286Y-11731476D02*
X13365048Y-11731476D01*
X13355524Y-11826714D01*
X13365048Y-11817190D01*
X13384095Y-11807667D01*
X13431714Y-11807667D01*
X13450762Y-11817190D01*
X13460286Y-11826714D01*
X13469809Y-11845762D01*
X13469809Y-11893381D01*
X13460286Y-11912428D01*
X13450762Y-11921952D01*
X13431714Y-11931476D01*
X13384095Y-11931476D01*
X13365048Y-11921952D01*
X13355524Y-11912428D01*
X13641238Y-11798143D02*
X13641238Y-11931476D01*
X13593619Y-11721952D02*
X13546000Y-11864809D01*
X13669809Y-11864809D01*
X13736476Y-11731476D02*
X13736476Y-11769571D01*
X13812667Y-11731476D02*
X13812667Y-11769571D01*
X14107905Y-12007667D02*
X14098381Y-11998143D01*
X14079333Y-11969571D01*
X14069809Y-11950524D01*
X14060286Y-11921952D01*
X14050762Y-11874333D01*
X14050762Y-11836238D01*
X14060286Y-11788619D01*
X14069809Y-11760048D01*
X14079333Y-11741000D01*
X14098381Y-11712428D01*
X14107905Y-11702905D01*
X14269809Y-11731476D02*
X14231714Y-11731476D01*
X14212667Y-11741000D01*
X14203143Y-11750524D01*
X14184095Y-11779095D01*
X14174571Y-11817190D01*
X14174571Y-11893381D01*
X14184095Y-11912428D01*
X14193619Y-11921952D01*
X14212667Y-11931476D01*
X14250762Y-11931476D01*
X14269809Y-11921952D01*
X14279333Y-11912428D01*
X14288857Y-11893381D01*
X14288857Y-11845762D01*
X14279333Y-11826714D01*
X14269809Y-11817190D01*
X14250762Y-11807667D01*
X14212667Y-11807667D01*
X14193619Y-11817190D01*
X14184095Y-11826714D01*
X14174571Y-11845762D01*
X14526952Y-11931476D02*
X14526952Y-11731476D01*
X14612667Y-11931476D02*
X14612667Y-11826714D01*
X14603143Y-11807667D01*
X14584095Y-11798143D01*
X14555524Y-11798143D01*
X14536476Y-11807667D01*
X14526952Y-11817190D01*
X14736476Y-11931476D02*
X14717428Y-11921952D01*
X14707905Y-11912428D01*
X14698381Y-11893381D01*
X14698381Y-11836238D01*
X14707905Y-11817190D01*
X14717428Y-11807667D01*
X14736476Y-11798143D01*
X14765048Y-11798143D01*
X14784095Y-11807667D01*
X14793619Y-11817190D01*
X14803143Y-11836238D01*
X14803143Y-11893381D01*
X14793619Y-11912428D01*
X14784095Y-11921952D01*
X14765048Y-11931476D01*
X14736476Y-11931476D01*
X14917428Y-11931476D02*
X14898381Y-11921952D01*
X14888857Y-11902905D01*
X14888857Y-11731476D01*
X15069809Y-11921952D02*
X15050762Y-11931476D01*
X15012667Y-11931476D01*
X14993619Y-11921952D01*
X14984095Y-11902905D01*
X14984095Y-11826714D01*
X14993619Y-11807667D01*
X15012667Y-11798143D01*
X15050762Y-11798143D01*
X15069809Y-11807667D01*
X15079333Y-11826714D01*
X15079333Y-11845762D01*
X14984095Y-11864809D01*
X15155524Y-11921952D02*
X15174571Y-11931476D01*
X15212667Y-11931476D01*
X15231714Y-11921952D01*
X15241238Y-11902905D01*
X15241238Y-11893381D01*
X15231714Y-11874333D01*
X15212667Y-11864809D01*
X15184095Y-11864809D01*
X15165048Y-11855286D01*
X15155524Y-11836238D01*
X15155524Y-11826714D01*
X15165048Y-11807667D01*
X15184095Y-11798143D01*
X15212667Y-11798143D01*
X15231714Y-11807667D01*
X15307905Y-12007667D02*
X15317428Y-11998143D01*
X15336476Y-11969571D01*
X15346000Y-11950524D01*
X15355524Y-11921952D01*
X15365048Y-11874333D01*
X15365048Y-11836238D01*
X15355524Y-11788619D01*
X15346000Y-11760048D01*
X15336476Y-11741000D01*
X15317428Y-11712428D01*
X15307905Y-11702905D01*
D15*
X10522088Y-12138588D02*
X10522088Y-12071412D01*
X10454912Y-12071412D01*
X10454912Y-12138588D01*
X10522088Y-12138588D01*
D11*
X10831714Y-11995476D02*
X10850762Y-11995476D01*
X10869810Y-12005000D01*
X10879333Y-12014524D01*
X10888857Y-12033571D01*
X10898381Y-12071667D01*
X10898381Y-12119286D01*
X10888857Y-12157381D01*
X10879333Y-12176428D01*
X10869810Y-12185952D01*
X10850762Y-12195476D01*
X10831714Y-12195476D01*
X10812667Y-12185952D01*
X10803143Y-12176428D01*
X10793619Y-12157381D01*
X10784095Y-12119286D01*
X10784095Y-12071667D01*
X10793619Y-12033571D01*
X10803143Y-12014524D01*
X10812667Y-12005000D01*
X10831714Y-11995476D01*
X10984095Y-12176428D02*
X10993619Y-12185952D01*
X10984095Y-12195476D01*
X10974571Y-12185952D01*
X10984095Y-12176428D01*
X10984095Y-12195476D01*
X11088857Y-12195476D02*
X11126952Y-12195476D01*
X11146000Y-12185952D01*
X11155524Y-12176428D01*
X11174571Y-12147857D01*
X11184095Y-12109762D01*
X11184095Y-12033571D01*
X11174571Y-12014524D01*
X11165048Y-12005000D01*
X11146000Y-11995476D01*
X11107905Y-11995476D01*
X11088857Y-12005000D01*
X11079333Y-12014524D01*
X11069810Y-12033571D01*
X11069810Y-12081190D01*
X11079333Y-12100238D01*
X11088857Y-12109762D01*
X11107905Y-12119286D01*
X11146000Y-12119286D01*
X11165048Y-12109762D01*
X11174571Y-12100238D01*
X11184095Y-12081190D01*
X11365048Y-11995476D02*
X11269809Y-11995476D01*
X11260286Y-12090714D01*
X11269809Y-12081190D01*
X11288857Y-12071667D01*
X11336476Y-12071667D01*
X11355524Y-12081190D01*
X11365048Y-12090714D01*
X11374571Y-12109762D01*
X11374571Y-12157381D01*
X11365048Y-12176428D01*
X11355524Y-12185952D01*
X11336476Y-12195476D01*
X11288857Y-12195476D01*
X11269809Y-12185952D01*
X11260286Y-12176428D01*
X11498381Y-11995476D02*
X11517428Y-11995476D01*
X11536476Y-12005000D01*
X11546000Y-12014524D01*
X11555524Y-12033571D01*
X11565048Y-12071667D01*
X11565048Y-12119286D01*
X11555524Y-12157381D01*
X11546000Y-12176428D01*
X11536476Y-12185952D01*
X11517428Y-12195476D01*
X11498381Y-12195476D01*
X11479333Y-12185952D01*
X11469809Y-12176428D01*
X11460286Y-12157381D01*
X11450762Y-12119286D01*
X11450762Y-12071667D01*
X11460286Y-12033571D01*
X11469809Y-12014524D01*
X11479333Y-12005000D01*
X11498381Y-11995476D01*
X11650762Y-12195476D02*
X11650762Y-12062143D01*
X11650762Y-12081190D02*
X11660286Y-12071667D01*
X11679333Y-12062143D01*
X11707905Y-12062143D01*
X11726952Y-12071667D01*
X11736476Y-12090714D01*
X11736476Y-12195476D01*
X11736476Y-12090714D02*
X11746000Y-12071667D01*
X11765048Y-12062143D01*
X11793619Y-12062143D01*
X11812667Y-12071667D01*
X11822190Y-12090714D01*
X11822190Y-12195476D01*
X11917428Y-12195476D02*
X11917428Y-12062143D01*
X11917428Y-12081190D02*
X11926952Y-12071667D01*
X11946000Y-12062143D01*
X11974571Y-12062143D01*
X11993619Y-12071667D01*
X12003143Y-12090714D01*
X12003143Y-12195476D01*
X12003143Y-12090714D02*
X12012667Y-12071667D01*
X12031714Y-12062143D01*
X12060286Y-12062143D01*
X12079333Y-12071667D01*
X12088857Y-12090714D01*
X12088857Y-12195476D01*
X12479333Y-11985952D02*
X12307905Y-12243095D01*
X12736476Y-11995476D02*
X12755524Y-11995476D01*
X12774571Y-12005000D01*
X12784095Y-12014524D01*
X12793619Y-12033571D01*
X12803143Y-12071667D01*
X12803143Y-12119286D01*
X12793619Y-12157381D01*
X12784095Y-12176428D01*
X12774571Y-12185952D01*
X12755524Y-12195476D01*
X12736476Y-12195476D01*
X12717428Y-12185952D01*
X12707905Y-12176428D01*
X12698381Y-12157381D01*
X12688857Y-12119286D01*
X12688857Y-12071667D01*
X12698381Y-12033571D01*
X12707905Y-12014524D01*
X12717428Y-12005000D01*
X12736476Y-11995476D01*
X12888857Y-12176428D02*
X12898381Y-12185952D01*
X12888857Y-12195476D01*
X12879333Y-12185952D01*
X12888857Y-12176428D01*
X12888857Y-12195476D01*
X13022190Y-11995476D02*
X13041238Y-11995476D01*
X13060286Y-12005000D01*
X13069809Y-12014524D01*
X13079333Y-12033571D01*
X13088857Y-12071667D01*
X13088857Y-12119286D01*
X13079333Y-12157381D01*
X13069809Y-12176428D01*
X13060286Y-12185952D01*
X13041238Y-12195476D01*
X13022190Y-12195476D01*
X13003143Y-12185952D01*
X12993619Y-12176428D01*
X12984095Y-12157381D01*
X12974571Y-12119286D01*
X12974571Y-12071667D01*
X12984095Y-12033571D01*
X12993619Y-12014524D01*
X13003143Y-12005000D01*
X13022190Y-11995476D01*
X13155524Y-11995476D02*
X13279333Y-11995476D01*
X13212667Y-12071667D01*
X13241238Y-12071667D01*
X13260286Y-12081190D01*
X13269809Y-12090714D01*
X13279333Y-12109762D01*
X13279333Y-12157381D01*
X13269809Y-12176428D01*
X13260286Y-12185952D01*
X13241238Y-12195476D01*
X13184095Y-12195476D01*
X13165048Y-12185952D01*
X13155524Y-12176428D01*
X13346000Y-11995476D02*
X13479333Y-11995476D01*
X13393619Y-12195476D01*
X13641238Y-12062143D02*
X13641238Y-12195476D01*
X13593619Y-11985952D02*
X13546000Y-12128809D01*
X13669809Y-12128809D01*
X13736476Y-11995476D02*
X13736476Y-12033571D01*
X13812667Y-11995476D02*
X13812667Y-12033571D01*
X14107905Y-12271667D02*
X14098381Y-12262143D01*
X14079333Y-12233571D01*
X14069809Y-12214524D01*
X14060286Y-12185952D01*
X14050762Y-12138333D01*
X14050762Y-12100238D01*
X14060286Y-12052619D01*
X14069809Y-12024048D01*
X14079333Y-12005000D01*
X14098381Y-11976428D01*
X14107905Y-11966905D01*
X14288857Y-12195476D02*
X14174571Y-12195476D01*
X14231714Y-12195476D02*
X14231714Y-11995476D01*
X14212667Y-12024048D01*
X14193619Y-12043095D01*
X14174571Y-12052619D01*
X14365048Y-12014524D02*
X14374571Y-12005000D01*
X14393619Y-11995476D01*
X14441238Y-11995476D01*
X14460286Y-12005000D01*
X14469809Y-12014524D01*
X14479333Y-12033571D01*
X14479333Y-12052619D01*
X14469809Y-12081190D01*
X14355524Y-12195476D01*
X14479333Y-12195476D01*
X14717428Y-12195476D02*
X14717428Y-11995476D01*
X14803143Y-12195476D02*
X14803143Y-12090714D01*
X14793619Y-12071667D01*
X14774571Y-12062143D01*
X14746000Y-12062143D01*
X14726952Y-12071667D01*
X14717428Y-12081190D01*
X14926952Y-12195476D02*
X14907905Y-12185952D01*
X14898381Y-12176428D01*
X14888857Y-12157381D01*
X14888857Y-12100238D01*
X14898381Y-12081190D01*
X14907905Y-12071667D01*
X14926952Y-12062143D01*
X14955524Y-12062143D01*
X14974571Y-12071667D01*
X14984095Y-12081190D01*
X14993619Y-12100238D01*
X14993619Y-12157381D01*
X14984095Y-12176428D01*
X14974571Y-12185952D01*
X14955524Y-12195476D01*
X14926952Y-12195476D01*
X15107905Y-12195476D02*
X15088857Y-12185952D01*
X15079333Y-12166905D01*
X15079333Y-11995476D01*
X15260286Y-12185952D02*
X15241238Y-12195476D01*
X15203143Y-12195476D01*
X15184095Y-12185952D01*
X15174571Y-12166905D01*
X15174571Y-12090714D01*
X15184095Y-12071667D01*
X15203143Y-12062143D01*
X15241238Y-12062143D01*
X15260286Y-12071667D01*
X15269809Y-12090714D01*
X15269809Y-12109762D01*
X15174571Y-12128809D01*
X15346000Y-12185952D02*
X15365048Y-12195476D01*
X15403143Y-12195476D01*
X15422190Y-12185952D01*
X15431714Y-12166905D01*
X15431714Y-12157381D01*
X15422190Y-12138333D01*
X15403143Y-12128809D01*
X15374571Y-12128809D01*
X15355524Y-12119286D01*
X15346000Y-12100238D01*
X15346000Y-12090714D01*
X15355524Y-12071667D01*
X15374571Y-12062143D01*
X15403143Y-12062143D01*
X15422190Y-12071667D01*
X15498381Y-12271667D02*
X15507905Y-12262143D01*
X15526952Y-12233571D01*
X15536476Y-12214524D01*
X15546000Y-12185952D01*
X15555524Y-12138333D01*
X15555524Y-12100238D01*
X15546000Y-12052619D01*
X15536476Y-12024048D01*
X15526952Y-12005000D01*
X15507905Y-11976428D01*
X15498381Y-11966905D01*
D16*
X10486000Y-12419000D02*
X10536000Y-12369000D01*
X10486000Y-12319000D01*
X10436000Y-12369000D01*
X10486000Y-12419000D01*
D11*
X10898381Y-12459476D02*
X10784095Y-12459476D01*
X10841238Y-12459476D02*
X10841238Y-12259476D01*
X10822190Y-12288048D01*
X10803143Y-12307095D01*
X10784095Y-12316619D01*
X10984095Y-12440428D02*
X10993619Y-12449952D01*
X10984095Y-12459476D01*
X10974571Y-12449952D01*
X10984095Y-12440428D01*
X10984095Y-12459476D01*
X11117429Y-12259476D02*
X11136476Y-12259476D01*
X11155524Y-12269000D01*
X11165048Y-12278524D01*
X11174571Y-12297571D01*
X11184095Y-12335667D01*
X11184095Y-12383286D01*
X11174571Y-12421381D01*
X11165048Y-12440428D01*
X11155524Y-12449952D01*
X11136476Y-12459476D01*
X11117429Y-12459476D01*
X11098381Y-12449952D01*
X11088857Y-12440428D01*
X11079333Y-12421381D01*
X11069810Y-12383286D01*
X11069810Y-12335667D01*
X11079333Y-12297571D01*
X11088857Y-12278524D01*
X11098381Y-12269000D01*
X11117429Y-12259476D01*
X11307905Y-12259476D02*
X11326952Y-12259476D01*
X11346000Y-12269000D01*
X11355524Y-12278524D01*
X11365048Y-12297571D01*
X11374571Y-12335667D01*
X11374571Y-12383286D01*
X11365048Y-12421381D01*
X11355524Y-12440428D01*
X11346000Y-12449952D01*
X11326952Y-12459476D01*
X11307905Y-12459476D01*
X11288857Y-12449952D01*
X11279333Y-12440428D01*
X11269809Y-12421381D01*
X11260286Y-12383286D01*
X11260286Y-12335667D01*
X11269809Y-12297571D01*
X11279333Y-12278524D01*
X11288857Y-12269000D01*
X11307905Y-12259476D01*
X11498381Y-12259476D02*
X11517428Y-12259476D01*
X11536476Y-12269000D01*
X11546000Y-12278524D01*
X11555524Y-12297571D01*
X11565048Y-12335667D01*
X11565048Y-12383286D01*
X11555524Y-12421381D01*
X11546000Y-12440428D01*
X11536476Y-12449952D01*
X11517428Y-12459476D01*
X11498381Y-12459476D01*
X11479333Y-12449952D01*
X11469809Y-12440428D01*
X11460286Y-12421381D01*
X11450762Y-12383286D01*
X11450762Y-12335667D01*
X11460286Y-12297571D01*
X11469809Y-12278524D01*
X11479333Y-12269000D01*
X11498381Y-12259476D01*
X11650762Y-12459476D02*
X11650762Y-12326143D01*
X11650762Y-12345190D02*
X11660286Y-12335667D01*
X11679333Y-12326143D01*
X11707905Y-12326143D01*
X11726952Y-12335667D01*
X11736476Y-12354714D01*
X11736476Y-12459476D01*
X11736476Y-12354714D02*
X11746000Y-12335667D01*
X11765048Y-12326143D01*
X11793619Y-12326143D01*
X11812667Y-12335667D01*
X11822190Y-12354714D01*
X11822190Y-12459476D01*
X11917428Y-12459476D02*
X11917428Y-12326143D01*
X11917428Y-12345190D02*
X11926952Y-12335667D01*
X11946000Y-12326143D01*
X11974571Y-12326143D01*
X11993619Y-12335667D01*
X12003143Y-12354714D01*
X12003143Y-12459476D01*
X12003143Y-12354714D02*
X12012667Y-12335667D01*
X12031714Y-12326143D01*
X12060286Y-12326143D01*
X12079333Y-12335667D01*
X12088857Y-12354714D01*
X12088857Y-12459476D01*
X12479333Y-12249952D02*
X12307905Y-12507095D01*
X12736476Y-12259476D02*
X12755524Y-12259476D01*
X12774571Y-12269000D01*
X12784095Y-12278524D01*
X12793619Y-12297571D01*
X12803143Y-12335667D01*
X12803143Y-12383286D01*
X12793619Y-12421381D01*
X12784095Y-12440428D01*
X12774571Y-12449952D01*
X12755524Y-12459476D01*
X12736476Y-12459476D01*
X12717428Y-12449952D01*
X12707905Y-12440428D01*
X12698381Y-12421381D01*
X12688857Y-12383286D01*
X12688857Y-12335667D01*
X12698381Y-12297571D01*
X12707905Y-12278524D01*
X12717428Y-12269000D01*
X12736476Y-12259476D01*
X12888857Y-12440428D02*
X12898381Y-12449952D01*
X12888857Y-12459476D01*
X12879333Y-12449952D01*
X12888857Y-12440428D01*
X12888857Y-12459476D01*
X13022190Y-12259476D02*
X13041238Y-12259476D01*
X13060286Y-12269000D01*
X13069809Y-12278524D01*
X13079333Y-12297571D01*
X13088857Y-12335667D01*
X13088857Y-12383286D01*
X13079333Y-12421381D01*
X13069809Y-12440428D01*
X13060286Y-12449952D01*
X13041238Y-12459476D01*
X13022190Y-12459476D01*
X13003143Y-12449952D01*
X12993619Y-12440428D01*
X12984095Y-12421381D01*
X12974571Y-12383286D01*
X12974571Y-12335667D01*
X12984095Y-12297571D01*
X12993619Y-12278524D01*
X13003143Y-12269000D01*
X13022190Y-12259476D01*
X13155524Y-12259476D02*
X13279333Y-12259476D01*
X13212667Y-12335667D01*
X13241238Y-12335667D01*
X13260286Y-12345190D01*
X13269809Y-12354714D01*
X13279333Y-12373762D01*
X13279333Y-12421381D01*
X13269809Y-12440428D01*
X13260286Y-12449952D01*
X13241238Y-12459476D01*
X13184095Y-12459476D01*
X13165048Y-12449952D01*
X13155524Y-12440428D01*
X13374571Y-12459476D02*
X13412667Y-12459476D01*
X13431714Y-12449952D01*
X13441238Y-12440428D01*
X13460286Y-12411857D01*
X13469809Y-12373762D01*
X13469809Y-12297571D01*
X13460286Y-12278524D01*
X13450762Y-12269000D01*
X13431714Y-12259476D01*
X13393619Y-12259476D01*
X13374571Y-12269000D01*
X13365048Y-12278524D01*
X13355524Y-12297571D01*
X13355524Y-12345190D01*
X13365048Y-12364238D01*
X13374571Y-12373762D01*
X13393619Y-12383286D01*
X13431714Y-12383286D01*
X13450762Y-12373762D01*
X13460286Y-12364238D01*
X13469809Y-12345190D01*
X13641238Y-12326143D02*
X13641238Y-12459476D01*
X13593619Y-12249952D02*
X13546000Y-12392809D01*
X13669809Y-12392809D01*
X13736476Y-12259476D02*
X13736476Y-12297571D01*
X13812667Y-12259476D02*
X13812667Y-12297571D01*
X14107905Y-12535667D02*
X14098381Y-12526143D01*
X14079333Y-12497571D01*
X14069809Y-12478524D01*
X14060286Y-12449952D01*
X14050762Y-12402333D01*
X14050762Y-12364238D01*
X14060286Y-12316619D01*
X14069809Y-12288048D01*
X14079333Y-12269000D01*
X14098381Y-12240428D01*
X14107905Y-12230905D01*
X14288857Y-12459476D02*
X14174571Y-12459476D01*
X14231714Y-12459476D02*
X14231714Y-12259476D01*
X14212667Y-12288048D01*
X14193619Y-12307095D01*
X14174571Y-12316619D01*
X14412667Y-12259476D02*
X14431714Y-12259476D01*
X14450762Y-12269000D01*
X14460286Y-12278524D01*
X14469809Y-12297571D01*
X14479333Y-12335667D01*
X14479333Y-12383286D01*
X14469809Y-12421381D01*
X14460286Y-12440428D01*
X14450762Y-12449952D01*
X14431714Y-12459476D01*
X14412667Y-12459476D01*
X14393619Y-12449952D01*
X14384095Y-12440428D01*
X14374571Y-12421381D01*
X14365048Y-12383286D01*
X14365048Y-12335667D01*
X14374571Y-12297571D01*
X14384095Y-12278524D01*
X14393619Y-12269000D01*
X14412667Y-12259476D01*
X14717428Y-12459476D02*
X14717428Y-12259476D01*
X14803143Y-12459476D02*
X14803143Y-12354714D01*
X14793619Y-12335667D01*
X14774571Y-12326143D01*
X14746000Y-12326143D01*
X14726952Y-12335667D01*
X14717428Y-12345190D01*
X14926952Y-12459476D02*
X14907905Y-12449952D01*
X14898381Y-12440428D01*
X14888857Y-12421381D01*
X14888857Y-12364238D01*
X14898381Y-12345190D01*
X14907905Y-12335667D01*
X14926952Y-12326143D01*
X14955524Y-12326143D01*
X14974571Y-12335667D01*
X14984095Y-12345190D01*
X14993619Y-12364238D01*
X14993619Y-12421381D01*
X14984095Y-12440428D01*
X14974571Y-12449952D01*
X14955524Y-12459476D01*
X14926952Y-12459476D01*
X15107905Y-12459476D02*
X15088857Y-12449952D01*
X15079333Y-12430905D01*
X15079333Y-12259476D01*
X15260286Y-12449952D02*
X15241238Y-12459476D01*
X15203143Y-12459476D01*
X15184095Y-12449952D01*
X15174571Y-12430905D01*
X15174571Y-12354714D01*
X15184095Y-12335667D01*
X15203143Y-12326143D01*
X15241238Y-12326143D01*
X15260286Y-12335667D01*
X15269809Y-12354714D01*
X15269809Y-12373762D01*
X15174571Y-12392809D01*
X15346000Y-12449952D02*
X15365048Y-12459476D01*
X15403143Y-12459476D01*
X15422190Y-12449952D01*
X15431714Y-12430905D01*
X15431714Y-12421381D01*
X15422190Y-12402333D01*
X15403143Y-12392809D01*
X15374571Y-12392809D01*
X15355524Y-12383286D01*
X15346000Y-12364238D01*
X15346000Y-12354714D01*
X15355524Y-12335667D01*
X15374571Y-12326143D01*
X15403143Y-12326143D01*
X15422190Y-12335667D01*
X15498381Y-12535667D02*
X15507905Y-12526143D01*
X15526952Y-12497571D01*
X15536476Y-12478524D01*
X15546000Y-12449952D01*
X15555524Y-12402333D01*
X15555524Y-12364238D01*
X15546000Y-12316619D01*
X15536476Y-12288048D01*
X15526952Y-12269000D01*
X15507905Y-12240428D01*
X15498381Y-12230905D01*
D17*
X10426000Y-12578000D02*
X10536000Y-12688000D01*
X10536000Y-12578000D02*
X10426000Y-12688000D01*
X10536000Y-12633000D02*
G75*
G03*
X10536000Y-12633000I-55000J0D01*
G01*
D11*
X10898381Y-12723476D02*
X10784095Y-12723476D01*
X10841238Y-12723476D02*
X10841238Y-12523476D01*
X10822190Y-12552048D01*
X10803143Y-12571095D01*
X10784095Y-12580619D01*
X10984095Y-12704428D02*
X10993619Y-12713952D01*
X10984095Y-12723476D01*
X10974571Y-12713952D01*
X10984095Y-12704428D01*
X10984095Y-12723476D01*
X11184095Y-12723476D02*
X11069810Y-12723476D01*
X11126952Y-12723476D02*
X11126952Y-12523476D01*
X11107905Y-12552048D01*
X11088857Y-12571095D01*
X11069810Y-12580619D01*
X11307905Y-12523476D02*
X11326952Y-12523476D01*
X11346000Y-12533000D01*
X11355524Y-12542524D01*
X11365048Y-12561571D01*
X11374571Y-12599667D01*
X11374571Y-12647286D01*
X11365048Y-12685381D01*
X11355524Y-12704428D01*
X11346000Y-12713952D01*
X11326952Y-12723476D01*
X11307905Y-12723476D01*
X11288857Y-12713952D01*
X11279333Y-12704428D01*
X11269809Y-12685381D01*
X11260286Y-12647286D01*
X11260286Y-12599667D01*
X11269809Y-12561571D01*
X11279333Y-12542524D01*
X11288857Y-12533000D01*
X11307905Y-12523476D01*
X11498381Y-12523476D02*
X11517428Y-12523476D01*
X11536476Y-12533000D01*
X11546000Y-12542524D01*
X11555524Y-12561571D01*
X11565048Y-12599667D01*
X11565048Y-12647286D01*
X11555524Y-12685381D01*
X11546000Y-12704428D01*
X11536476Y-12713952D01*
X11517428Y-12723476D01*
X11498381Y-12723476D01*
X11479333Y-12713952D01*
X11469809Y-12704428D01*
X11460286Y-12685381D01*
X11450762Y-12647286D01*
X11450762Y-12599667D01*
X11460286Y-12561571D01*
X11469809Y-12542524D01*
X11479333Y-12533000D01*
X11498381Y-12523476D01*
X11650762Y-12723476D02*
X11650762Y-12590143D01*
X11650762Y-12609190D02*
X11660286Y-12599667D01*
X11679333Y-12590143D01*
X11707905Y-12590143D01*
X11726952Y-12599667D01*
X11736476Y-12618714D01*
X11736476Y-12723476D01*
X11736476Y-12618714D02*
X11746000Y-12599667D01*
X11765048Y-12590143D01*
X11793619Y-12590143D01*
X11812667Y-12599667D01*
X11822190Y-12618714D01*
X11822190Y-12723476D01*
X11917428Y-12723476D02*
X11917428Y-12590143D01*
X11917428Y-12609190D02*
X11926952Y-12599667D01*
X11946000Y-12590143D01*
X11974571Y-12590143D01*
X11993619Y-12599667D01*
X12003143Y-12618714D01*
X12003143Y-12723476D01*
X12003143Y-12618714D02*
X12012667Y-12599667D01*
X12031714Y-12590143D01*
X12060286Y-12590143D01*
X12079333Y-12599667D01*
X12088857Y-12618714D01*
X12088857Y-12723476D01*
X12479333Y-12513952D02*
X12307905Y-12771095D01*
X12736476Y-12523476D02*
X12755524Y-12523476D01*
X12774571Y-12533000D01*
X12784095Y-12542524D01*
X12793619Y-12561571D01*
X12803143Y-12599667D01*
X12803143Y-12647286D01*
X12793619Y-12685381D01*
X12784095Y-12704428D01*
X12774571Y-12713952D01*
X12755524Y-12723476D01*
X12736476Y-12723476D01*
X12717428Y-12713952D01*
X12707905Y-12704428D01*
X12698381Y-12685381D01*
X12688857Y-12647286D01*
X12688857Y-12599667D01*
X12698381Y-12561571D01*
X12707905Y-12542524D01*
X12717428Y-12533000D01*
X12736476Y-12523476D01*
X12888857Y-12704428D02*
X12898381Y-12713952D01*
X12888857Y-12723476D01*
X12879333Y-12713952D01*
X12888857Y-12704428D01*
X12888857Y-12723476D01*
X13022190Y-12523476D02*
X13041238Y-12523476D01*
X13060286Y-12533000D01*
X13069809Y-12542524D01*
X13079333Y-12561571D01*
X13088857Y-12599667D01*
X13088857Y-12647286D01*
X13079333Y-12685381D01*
X13069809Y-12704428D01*
X13060286Y-12713952D01*
X13041238Y-12723476D01*
X13022190Y-12723476D01*
X13003143Y-12713952D01*
X12993619Y-12704428D01*
X12984095Y-12685381D01*
X12974571Y-12647286D01*
X12974571Y-12599667D01*
X12984095Y-12561571D01*
X12993619Y-12542524D01*
X13003143Y-12533000D01*
X13022190Y-12523476D01*
X13260286Y-12590143D02*
X13260286Y-12723476D01*
X13212667Y-12513952D02*
X13165048Y-12656809D01*
X13288857Y-12656809D01*
X13346000Y-12523476D02*
X13469809Y-12523476D01*
X13403143Y-12599667D01*
X13431714Y-12599667D01*
X13450762Y-12609190D01*
X13460286Y-12618714D01*
X13469809Y-12637762D01*
X13469809Y-12685381D01*
X13460286Y-12704428D01*
X13450762Y-12713952D01*
X13431714Y-12723476D01*
X13374571Y-12723476D01*
X13355524Y-12713952D01*
X13346000Y-12704428D01*
X13536476Y-12523476D02*
X13660286Y-12523476D01*
X13593619Y-12599667D01*
X13622190Y-12599667D01*
X13641238Y-12609190D01*
X13650762Y-12618714D01*
X13660286Y-12637762D01*
X13660286Y-12685381D01*
X13650762Y-12704428D01*
X13641238Y-12713952D01*
X13622190Y-12723476D01*
X13565048Y-12723476D01*
X13546000Y-12713952D01*
X13536476Y-12704428D01*
X13736476Y-12523476D02*
X13736476Y-12561571D01*
X13812667Y-12523476D02*
X13812667Y-12561571D01*
X14107905Y-12799667D02*
X14098381Y-12790143D01*
X14079333Y-12761571D01*
X14069809Y-12742524D01*
X14060286Y-12713952D01*
X14050762Y-12666333D01*
X14050762Y-12628238D01*
X14060286Y-12580619D01*
X14069809Y-12552048D01*
X14079333Y-12533000D01*
X14098381Y-12504428D01*
X14107905Y-12494905D01*
X14165048Y-12523476D02*
X14298381Y-12523476D01*
X14212667Y-12723476D01*
X14526952Y-12723476D02*
X14526952Y-12523476D01*
X14612667Y-12723476D02*
X14612667Y-12618714D01*
X14603143Y-12599667D01*
X14584095Y-12590143D01*
X14555524Y-12590143D01*
X14536476Y-12599667D01*
X14526952Y-12609190D01*
X14736476Y-12723476D02*
X14717428Y-12713952D01*
X14707905Y-12704428D01*
X14698381Y-12685381D01*
X14698381Y-12628238D01*
X14707905Y-12609190D01*
X14717428Y-12599667D01*
X14736476Y-12590143D01*
X14765048Y-12590143D01*
X14784095Y-12599667D01*
X14793619Y-12609190D01*
X14803143Y-12628238D01*
X14803143Y-12685381D01*
X14793619Y-12704428D01*
X14784095Y-12713952D01*
X14765048Y-12723476D01*
X14736476Y-12723476D01*
X14917428Y-12723476D02*
X14898381Y-12713952D01*
X14888857Y-12694905D01*
X14888857Y-12523476D01*
X15069809Y-12713952D02*
X15050762Y-12723476D01*
X15012667Y-12723476D01*
X14993619Y-12713952D01*
X14984095Y-12694905D01*
X14984095Y-12618714D01*
X14993619Y-12599667D01*
X15012667Y-12590143D01*
X15050762Y-12590143D01*
X15069809Y-12599667D01*
X15079333Y-12618714D01*
X15079333Y-12637762D01*
X14984095Y-12656809D01*
X15155524Y-12713952D02*
X15174571Y-12723476D01*
X15212667Y-12723476D01*
X15231714Y-12713952D01*
X15241238Y-12694905D01*
X15241238Y-12685381D01*
X15231714Y-12666333D01*
X15212667Y-12656809D01*
X15184095Y-12656809D01*
X15165048Y-12647286D01*
X15155524Y-12628238D01*
X15155524Y-12618714D01*
X15165048Y-12599667D01*
X15184095Y-12590143D01*
X15212667Y-12590143D01*
X15231714Y-12599667D01*
X15307905Y-12799667D02*
X15317428Y-12790143D01*
X15336476Y-12761571D01*
X15346000Y-12742524D01*
X15355524Y-12713952D01*
X15365048Y-12666333D01*
X15365048Y-12628238D01*
X15355524Y-12580619D01*
X15346000Y-12552048D01*
X15336476Y-12533000D01*
X15317428Y-12504428D01*
X15307905Y-12494905D01*
X10336000Y-12797000D02*
X10536000Y-12997000D01*
X10536000Y-12797000D02*
X10336000Y-12997000D01*
X10436000Y-12797000D02*
X10436000Y-12997000D01*
X10336000Y-12897000D02*
X10536000Y-12897000D01*
X10784095Y-12806524D02*
X10793619Y-12797000D01*
X10812667Y-12787476D01*
X10860286Y-12787476D01*
X10879333Y-12797000D01*
X10888857Y-12806524D01*
X10898381Y-12825571D01*
X10898381Y-12844619D01*
X10888857Y-12873190D01*
X10774571Y-12987476D01*
X10898381Y-12987476D01*
X10984095Y-12968428D02*
X10993619Y-12977952D01*
X10984095Y-12987476D01*
X10974571Y-12977952D01*
X10984095Y-12968428D01*
X10984095Y-12987476D01*
X11060286Y-12787476D02*
X11184095Y-12787476D01*
X11117429Y-12863667D01*
X11146000Y-12863667D01*
X11165048Y-12873190D01*
X11174571Y-12882714D01*
X11184095Y-12901762D01*
X11184095Y-12949381D01*
X11174571Y-12968428D01*
X11165048Y-12977952D01*
X11146000Y-12987476D01*
X11088857Y-12987476D01*
X11069810Y-12977952D01*
X11060286Y-12968428D01*
X11307905Y-12787476D02*
X11326952Y-12787476D01*
X11346000Y-12797000D01*
X11355524Y-12806524D01*
X11365048Y-12825571D01*
X11374571Y-12863667D01*
X11374571Y-12911286D01*
X11365048Y-12949381D01*
X11355524Y-12968428D01*
X11346000Y-12977952D01*
X11326952Y-12987476D01*
X11307905Y-12987476D01*
X11288857Y-12977952D01*
X11279333Y-12968428D01*
X11269809Y-12949381D01*
X11260286Y-12911286D01*
X11260286Y-12863667D01*
X11269809Y-12825571D01*
X11279333Y-12806524D01*
X11288857Y-12797000D01*
X11307905Y-12787476D01*
X11498381Y-12787476D02*
X11517428Y-12787476D01*
X11536476Y-12797000D01*
X11546000Y-12806524D01*
X11555524Y-12825571D01*
X11565048Y-12863667D01*
X11565048Y-12911286D01*
X11555524Y-12949381D01*
X11546000Y-12968428D01*
X11536476Y-12977952D01*
X11517428Y-12987476D01*
X11498381Y-12987476D01*
X11479333Y-12977952D01*
X11469809Y-12968428D01*
X11460286Y-12949381D01*
X11450762Y-12911286D01*
X11450762Y-12863667D01*
X11460286Y-12825571D01*
X11469809Y-12806524D01*
X11479333Y-12797000D01*
X11498381Y-12787476D01*
X11650762Y-12987476D02*
X11650762Y-12854143D01*
X11650762Y-12873190D02*
X11660286Y-12863667D01*
X11679333Y-12854143D01*
X11707905Y-12854143D01*
X11726952Y-12863667D01*
X11736476Y-12882714D01*
X11736476Y-12987476D01*
X11736476Y-12882714D02*
X11746000Y-12863667D01*
X11765048Y-12854143D01*
X11793619Y-12854143D01*
X11812667Y-12863667D01*
X11822190Y-12882714D01*
X11822190Y-12987476D01*
X11917428Y-12987476D02*
X11917428Y-12854143D01*
X11917428Y-12873190D02*
X11926952Y-12863667D01*
X11946000Y-12854143D01*
X11974571Y-12854143D01*
X11993619Y-12863667D01*
X12003143Y-12882714D01*
X12003143Y-12987476D01*
X12003143Y-12882714D02*
X12012667Y-12863667D01*
X12031714Y-12854143D01*
X12060286Y-12854143D01*
X12079333Y-12863667D01*
X12088857Y-12882714D01*
X12088857Y-12987476D01*
X12479333Y-12777952D02*
X12307905Y-13035095D01*
X12736476Y-12787476D02*
X12755524Y-12787476D01*
X12774571Y-12797000D01*
X12784095Y-12806524D01*
X12793619Y-12825571D01*
X12803143Y-12863667D01*
X12803143Y-12911286D01*
X12793619Y-12949381D01*
X12784095Y-12968428D01*
X12774571Y-12977952D01*
X12755524Y-12987476D01*
X12736476Y-12987476D01*
X12717428Y-12977952D01*
X12707905Y-12968428D01*
X12698381Y-12949381D01*
X12688857Y-12911286D01*
X12688857Y-12863667D01*
X12698381Y-12825571D01*
X12707905Y-12806524D01*
X12717428Y-12797000D01*
X12736476Y-12787476D01*
X12888857Y-12968428D02*
X12898381Y-12977952D01*
X12888857Y-12987476D01*
X12879333Y-12977952D01*
X12888857Y-12968428D01*
X12888857Y-12987476D01*
X13022190Y-12787476D02*
X13041238Y-12787476D01*
X13060286Y-12797000D01*
X13069809Y-12806524D01*
X13079333Y-12825571D01*
X13088857Y-12863667D01*
X13088857Y-12911286D01*
X13079333Y-12949381D01*
X13069809Y-12968428D01*
X13060286Y-12977952D01*
X13041238Y-12987476D01*
X13022190Y-12987476D01*
X13003143Y-12977952D01*
X12993619Y-12968428D01*
X12984095Y-12949381D01*
X12974571Y-12911286D01*
X12974571Y-12863667D01*
X12984095Y-12825571D01*
X12993619Y-12806524D01*
X13003143Y-12797000D01*
X13022190Y-12787476D01*
X13184095Y-12987476D02*
X13222190Y-12987476D01*
X13241238Y-12977952D01*
X13250762Y-12968428D01*
X13269809Y-12939857D01*
X13279333Y-12901762D01*
X13279333Y-12825571D01*
X13269809Y-12806524D01*
X13260286Y-12797000D01*
X13241238Y-12787476D01*
X13203143Y-12787476D01*
X13184095Y-12797000D01*
X13174571Y-12806524D01*
X13165048Y-12825571D01*
X13165048Y-12873190D01*
X13174571Y-12892238D01*
X13184095Y-12901762D01*
X13203143Y-12911286D01*
X13241238Y-12911286D01*
X13260286Y-12901762D01*
X13269809Y-12892238D01*
X13279333Y-12873190D01*
X13403143Y-12787476D02*
X13422190Y-12787476D01*
X13441238Y-12797000D01*
X13450762Y-12806524D01*
X13460286Y-12825571D01*
X13469809Y-12863667D01*
X13469809Y-12911286D01*
X13460286Y-12949381D01*
X13450762Y-12968428D01*
X13441238Y-12977952D01*
X13422190Y-12987476D01*
X13403143Y-12987476D01*
X13384095Y-12977952D01*
X13374571Y-12968428D01*
X13365048Y-12949381D01*
X13355524Y-12911286D01*
X13355524Y-12863667D01*
X13365048Y-12825571D01*
X13374571Y-12806524D01*
X13384095Y-12797000D01*
X13403143Y-12787476D01*
X13641238Y-12787476D02*
X13603143Y-12787476D01*
X13584095Y-12797000D01*
X13574571Y-12806524D01*
X13555524Y-12835095D01*
X13546000Y-12873190D01*
X13546000Y-12949381D01*
X13555524Y-12968428D01*
X13565048Y-12977952D01*
X13584095Y-12987476D01*
X13622190Y-12987476D01*
X13641238Y-12977952D01*
X13650762Y-12968428D01*
X13660286Y-12949381D01*
X13660286Y-12901762D01*
X13650762Y-12882714D01*
X13641238Y-12873190D01*
X13622190Y-12863667D01*
X13584095Y-12863667D01*
X13565048Y-12873190D01*
X13555524Y-12882714D01*
X13546000Y-12901762D01*
X13736476Y-12787476D02*
X13736476Y-12825571D01*
X13812667Y-12787476D02*
X13812667Y-12825571D01*
X14107905Y-13063667D02*
X14098381Y-13054143D01*
X14079333Y-13025571D01*
X14069809Y-13006524D01*
X14060286Y-12977952D01*
X14050762Y-12930333D01*
X14050762Y-12892238D01*
X14060286Y-12844619D01*
X14069809Y-12816048D01*
X14079333Y-12797000D01*
X14098381Y-12768428D01*
X14107905Y-12758905D01*
X14174571Y-12806524D02*
X14184095Y-12797000D01*
X14203143Y-12787476D01*
X14250762Y-12787476D01*
X14269809Y-12797000D01*
X14279333Y-12806524D01*
X14288857Y-12825571D01*
X14288857Y-12844619D01*
X14279333Y-12873190D01*
X14165048Y-12987476D01*
X14288857Y-12987476D01*
X14526952Y-12987476D02*
X14526952Y-12787476D01*
X14612667Y-12987476D02*
X14612667Y-12882714D01*
X14603143Y-12863667D01*
X14584095Y-12854143D01*
X14555524Y-12854143D01*
X14536476Y-12863667D01*
X14526952Y-12873190D01*
X14736476Y-12987476D02*
X14717428Y-12977952D01*
X14707905Y-12968428D01*
X14698381Y-12949381D01*
X14698381Y-12892238D01*
X14707905Y-12873190D01*
X14717428Y-12863667D01*
X14736476Y-12854143D01*
X14765048Y-12854143D01*
X14784095Y-12863667D01*
X14793619Y-12873190D01*
X14803143Y-12892238D01*
X14803143Y-12949381D01*
X14793619Y-12968428D01*
X14784095Y-12977952D01*
X14765048Y-12987476D01*
X14736476Y-12987476D01*
X14917428Y-12987476D02*
X14898381Y-12977952D01*
X14888857Y-12958905D01*
X14888857Y-12787476D01*
X15069809Y-12977952D02*
X15050762Y-12987476D01*
X15012667Y-12987476D01*
X14993619Y-12977952D01*
X14984095Y-12958905D01*
X14984095Y-12882714D01*
X14993619Y-12863667D01*
X15012667Y-12854143D01*
X15050762Y-12854143D01*
X15069809Y-12863667D01*
X15079333Y-12882714D01*
X15079333Y-12901762D01*
X14984095Y-12920809D01*
X15155524Y-12977952D02*
X15174571Y-12987476D01*
X15212667Y-12987476D01*
X15231714Y-12977952D01*
X15241238Y-12958905D01*
X15241238Y-12949381D01*
X15231714Y-12930333D01*
X15212667Y-12920809D01*
X15184095Y-12920809D01*
X15165048Y-12911286D01*
X15155524Y-12892238D01*
X15155524Y-12882714D01*
X15165048Y-12863667D01*
X15184095Y-12854143D01*
X15212667Y-12854143D01*
X15231714Y-12863667D01*
X15307905Y-13063667D02*
X15317428Y-13054143D01*
X15336476Y-13025571D01*
X15346000Y-13006524D01*
X15355524Y-12977952D01*
X15365048Y-12930333D01*
X15365048Y-12892238D01*
X15355524Y-12844619D01*
X15346000Y-12816048D01*
X15336476Y-12797000D01*
X15317428Y-12768428D01*
X15307905Y-12758905D01*
M02*
